<svg xmlns="http://www.w3.org/2000/svg" width="80.382" height="93.709" viewBox="0 0 80.382 93.709"><defs><style>.a{fill:#83cff2;}.b{fill:#232324;}.c{fill:#31393d;}.d{fill:#fdfdfd;}.e{fill:#9cb5cc;}.f{fill:#d7e7f7;}.g{fill:#e9eff2;}.h{fill:#f8f9fc;}.i{fill:#022540;}.j{fill:#ff5542;}</style></defs><g transform="translate(-1466.02 -358.806)"><g transform="translate(1466.02 358.806)"><g transform="translate(0 10.582)"><path class="a" d="M95.938,213.131c.754-.438,1.374-.079,1.38.787l.079,28.254a3.033,3.033,0,0,1-1.373,2.37L51.493,270.256c-.76.434-1.38.084-1.382-.781l-.082-28.258a3.039,3.039,0,0,1,1.371-2.376Z" transform="translate(-47.265 -209.841)"/><g transform="translate(2.948 35.741)"><path class="b" d="M127.6,255.682a.968.968,0,0,1-.007.1c0,.028,0,.059-.009.092a.588.588,0,0,1-.02.084.657.657,0,0,1-.027.092.691.691,0,0,1-.032.076.712.712,0,0,1-.045.1.289.289,0,0,1-.042.071,1.167,1.167,0,0,1-.068.111c-.017.021-.036.041-.054.064a1.148,1.148,0,0,1-.118.131c-.021.019-.042.043-.067.067a.689.689,0,0,1-.08.066c-.03.027-.064.053-.1.08s-.063.046-.1.067c-.05.037-.1.071-.153.1l-17.032,9.832,0-1.027-3.764-2.188,5.433-3.155v-.4l.353.2,7.384-4.286-.011-2.574-3.453-2-.795.462v-.918l-1.158-.67-2.3-1.327-4-2.317-1,.58,0-1.157-3.454-2-.776.451,0-.9-3.451-2L95.07,243.67l.006.793-.686-.4-3.579,2.078v.788l-.681-.4-3.582,2.082v.79l-.683-.4-3.574,2.08,0,.791-.687-.394-3.583,2.074.006.79-.683-.4-3.583,2.082,0,.787-.682-.4L69.5,258.51v.785l-.682-.391-3.579,2.079,0,.787-.682-.394-3.583,2.077.009,2.577,2,1.155-.854.5v-.9l-3.454-1.994-3.578,2.074.006,2.582,3.451,1.994.777-.452,0,.9,3.452,2,.776-.448v.9l3.458,2,.766-.447,0,.9,3.455,2,.791-.462,0,.923L75.5,281.23l7.585-4.4v-.515l.444.256,5.594-3.246v-.587l.509.292,2.048-1.187,0,.986,3.755,2.188-13.925,8.04a3.668,3.668,0,0,1-.444.208,1.29,1.29,0,0,1-.127.043,2.442,2.442,0,0,1-.311.094c-.093.026-.188.053-.283.071-.131.031-.267.053-.4.072a.445.445,0,0,0-.079.01,5.133,5.133,0,0,1-.535.029l-.082,0a5.082,5.082,0,0,1-.517-.031c-.03,0-.061,0-.089-.01a4.138,4.138,0,0,1-.5-.084c-.03-.007-.064-.012-.094-.02-.158-.041-.308-.087-.454-.14-.015,0-.033-.012-.051-.017a3.679,3.679,0,0,1-.483-.227l-25.977-15.1a1.554,1.554,0,0,1-.911-1.278c0,.856,0,1.714,0,2.574a1.566,1.566,0,0,0,.911,1.28l25.982,15.1a3,3,0,0,0,.47.227l.009,0a.281.281,0,0,0,.052.017c.1.038.21.076.318.106a1.372,1.372,0,0,1,.136.033c.031,0,.062.015.1.02a.537.537,0,0,0,.1.024,2.65,2.65,0,0,0,.311.053.391.391,0,0,0,.092.007c.027,0,.052.007.079.01.045,0,.089.012.132.015.108.007.208.015.311.016h.165c.052,0,.106,0,.16,0,.113,0,.23-.012.344-.025l.03,0c.025,0,.053-.01.078-.01l.288-.038c.04-.01.077-.024.118-.031.092-.02.184-.042.274-.066.056-.02.115-.025.168-.046a1.474,1.474,0,0,0,.151-.056c.042-.012.084-.027.129-.043a3.6,3.6,0,0,0,.441-.21l45.162-26.076c.038-.024.069-.038.106-.062a.364.364,0,0,1,.054-.04,1.156,1.156,0,0,0,.1-.069c.032-.025.064-.048.1-.075l.082-.069a.376.376,0,0,0,.035-.03c.011-.012.022-.023.035-.038.041-.043.082-.087.118-.131l.031-.033a.094.094,0,0,1,.019-.026,1.325,1.325,0,0,0,.072-.114c.012-.017.024-.035.032-.048l.007-.02a.875.875,0,0,0,.05-.1c.006-.019.019-.038.025-.058l0-.012c.009-.031.017-.067.025-.1s.012-.046.016-.064l0-.015a.635.635,0,0,0,.009-.1.5.5,0,0,0,.009-.071v-.021C127.609,257.4,127.606,256.538,127.6,255.682Z" transform="translate(-50.177 -238.774)"/><path class="c" d="M126.7,254.944l-25.979-15.1a4.929,4.929,0,0,0-4.451,0L51.105,265.923a1.362,1.362,0,0,0-.015,2.577l25.977,15.1a4.936,4.936,0,0,0,4.451,0l45.166-26.076A1.366,1.366,0,0,0,126.7,254.944Z" transform="translate(-50.178 -239.315)"/><g transform="translate(43.086 8.769)"><path class="d" d="M88.568,246.4l3.454,1.994-3.575,2.084-3.455-2Z" transform="translate(-84.991 -246.4)"/></g><g transform="translate(48.594 10.468)"><path class="d" d="M93.023,247.773l3.454,2L92.9,251.851l-3.456-2Z" transform="translate(-89.442 -247.773)"/></g><g transform="translate(52.973 7.838)"><path class="d" d="M97.169,245.648l4,2.316,2.3,1.327,1.158.67-6.04,3.5-3.455-1.994,1.859-1.081-4.007-2.316Z" transform="translate(-92.98 -245.648)"/></g><g transform="translate(44.57 12.808)"><path class="d" d="M89.769,249.664l3.454,2-3.578,2.074-3.454-2Z" transform="translate(-86.191 -249.664)"/></g><g transform="translate(58.031 12.608)"><path class="d" d="M104.449,249.5l3.452,2-7.38,4.283-3.455-2Z" transform="translate(-97.066 -249.502)"/></g><g transform="translate(52.085 17.099)"><path class="d" d="M97.857,253.131l3.456,2-5.593,3.241-3.457-2Z" transform="translate(-92.262 -253.131)"/></g><g transform="translate(43.074 18.576)"><path class="d" d="M88.559,254.324l3.451,2L88.435,258.4l-3.454-2Z" transform="translate(-84.981 -254.324)"/></g><g transform="translate(44.892 2.818)"><path class="d" d="M90.033,241.592l3.451,2-3.573,2.074-3.459-1.994Z" transform="translate(-86.451 -241.592)"/></g><g transform="translate(40.634 5.293)"><path class="d" d="M86.589,243.592l3.457,1.994-3.579,2.079-3.457-1.994Z" transform="translate(-83.01 -243.592)"/></g><g transform="translate(47.156 5.264)"><path class="d" d="M93.827,243.568l3.454,2-5.543,3.217-3.46-1.994Z" transform="translate(-88.279 -243.568)"/></g><g transform="translate(36.372 7.764)"><path class="d" d="M83.147,245.588l3.454,2-3.579,2.077-3.455-1.992Z" transform="translate(-79.566 -245.588)"/></g><g transform="translate(32.114 10.236)"><path class="d" d="M79.7,247.586l3.457,2-3.578,2.072-3.454-1.992Z" transform="translate(-76.126 -247.586)"/></g><g transform="translate(39.01 11.133)"><path class="d" d="M85.274,248.311l3.459,2-3.578,2.072L81.7,250.387Z" transform="translate(-81.698 -248.311)"/></g><g transform="translate(27.847 12.714)"><path class="d" d="M76.261,249.588l3.454,2-3.577,2.074-3.46-2Z" transform="translate(-72.678 -249.588)"/></g><g transform="translate(34.935 13.497)"><path class="d" d="M81.986,250.221l3.455,2-3.58,2.074L78.4,252.3Z" transform="translate(-78.405 -250.221)"/></g><g transform="translate(51.083 13.925)"><path class="d" d="M95.028,250.566l3.457,2-3.579,2.079-3.453-2Z" transform="translate(-91.453 -250.566)"/></g><g transform="translate(23.588 15.182)"><path class="d" d="M72.819,251.582l3.454,2-3.583,2.079-3.453-2Z" transform="translate(-69.236 -251.582)"/></g><g transform="translate(40.541 15.146)"><path class="d" d="M86.513,251.553l3.455,2-3.576,2.076-3.458-2Z" transform="translate(-82.935 -251.553)"/></g><g transform="translate(30.865 15.866)"><path class="d" d="M78.7,252.135l3.455,1.992-3.579,2.079-3.455-2Z" transform="translate(-75.116 -252.135)"/></g><g transform="translate(47.051 16.265)"><path class="d" d="M91.777,252.457l3.456,2-3.579,2.076-3.459-2Z" transform="translate(-88.195 -252.457)"/></g><g transform="translate(36.516 17.481)"><path class="d" d="M83.26,253.439l3.457,2-3.577,2.076-3.457-2Z" transform="translate(-79.682 -253.439)"/></g><g transform="translate(19.327 17.655)"><path class="d" d="M69.374,253.58l3.455,2-3.579,2.072-3.457-1.992Z" transform="translate(-65.794 -253.58)"/></g><g transform="translate(26.79 18.225)"><path class="d" d="M75.405,254.041l3.454,1.994-3.575,2.081-3.46-2Z" transform="translate(-71.824 -254.041)"/></g><g transform="translate(32.489 19.818)"><path class="d" d="M80.009,255.328l3.455,1.994L79.884,259.4l-3.455-2Z" transform="translate(-76.429 -255.328)"/></g><g transform="translate(15.067 20.13)"><path class="d" d="M65.931,255.58l3.455,2-3.579,2.079-3.454-2Z" transform="translate(-62.352 -255.58)"/></g><g transform="translate(22.721 20.592)"><path class="d" d="M72.109,255.953l3.456,1.992-3.576,2.079-3.452-1.994Z" transform="translate(-68.536 -255.953)"/></g><g transform="translate(38.913 20.991)"><path class="d" d="M85.2,256.275l3.455,2-3.58,2.074-3.454-2Z" transform="translate(-81.619 -256.275)"/></g><g transform="translate(28.464 22.153)"><path class="d" d="M76.754,257.215l3.455,2-3.575,2.076L73.176,259.3Z" transform="translate(-73.176 -257.215)"/></g><g transform="translate(10.806 22.603)"><path class="d" d="M62.492,257.578l3.454,2-3.584,2.081-3.452-2Z" transform="translate(-58.909 -257.578)"/></g><g transform="translate(18.644 22.953)"><path class="d" d="M68.822,257.861l3.455,2L68.7,261.934l-3.455-2Z" transform="translate(-65.242 -257.861)"/></g><g transform="translate(34.928 23.299)"><path class="d" d="M81.982,258.141l3.454,2-3.579,2.074-3.457-2Z" transform="translate(-78.399 -258.141)"/></g><g transform="translate(24.434 24.491)"><path class="d" d="M73.5,259.1l3.453,2-3.579,2.076-3.458-2Z" transform="translate(-69.92 -259.103)"/></g><g transform="translate(30.905 25.637)"><path class="d" d="M78.729,260.029l3.454,2L78.6,264.1l-3.455-1.994Z" transform="translate(-75.149 -260.029)"/></g><g transform="translate(4.929 26.016)"><path class="d" d="M57.739,260.336l3.455,1.994-3.581,2.079-3.452-2Z" transform="translate(-54.161 -260.336)"/></g><g transform="translate(20.409 26.828)"><path class="d" d="M70.25,260.992l3.457,2-3.579,2.079-3.459-2Z" transform="translate(-66.669 -260.992)"/></g><g transform="translate(35.998 20.558)"><path class="d" d="M94.987,255.926l3.455,2-15.724,9.12-3.455-1.992Z" transform="translate(-79.264 -255.926)"/></g><g transform="translate(26.923 27.952)"><path class="d" d="M75.509,261.9l3.454,1.994-3.576,2.079-3.455-2Z" transform="translate(-71.932 -261.9)"/></g><g transform="translate(9.157 25.424)"><path class="d" d="M66.39,259.857l3.455,2-8.817,5.112-3.452-2Z" transform="translate(-57.577 -259.857)"/></g><g transform="translate(41.499 24.051)"><path class="d" d="M96.585,258.748l5.1,2.961L88.807,269.14l-5.1-2.961Z" transform="translate(-83.709 -258.748)"/></g><g transform="translate(13.387 29.178)"><path class="d" d="M67.555,262.891l3.457,1.994-6.563,3.81-3.454-2Z" transform="translate(-60.995 -262.891)"/></g><g transform="translate(29.898 29.978)"><path class="d" d="M79.927,263.537l3.455,2-5.592,3.246-3.455-2Z" transform="translate(-74.335 -263.537)"/></g><g transform="translate(17.615 30.312)"><path class="d" d="M73.224,263.807l3.457,2-8.814,5.117-3.456-2Z" transform="translate(-64.411 -263.807)"/></g><g transform="translate(21.866 33.48)"><path class="d" d="M75.429,266.367l3.457,2-7.583,4.4-3.457-2Z" transform="translate(-67.845 -266.367)"/></g></g><path class="c" d="M98.125,211.371a.719.719,0,0,1-.082-.043c-.213-.126-.422-.246-.636-.374s-.423-.245-.634-.364a1.567,1.567,0,0,0-1.589.15L50.023,236.815a4.907,4.907,0,0,0-2.226,3.85l.084,30.047a1.56,1.56,0,0,0,.656,1.428l1.589.926a1.558,1.558,0,0,1-.655-1.431l-.082-30.045a4.92,4.92,0,0,1,2.223-3.855l45.162-26.069a1.573,1.573,0,0,1,1.589-.155C98.281,211.466,98.2,211.421,98.125,211.371Z" transform="translate(-47.796 -210.437)"/><g transform="translate(1.593 0.924)"><path class="b" d="M96.468,211.489c1.229-.712,2.238-.137,2.24,1.271l.087,30.046a4.936,4.936,0,0,1-2.228,3.856L51.406,272.736c-1.231.71-2.236.132-2.241-1.278l-.082-30.045a4.92,4.92,0,0,1,2.223-3.855ZM97,242.577l-.075-27.515c0-.844-.609-1.189-1.344-.761L52.213,239.335a2.956,2.956,0,0,0-1.338,2.313l.079,27.512c0,.844.609,1.184,1.345.759l43.362-25.037A2.948,2.948,0,0,0,97,242.577Z" transform="translate(-49.083 -211.183)"/></g></g><g transform="translate(6.976)"><g transform="translate(0 14.559)"><g transform="translate(0 12.936)"><path class="e" d="M54.723,258.958l-1.194-.694-.1-34.162,1.2.694Z" transform="translate(-53.433 -224.102)"/></g><path class="f" d="M54.628,227.28l-1.2-.694,22.4-12.936,1.195.7Z" transform="translate(-53.433 -213.65)"/><g transform="translate(1.195 0.696)"><path class="g" d="M76.8,214.212l.1,34.161-22.4,12.935-.1-34.162Z" transform="translate(-54.399 -214.212)"/></g></g><g transform="translate(16.613)"><g transform="translate(0 12.931)"><path class="e" d="M68.146,247.2l-1.2-.7-.094-34.165,1.193.7Z" transform="translate(-66.856 -212.334)"/></g><path class="f" d="M68.048,215.515l-1.193-.7,22.4-12.931,1.193.691Z" transform="translate(-66.856 -201.886)"/><g transform="translate(1.193 0.691)"><path class="g" d="M90.224,202.445l.1,34.165-22.4,12.936-.1-34.163Z" transform="translate(-67.819 -202.445)"/></g></g><g transform="translate(10.359 12.317)"><g transform="translate(0 12.935)"><path class="e" d="M63.094,257.146l-1.193-.694-.1-34.162,1.2.694Z" transform="translate(-61.802 -222.29)"/></g><path class="f" d="M63,225.467l-1.2-.694,22.4-12.935,1.195.694Z" transform="translate(-61.802 -211.838)"/><g transform="translate(1.197 0.694)"><path class="h" d="M85.171,212.4l.1,34.162L62.865,259.5l-.1-34.162Z" transform="translate(-62.769 -212.399)"/></g><g transform="translate(2.665 6.682)"><g transform="translate(0 5.245)"><g transform="translate(0 9.645)"><path class="i" d="M63.956,238.745v2.229L80.375,231.5v-2.227Z" transform="translate(-63.956 -229.268)"/></g><g transform="translate(0 13.563)"><path class="i" d="M63.956,244.138l16.419-9.478v-2.226l-16.419,9.478Z" transform="translate(-63.956 -232.434)"/></g><g transform="translate(0 17.478)"><path class="i" d="M63.956,247.3l16.419-9.478V235.6l-16.419,9.478Z" transform="translate(-63.956 -235.598)"/></g><g transform="translate(17.64 7.836)"><path class="i" d="M78.209,228.908v2.229l1.909-1.1v-2.228Z" transform="translate(-78.209 -227.807)"/></g><g transform="translate(17.64 11.753)"><path class="i" d="M78.209,232.073V234.3l1.909-1.1v-2.23Z" transform="translate(-78.209 -230.972)"/></g><g transform="translate(17.64 15.673)"><path class="i" d="M78.209,235.238v2.229l1.909-1.1v-2.226Z" transform="translate(-78.209 -234.139)"/></g><g transform="translate(0 1.809)"><path class="i" d="M63.956,232.414v2.228l16.419-9.477v-2.229Z" transform="translate(-63.956 -222.936)"/></g><g transform="translate(0 5.727)"><path class="i" d="M63.956,237.806l16.419-9.476V226.1l-16.419,9.477Z" transform="translate(-63.956 -226.102)"/></g><g transform="translate(17.64)"><path class="i" d="M78.209,222.577V224.8l1.909-1.1v-2.229Z" transform="translate(-78.209 -221.475)"/></g><g transform="translate(17.64 3.919)"><path class="i" d="M78.209,225.744v2.225l1.909-1.1v-2.229Z" transform="translate(-78.209 -224.642)"/></g></g><g transform="translate(3.731)"><path class="j" d="M66.97,223.209l3-1.734v1.062l-1,.58v3.4l-1.025.592v-3.4l-.973.561Z" transform="translate(-66.97 -216.23)"/><path class="j" d="M69.56,222.7a1.81,1.81,0,0,1,.986-1.606s1.106-.641,1.723-.9v.994L70.861,222a.484.484,0,0,0-.274.5v.27l1.422-.755V223l-1.422.879v.271c0,.321.172.214.327.127l1.355-.786v.986c-.541.4-1.673,1.073-1.673,1.073-.34.208-1.036.53-1.036-.4Z" transform="translate(-66.355 -216.534)"/><path class="j" d="M71.969,221.427a2.156,2.156,0,0,1,1.047-1.811,4.192,4.192,0,0,1,1.637-.745v.92c-.339.155-.92.472-1.27.672-.286.163-.391.239-.391.5v.066c0,.191.033.275.317.11l.5-.285c.8-.464.988.233.988.72v.2a2.1,2.1,0,0,1-1.073,1.986,4.2,4.2,0,0,1-1.632.738v-.923c.213-.1.88-.439,1.369-.724.226-.13.312-.246.312-.429v-.1c0-.178-.047-.243-.28-.109l-.474.275c-1,.58-1.047-.4-1.047-.689Z" transform="translate(-65.782 -216.849)"/><path class="j" d="M74.312,218.967l3-1.73V218.3l-1,.58v3.4l-1.025.593v-3.4l-.973.562Z" transform="translate(-65.225 -217.237)"/></g></g></g></g></g></g></svg>