<svg xmlns="http://www.w3.org/2000/svg" width="135.138" height="172.374" viewBox="0 0 135.138 172.374"><defs><style>.a{fill:#d43e3e;}.b{fill:#fa7564;}.c{fill:#9cb5cc;}.d{fill:#d7e7f7;}.e{fill:#f8f9fc;}.f{fill:#012234;}.g{fill:#024462;}.h{fill:#025a82;}.i{fill:#a61d1d;}.j{fill:#e08910;}.k{fill:#f0a72e;}.l{fill:#ffca00;}</style></defs><g transform="translate(-1093.731 -270.441)"><g transform="translate(1093.731 270.441)"><g transform="translate(69.418 24.347)"><path class="a" d="M415.916,389.989l-6.021-3.555,21.283-36.4,6.021,3.555Z" transform="translate(-409.896 -350.029)"/></g><g transform="translate(84.263)"><path class="a" d="M420.579,366.586l-6.015-3.555,23.549-20.658,6.024,3.555Z" transform="translate(-414.565 -342.372)"/></g><g transform="translate(40.326 60.752)"><path class="a" d="M406.758,368.142l-6.011-3.552,29.092-3.111,6.021,3.555Z" transform="translate(-400.746 -361.479)"/></g><g transform="translate(0 63.863)"><path class="a" d="M394.081,434.654l-6.018-3.558,40.326-68.638,6.011,3.552Z" transform="translate(-388.063 -362.457)"/></g><g transform="translate(6.018 3.555)"><path class="b" d="M474.216,364.149l23.559-20.658L491.416,374l-6.434-3.708L460.821,411.61l-29.12,3.13-37.435,63.751-4.31-2.5,40.32-68.644,29.1-3.108,21.283-36.4Z" transform="translate(-389.956 -343.49)"/></g></g><g transform="translate(1116.163 311.451)"><g transform="translate(74.709)"><g transform="translate(0 11.138)"><path class="c" d="M436.671,436.9l-18.056-10.675.317-67.449,18.056,10.675Z" transform="translate(-418.614 -358.772)"/></g><g transform="translate(0.317)"><path class="d" d="M436.77,377.083l-18.056-10.675,19.624-11.138,18.056,10.678Z" transform="translate(-418.714 -355.269)"/></g><g transform="translate(18.056 10.678)"><path class="e" d="M444.234,358.628l-.317,67.44-19.624,11.144.317-67.449Z" transform="translate(-424.293 -358.628)"/></g></g><g transform="translate(49.803 40.416)"><g transform="translate(0 11.141)"><path class="f" d="M428.834,423.318l-18.053-10.675.189-41.158,18.053,10.669Z" transform="translate(-410.781 -371.484)"/></g><g transform="translate(0.189)"><path class="g" d="M428.894,389.791l-18.053-10.669,19.637-11.141,18.047,10.676Z" transform="translate(-410.841 -367.98)"/></g><g transform="translate(18.053 10.676)"><path class="h" d="M436.279,371.338,436.1,412.5l-19.637,11.141.19-41.164Z" transform="translate(-416.459 -371.338)"/></g></g><g transform="translate(24.894 43.562)"><g transform="translate(0 11.154)"><path class="i" d="M421,435.282l-18.056-10.666.242-52.138,18.053,10.669Z" transform="translate(-402.947 -372.477)"/></g><g transform="translate(0.242)"><path class="a" d="M421.077,390.793l-18.053-10.669,19.643-11.154,18.053,10.678Z" transform="translate(-403.024 -368.97)"/></g><g transform="translate(18.056 10.678)"><path class="b" d="M428.508,372.328l-.239,52.138-19.643,11.141.239-52.135Z" transform="translate(-408.626 -372.328)"/></g></g><g transform="translate(0 80.804)"><g transform="translate(0 11.135)"><path class="j" d="M413.171,423.61l-18.053-10.672.137-28.753L413.3,394.86Z" transform="translate(-395.118 -384.184)"/></g><g transform="translate(0.137)"><path class="k" d="M413.208,402.493l-18.047-10.676,19.624-11.135,18.053,10.675Z" transform="translate(-395.161 -380.683)"/></g><g transform="translate(18.053 10.675)"><path class="l" d="M420.557,384.04l-.13,28.744L400.8,423.925l.13-28.75Z" transform="translate(-400.796 -384.04)"/></g></g></g></g></svg>