<svg xmlns="http://www.w3.org/2000/svg" xmlns:xlink="http://www.w3.org/1999/xlink" width="279.221" height="391.611" viewBox="0 0 279.221 391.611"><defs><style>.a{fill:url(#a);}.b{fill:url(#b);}.c{fill:#006ec6;}.d{fill:url(#c);}.e{fill:url(#d);}.f{fill:url(#e);}.g{fill:url(#f);}.h{fill:url(#g);}.i{fill:#34d1ff;}.j{fill:url(#h);}.k{fill:url(#i);}.l{fill:url(#j);}.m{fill:url(#k);}.n{fill:url(#l);}</style><linearGradient id="a" x1="0.5" y1="1" x2="0.5" gradientUnits="objectBoundingBox"><stop offset="0.105" stop-color="#00a8ff"/><stop offset="1" stop-color="#34d1ff"/></linearGradient><linearGradient id="b" x1="0.5" y1="0.837" x2="0.5" y2="-0.345" gradientUnits="objectBoundingBox"><stop offset="0.013" stop-color="#00a8ff"/><stop offset="1" stop-color="#34d1ff"/></linearGradient><linearGradient id="c" x1="0.5" y1="0.123" x2="0.5" y2="0.697" gradientUnits="objectBoundingBox"><stop offset="0.016" stop-color="#006ec6"/><stop offset="0.284" stop-color="#0078d0"/><stop offset="0.752" stop-color="#0095ed"/><stop offset="1" stop-color="#00a8ff"/></linearGradient><linearGradient id="d" y1="0.5" x2="1" y2="0.5" gradientUnits="objectBoundingBox"><stop offset="0" stop-color="#34d1ff"/><stop offset="0.31" stop-color="#30ceff"/><stop offset="0.564" stop-color="#26c6ff"/><stop offset="0.798" stop-color="#15b8ff"/><stop offset="1" stop-color="#00a8ff"/></linearGradient><linearGradient id="e" x1="0.5" y1="1" x2="0.5" gradientUnits="objectBoundingBox"><stop offset="0.105" stop-color="#00a8ff"/><stop offset="1" stop-color="#006ec6"/></linearGradient><linearGradient id="f" x1="0.5" x2="0.5" y2="1" gradientUnits="objectBoundingBox"><stop offset="0.11" stop-color="#00a8ff"/><stop offset="0.335" stop-color="#00a3fa"/><stop offset="0.578" stop-color="#0096ed"/><stop offset="0.83" stop-color="#0080d8"/><stop offset="1" stop-color="#006ec6"/></linearGradient><linearGradient id="g" x1="130.553" y1="-86.537" x2="130.553" y2="-85.87" xlink:href="#f"/><linearGradient id="h" x1="0.5" y1="0.971" x2="0.5" y2="0.029" gradientUnits="objectBoundingBox"><stop offset="0.016" stop-color="#006ec6"/><stop offset="0.283" stop-color="#0078d0"/><stop offset="0.751" stop-color="#0095ed"/><stop offset="0.998" stop-color="#00a8ff"/></linearGradient><linearGradient id="i" y1="0.5" x2="1" y2="0.5" gradientUnits="objectBoundingBox"><stop offset="0.016" stop-color="#00a8ff"/><stop offset="0.354" stop-color="#17baff"/><stop offset="0.743" stop-color="#2ccbff"/><stop offset="1" stop-color="#34d1ff"/></linearGradient><linearGradient id="j" x1="0.5" y1="0.209" x2="0.5" y2="1.484" gradientUnits="objectBoundingBox"><stop offset="0.013" stop-color="#00a8ff"/><stop offset="0.352" stop-color="#17baff"/><stop offset="0.742" stop-color="#2ccbff"/><stop offset="1" stop-color="#34d1ff"/></linearGradient><linearGradient id="k" x1="5.754" y1="-44.856" x2="5.754" y2="-45.856" xlink:href="#a"/><linearGradient id="l" x1="-15.668" y1="-131.656" x2="-15.668" y2="-130.989" xlink:href="#f"/></defs><g transform="translate(-189.215 -177.224)"><path class="a" d="M291.933,239.2l-.005-.005-111.7-111.7v55.848L264,267.115,236.07,295.048l27.924,27.924,27.939-27.939Z" transform="translate(176.406 105.784)"/><path class="b" d="M143.184,189.209l83.787,83.772-27.924,27.924L143.2,245.058Z" transform="translate(129.624 183.711)"/><path class="c" d="M171.117,176.879v55.848L143.193,204.8Z" transform="translate(129.635 168.142)"/><rect class="d" width="39.478" height="118.853" transform="translate(244.87 289.18) rotate(-135)"/><path class="c" d="M208.126,115.133v55.831L180.21,143.049Z" transform="translate(176.378 90.174)"/><path class="e" d="M202.263,223.65l-27.915,27.915L118.579,195.8l-.075-55.97Z" transform="translate(98.46 121.355)"/><path class="f" d="M158.825,139.862l55.834,0-55.834,55.834L130.91,167.778Z" transform="translate(114.125 121.395)"/><path class="g" d="M223.728,269.777l-55.834,0,55.834-55.834,27.915,27.915Z" transform="translate(160.825 214.946)"/><path class="h" d="M260.8,232.694l0-55.834-55.834,55.834,27.915,27.915Z" transform="translate(207.636 168.117)"/><path class="i" d="M211.4,102.821l27.915,27.915L211.4,158.652l-55.865-55.865Z" transform="translate(145.215 74.584)"/><path class="c" d="M180.463,232.8V176.954l27.924,27.924Z" transform="translate(176.697 168.236)"/><rect class="j" width="39.478" height="118.853" transform="translate(413.041 456.878) rotate(45)"/><path class="c" d="M143.449,294.538V238.707l27.915,27.915Z" transform="translate(129.959 246.213)"/><path class="k" d="M180.476,217.221l27.915-27.915,55.768,55.768.075,55.97Z" transform="translate(176.712 183.832)"/><path class="i" d="M171.355,306.869l-27.915-27.915,27.915-27.915L227.219,306.9Z" transform="translate(129.946 261.784)"/><path class="l" d="M183.5,139.856,239.349,195.7v55.848L155.578,167.78Z" transform="translate(145.274 121.391)"/><path class="m" d="M106.24,248.35l.005.005,111.7,111.695V304.2L134.17,220.432,162.1,192.5,134.18,164.574,106.24,192.513Z" transform="translate(82.974 152.603)"/><path class="n" d="M106.244,192.489l0,55.834,55.834-55.834-27.915-27.915Z" transform="translate(82.974 152.603)"/></g></svg>