<svg xmlns="http://www.w3.org/2000/svg" xmlns:xlink="http://www.w3.org/1999/xlink" width="144.421" height="280.747" viewBox="0 0 144.421 280.747"><defs><style>.a{fill:#0a4e84;}.b{fill:#3e3577;}.c{fill:#008de5;}.d{fill:#27c7ff;}.e{fill:#eebcc5;}.f{fill:#efc260;}.g{clip-path:url(#a);}.h{clip-path:url(#b);}.i{clip-path:url(#c);}.j{clip-path:url(#d);}.k{clip-path:url(#e);}.l{fill:#fff;}.m{fill:#bce4f7;}.n{fill:#0c92e6;}</style><clipPath id="a"><path class="a" d="M224.958,221.725l-.738.429a.2.2,0,0,0,.052-.044l.739-.431A.168.168,0,0,1,224.958,221.725Z" transform="translate(-224.22 -221.679)"/></clipPath><clipPath id="b"><path class="a" d="M225.369,221l.739-.429a1.579,1.579,0,0,0-.454.4l-.739.429A1.6,1.6,0,0,1,225.369,221Z" transform="translate(-224.915 -220.572)"/></clipPath><clipPath id="c"><path class="a" d="M224.867,220.5l.739-.429a2.8,2.8,0,0,1,2.812.275l-.738.429A2.807,2.807,0,0,0,224.867,220.5Z" transform="translate(-224.867 -219.805)"/></clipPath><clipPath id="d"><path class="a" d="M232.554,226.3l-.738.429c.11-.064.144-.247.067-.461l.738-.429C232.7,226.049,232.665,226.232,232.554,226.3Z" transform="translate(-231.816 -225.835)"/></clipPath><clipPath id="e"><path class="a" d="M229.07,221.951l.739-.429a8.674,8.674,0,0,1,3.495,4.456l-.739.429A8.674,8.674,0,0,0,229.07,221.951Z" transform="translate(-229.07 -221.522)"/></clipPath></defs><g transform="translate(-988.933 -98.739)"><g transform="translate(1025.135 181.342)"><path class="b" d="M253.148,273.139c-.887.049-1.285,1.127-1.4,2.007a19.31,19.31,0,0,0-.154,3.347,3.875,3.875,0,0,0,.3,1.541,2.987,2.987,0,0,0,1.836,1.437,11.585,11.585,0,0,0,2.364.364c4.5.444,8.914,2.067,13.419,1.692a4.347,4.347,0,0,0,2.01-.551,1.825,1.825,0,0,0,.9-1.769c-.147-.794-.926-1.283-1.63-1.676a91.947,91.947,0,0,0-10.021-5.051,2.385,2.385,0,0,0-1.19-.25.846.846,0,0,0-.774.8,3.784,3.784,0,0,1-2.664.382,3.544,3.544,0,0,1-2.128-1.489C253.743,273.52,253.632,273.112,253.148,273.139Z" transform="translate(-199.351 -94.33)"/><path class="b" d="M242.663,275.756a1.014,1.014,0,0,0-.924.5,2.788,2.788,0,0,0-.341,1.045,25.028,25.028,0,0,0-.364,3.588,2,2,0,0,0,1.066,1.734,9.38,9.38,0,0,1,2.474,2.684,16.045,16.045,0,0,0,9.806,5.965,1.953,1.953,0,0,0,2.3-1.578,3.833,3.833,0,0,0-.009-1.211,7.074,7.074,0,0,0-1.3-2.836,14.8,14.8,0,0,0-3.505-3.524,10.87,10.87,0,0,0-7.167-6.637A2.251,2.251,0,0,0,242.663,275.756Z" transform="translate(-204.911 -93.157)"/><g transform="translate(51.392 77.183)"><path class="a" d="M257.149,311.516a6.188,6.188,0,0,1-.765-.047,6.11,6.11,0,0,1-5.3-6.82c.05-.393,4.915-39.342,5.872-49.514.579-6.171.173-32.62-.032-42.29a6.11,6.11,0,0,1,12.217-.26c.031,1.449.744,35.564-.018,43.693-.973,10.358-5.711,48.276-5.913,49.886A6.11,6.11,0,0,1,257.149,311.516Z" transform="translate(-251.031 -206.606)"/></g><path class="c" d="M272.292,222.273s-8.85,4.932-15.734,5.2-10.59-1.324-10.59-1.324l-1.323-13.237,26.911-8.062Z" transform="translate(-203.007 -130.351)"/><g transform="translate(35.331 71.769)"><path class="c" d="M246.837,315.863a6.313,6.313,0,0,0,6.252-5.517c.226-1.783,5.531-43.79,5.531-55.631,0-11.624-1.88-44.322-1.961-45.707a6.31,6.31,0,0,0-12.6.727c.021.336,1.941,33.72,1.941,44.98,0,11.049-5.377,53.616-5.433,54.046a6.315,6.315,0,0,0,5.468,7.054A6.772,6.772,0,0,0,246.837,315.863Z" transform="translate(-240.516 -203.061)"/></g><path class="d" d="M238.573,184.423c4.689-6.89,24.173-9.588,28.908-10.449s5.589,6.027,6.408,13.929l3.913,27.52s4.126,9.666-2,11.867-31.048,6.651-33.488,2.2C241.72,228.4,236.872,186.923,238.573,184.423Z" transform="translate(-206.4 -146.673)"/><path class="e" d="M243.723,170.862a12.54,12.54,0,1,0,10.092-14.583A12.541,12.541,0,0,0,243.723,170.862Z" transform="translate(-203.602 -156.075)"/><path class="e" d="M259.011,166.282l-1.891,13.455h0a8.042,8.042,0,0,1-8.68,2.528l-1.471-.478.994-14.43Z" transform="translate(-201.781 -150.691)"/><path class="e" d="M242.8,168.072c.48,2.641,2,4.576,3.386,4.323s2.126-2.6,1.647-5.239-2-4.576-3.388-4.323S242.323,165.431,242.8,168.072Z" transform="translate(-204.056 -152.522)"/><path class="a" d="M253.757,156.28a12.537,12.537,0,0,1,12.9,5.737c-1.952,1.689-5.348,2.76-7.561,3.189-.971.188-10.014.577-9.91-1.037A22.3,22.3,0,0,1,248,170.04a4.257,4.257,0,0,0-4.039-3.383c-.108,0-.22,0-.331,0A12.533,12.533,0,0,1,253.757,156.28Z" transform="translate(-203.544 -156.075)"/><g transform="translate(11.461 33.804)"><path class="d" d="M230.426,245.105a5.343,5.343,0,0,1-5.323-4.918,123.278,123.278,0,0,1,1.532-27.844c2.739-15.879,20.57-32.082,21.329-32.764a5.346,5.346,0,0,1,7.153,7.946c-4.4,3.971-16.2,16.5-17.944,26.634a113.6,113.6,0,0,0-1.413,25.174,5.344,5.344,0,0,1-4.9,5.755C230.713,245.1,230.568,245.105,230.426,245.105Z" transform="translate(-224.889 -178.206)"/></g><g transform="translate(11.463 72.832)"><path class="e" d="M230.424,231.627a5.343,5.343,0,0,1-5.322-4.917,118.871,118.871,0,0,1,.278-18.073,5.346,5.346,0,0,1,10.652.927,110.421,110.421,0,0,0-.272,16.3,5.348,5.348,0,0,1-4.908,5.749C230.71,231.621,230.566,231.627,230.424,231.627Z" transform="translate(-224.89 -203.757)"/></g><g transform="translate(56.489 27.44)"><path class="d" d="M283.526,206.723c-8.213,0-19.7-12.945-28.088-24.131a5.346,5.346,0,0,1,8.554-6.415c7.222,9.623,16.011,18.633,19.253,19.8,2.589-1.088,8.573-8.108,12.94-15.271a5.346,5.346,0,0,1,9.133,5.561c-3.426,5.629-12.282,18.875-20.524,20.346A7.1,7.1,0,0,1,283.526,206.723Z" transform="translate(-254.368 -174.04)"/></g><g transform="translate(80.629 31.542)"><path class="e" d="M275.512,205.28a5.346,5.346,0,0,1-.944-10.607c2.4-.573,8.728-7.9,13.281-15.381a5.346,5.346,0,1,1,9.133,5.558c-3.426,5.629-12.282,18.875-20.524,20.346A5.4,5.4,0,0,1,275.512,205.28Z" transform="translate(-270.172 -176.725)"/></g><g transform="translate(0 94.286)"><path class="c" d="M217.388,220.449l0,26.473,27.505,16.063,4.584-2.835v-26.47l-27.5-15.878Z" transform="translate(-217.385 -217.803)"/><path class="a" d="M217.406,231.044l27.5,15.878v-10.6l4.566-2.644-27.5-15.878-4.584,2.646Z" transform="translate(-217.384 -217.803)"/><g transform="translate(10.863 18.518)"><path class="f" d="M226.573,230.21a4.552,4.552,0,0,1,2.064,3.574c0,1.314-.933,1.842-2.077,1.182A4.545,4.545,0,0,1,224.5,231.4C224.5,230.082,225.429,229.55,226.573,230.21Z" transform="translate(-224.497 -229.926)"/></g><g transform="translate(9.803 3.058)"><g transform="translate(0.637)"><g transform="translate(0 2.863)"><path class="a" d="M224.958,221.725l-.738.429a.2.2,0,0,0,.052-.044l.739-.431A.168.168,0,0,1,224.958,221.725Z" transform="translate(-224.22 -221.679)"/><g class="g"><path class="a" d="M224.272,222.11l.739-.431a.168.168,0,0,1-.053.046l-.738.429a.2.2,0,0,0,.052-.044" transform="translate(-224.22 -221.679)"/></g></g><g transform="translate(0.052 1.57)"><path class="a" d="M225.264,221.262l.739-.429-1.01,1.293-.739.429Z" transform="translate(-224.254 -220.833)"/></g><g transform="translate(1.062 1.172)"><path class="a" d="M225.369,221l.739-.429a1.579,1.579,0,0,0-.454.4l-.739.429A1.6,1.6,0,0,1,225.369,221Z" transform="translate(-224.915 -220.572)"/><g class="h"><path class="a" d="M225.369,221l.739-.429a1.579,1.579,0,0,0-.454.4l-.739.429a1.6,1.6,0,0,1,.454-.4" transform="translate(-224.915 -220.572)"/></g></g><g transform="translate(0.988)"><path class="a" d="M224.867,220.5l.739-.429a2.8,2.8,0,0,1,2.812.275l-.738.429A2.807,2.807,0,0,0,224.867,220.5Z" transform="translate(-224.867 -219.805)"/><g class="i"><g transform="translate(0 0)"><path class="a" d="M224.867,220.46l.739-.429a1.889,1.889,0,0,1,.324-.15l-.739.429a2,2,0,0,0-.324.15" transform="translate(-224.867 -219.765)"/><path class="a" d="M225.079,220.336l.739-.429a2.269,2.269,0,0,1,.275-.075l-.738.429a2.37,2.37,0,0,0-.276.075" transform="translate(-224.755 -219.791)"/><path class="a" d="M225.26,220.272l.738-.429c.075-.014.15-.024.228-.032l-.739.429c-.078.008-.153.018-.226.032" transform="translate(-224.66 -219.802)"/><path class="a" d="M225.408,220.243l.739-.429c.066-.006.134-.009.2-.009l-.739.429c-.069,0-.136,0-.2.009" transform="translate(-224.582 -219.805)"/><path class="a" d="M225.541,220.234l.739-.429c.061,0,.124,0,.188.006l-.739.429c-.064,0-.127-.006-.188-.006" transform="translate(-224.511 -219.805)"/><path class="a" d="M225.664,220.238l.739-.429c.058,0,.118.011.177.018l-.739.429c-.06-.008-.119-.014-.177-.018" transform="translate(-224.447 -219.803)"/><path class="a" d="M225.78,220.25l.739-.429c.056.008.113.017.171.029l-.739.429c-.058-.012-.115-.021-.171-.029" transform="translate(-224.385 -219.796)"/><path class="a" d="M225.892,220.269l.739-.429c.053.009.11.023.165.037l-.739.429c-.055-.014-.11-.028-.165-.037" transform="translate(-224.326 -219.787)"/><path class="a" d="M226,220.293l.739-.429c.053.012.108.028.162.044l-.738.429c-.055-.017-.108-.032-.163-.044" transform="translate(-224.269 -219.774)"/><path class="a" d="M226.107,220.322l.738-.429c.053.015.107.034.16.052l-.738.429-.16-.052" transform="translate(-224.213 -219.759)"/><path class="a" d="M226.212,220.356l.738-.429c.053.018.105.038.159.06l-.738.431-.159-.061" transform="translate(-224.158 -219.741)"/><path class="a" d="M226.316,220.4l.738-.431c.053.021.105.044.159.067l-.739.429c-.053-.023-.105-.046-.157-.066" transform="translate(-224.103 -219.72)"/><path class="a" d="M226.419,220.439l.739-.429c.052.024.105.049.157.075l-.738.429-.159-.075" transform="translate(-224.048 -219.697)"/><path class="a" d="M226.523,220.488l.738-.429c.053.026.107.055.16.082l-.739.431c-.053-.029-.105-.058-.159-.084" transform="translate(-223.994 -219.671)"/><path class="a" d="M226.627,220.544l.739-.431.124.07-.738.429c-.041-.024-.084-.047-.125-.069" transform="translate(-223.939 -219.643)"/></g></g></g><g transform="translate(3.801 0.541)"><path class="a" d="M226.709,220.588l.739-.429,3.607,2.083-.739.429Z" transform="translate(-226.709 -220.159)"/></g><g transform="translate(11.602 9.211)"><path class="a" d="M232.554,226.3l-.738.429c.11-.064.144-.247.067-.461l.738-.429C232.7,226.049,232.665,226.232,232.554,226.3Z" transform="translate(-231.816 -225.835)"/><g class="j"><g transform="translate(0 -0.001)"><path class="a" d="M231.86,226.264l.739-.429.006.016-.739.429-.006-.016" transform="translate(-231.793 -225.835)"/><path class="a" d="M231.863,226.274l.739-.429.006.02-.739.429-.006-.02" transform="translate(-231.791 -225.829)"/><path class="a" d="M231.867,226.287l.739-.429.006.02-.739.429-.006-.02" transform="translate(-231.789 -225.822)"/><path class="a" d="M231.871,226.3l.739-.429,0,.02-.738.429-.006-.02" transform="translate(-231.787 -225.815)"/><path class="a" d="M231.875,226.313l.738-.429,0,.02-.738.429,0-.02" transform="translate(-231.785 -225.809)"/><path class="a" d="M231.878,226.326l.738-.429,0,.018-.739.429,0-.018" transform="translate(-231.783 -225.802)"/><path class="a" d="M231.88,226.338l.739-.429,0,.02-.739.429,0-.02" transform="translate(-231.782 -225.795)"/><path class="a" d="M231.882,226.351l.739-.429,0,.018-.739.429,0-.018" transform="translate(-231.781 -225.788)"/><path class="a" d="M231.884,226.363l.739-.429,0,.018-.739.429v-.018" transform="translate(-231.78 -225.782)"/><path class="a" d="M231.885,226.375l.739-.429,0,.017-.739.429,0-.017" transform="translate(-231.78 -225.776)"/><path class="a" d="M231.886,226.386l.739-.429v.018l-.738.429,0-.018" transform="translate(-231.779 -225.77)"/><path class="a" d="M231.887,226.4l.739-.429v.017l-.739.429V226.4" transform="translate(-231.779 -225.764)"/><path class="a" d="M231.887,226.41l.739-.429V226l-.739.429v-.018" transform="translate(-231.779 -225.758)"/><path class="a" d="M231.887,226.421l.739-.429v.018l-.739.429v-.018" transform="translate(-231.779 -225.752)"/><path class="a" d="M231.887,226.432l.739-.429,0,.018-.738.429,0-.018" transform="translate(-231.78 -225.746)"/><path class="a" d="M231.886,226.444l.738-.429,0,.018-.739.429,0-.018" transform="translate(-231.781 -225.739)"/><path class="a" d="M231.884,226.456l.739-.429,0,.018-.738.429,0-.018" transform="translate(-231.782 -225.733)"/><path class="a" d="M231.883,226.468l.738-.429,0,.02-.739.429.006-.02" transform="translate(-231.784 -225.727)"/><path class="a" d="M231.879,226.481l.739-.429-.008.02-.738.429.006-.02" transform="translate(-231.786 -225.72)"/><path class="a" d="M231.876,226.494l.738-.429-.009.021-.738.429.009-.021" transform="translate(-231.789 -225.713)"/><path class="a" d="M231.872,226.508l.738-.429-.014.026-.739.429.015-.026" transform="translate(-231.794 -225.706)"/><path class="a" d="M231.879,226.525l.739-.429a.193.193,0,0,1-.064.063l-.738.429a.2.2,0,0,0,.063-.063" transform="translate(-231.816 -225.697)"/></g></g></g><g transform="translate(10.903 7.078)"><path class="a" d="M231.358,224.868l.739-.429.766,2.132-.739.429Z" transform="translate(-231.358 -224.439)"/></g><g transform="translate(7.408 2.623)"><path class="a" d="M229.07,221.951l.739-.429a8.674,8.674,0,0,1,3.495,4.456l-.739.429A8.674,8.674,0,0,0,229.07,221.951Z" transform="translate(-229.07 -221.522)"/><g class="k"><path class="a" d="M229.07,221.951l.739-.429.038.023-.739.429-.038-.023" transform="translate(-229.07 -221.522)"/><path class="a" d="M229.1,221.966l.739-.429c.055.032.108.066.163.1l-.739.429c-.053-.034-.108-.067-.163-.1" transform="translate(-229.057 -221.514)"/><path class="a" d="M229.2,222.031l.739-.429.168.112-.739.429c-.055-.038-.111-.075-.168-.111" transform="translate(-229 -221.48)"/><path class="a" d="M229.312,222.1l.739-.429.171.121-.739.429c-.057-.041-.113-.081-.171-.121" transform="translate(-228.942 -221.441)"/><path class="a" d="M229.424,222.183l.739-.429c.058.044.116.087.173.133l-.738.429c-.058-.046-.116-.089-.174-.133" transform="translate(-228.883 -221.4)"/><path class="a" d="M229.538,222.27l.738-.429c.06.047.119.095.177.144l-.739.431c-.058-.05-.118-.1-.176-.145" transform="translate(-228.823 -221.354)"/><path class="a" d="M229.653,222.366l.739-.431c.06.05.119.1.177.156l-.739.429c-.058-.053-.118-.105-.177-.154" transform="translate(-228.763 -221.304)"/><path class="a" d="M229.769,222.466l.739-.429c.058.052.118.107.174.162l-.738.429c-.058-.055-.116-.11-.176-.162" transform="translate(-228.701 -221.25)"/><path class="a" d="M229.884,222.572l.738-.429c.058.055.113.11.17.166l-.739.429c-.055-.057-.111-.112-.168-.167" transform="translate(-228.641 -221.194)"/><path class="a" d="M229.994,222.681l.739-.429c.055.057.108.113.162.17l-.739.431c-.053-.058-.107-.115-.162-.171" transform="translate(-228.583 -221.137)"/><path class="a" d="M230.1,222.794l.739-.431c.052.057.1.115.156.173l-.739.429c-.052-.058-.1-.116-.156-.171" transform="translate(-228.527 -221.078)"/><path class="a" d="M230.2,222.905l.739-.429.151.177-.739.429c-.05-.06-.1-.119-.151-.177" transform="translate(-228.473 -221.019)"/><path class="a" d="M230.3,223.021l.739-.429c.05.063.1.125.153.189l-.739.429c-.05-.064-.1-.127-.153-.189" transform="translate(-228.421 -220.958)"/><path class="a" d="M230.4,223.145l.739-.429c.057.072.112.145.167.218l-.738.429c-.055-.073-.111-.147-.168-.218" transform="translate(-228.368 -220.892)"/><path class="a" d="M230.511,223.288l.738-.429c.081.108.159.22.235.333l-.738.429c-.076-.113-.156-.225-.235-.333" transform="translate(-228.31 -220.817)"/><path class="a" d="M230.665,223.506l.738-.429c.115.17.225.344.328.521l-.739.429c-.1-.177-.214-.351-.327-.521" transform="translate(-228.229 -220.702)"/><path class="a" d="M230.879,223.847l.739-.429c.064.11.127.221.186.333l-.739.429c-.06-.112-.122-.223-.186-.333" transform="translate(-228.116 -220.522)"/><path class="a" d="M231,224.065l.739-.429c.041.078.081.154.119.232l-.738.429c-.04-.076-.079-.154-.121-.232" transform="translate(-228.051 -220.407)"/><path class="a" d="M231.08,224.217l.738-.429c.035.069.067.136.1.2l-.739.429c-.032-.069-.064-.136-.1-.2" transform="translate(-228.01 -220.327)"/><path class="a" d="M231.144,224.351l.739-.429c.029.063.058.127.087.191l-.739.429c-.028-.064-.057-.127-.087-.191" transform="translate(-227.976 -220.256)"/><path class="a" d="M231.2,224.476l.739-.429c.028.063.053.125.081.188l-.739.429c-.026-.063-.053-.125-.081-.188" transform="translate(-227.946 -220.19)"/><path class="a" d="M231.254,224.6l.739-.429c.026.063.052.127.076.191l-.739.429c-.024-.064-.05-.128-.076-.191" transform="translate(-227.918 -220.125)"/><path class="a" d="M231.3,224.724l.739-.429.073.194-.739.429c-.023-.064-.047-.13-.073-.194" transform="translate(-227.892 -220.059)"/><path class="a" d="M231.352,224.851l.739-.429.009.026-.739.429-.009-.026" transform="translate(-227.866 -219.992)"/></g></g></g><g transform="translate(0 0.429)"><path class="a" d="M231.848,222.709a8.675,8.675,0,0,1,3.495,4.456l.767,2.132c.093.263.023.481-.159.486a.333.333,0,0,1-.173-.05.805.805,0,0,1-.328-.419l-.767-2.132a7.036,7.036,0,0,0-2.836-3.617l-3.608-2.082c-1.114-.643-2.151-.577-2.737.174l-1.01,1.294a.236.236,0,0,1-.318.018.684.684,0,0,1-.194-.176.6.6,0,0,1-.121-.658l1.011-1.291c.724-.926,2-1.01,3.371-.217Z" transform="translate(-223.803 -220.086)"/></g></g></g><path class="l" d="M246.933,174.079s3.1,2.624,6.76,2.028,3.976-2.9,3.976-2.9l.159,1.989,2.025,6.864-5.112-3.62-5.325,4.9-2.684-5.279Z" transform="translate(-201.906 -147.04)"/><g transform="translate(43.639 8.849)"><g transform="translate(8.641 2.152)"><path class="b" d="M259.38,167.5a4.406,4.406,0,0,1-4.158,4.228,3.759,3.759,0,0,1-3.6-4.228,4.406,4.406,0,0,1,4.158-4.228A3.759,3.759,0,0,1,259.38,167.5Z" transform="translate(-251.612 -163.277)"/><path class="m" d="M254.678,171.014a2.43,2.43,0,0,1-1.819-.77,3.413,3.413,0,0,1-.811-2.569,4.208,4.208,0,0,1,3.828-4.048,2.432,2.432,0,0,1,1.819.77,3.41,3.41,0,0,1,.81,2.568A4.207,4.207,0,0,1,254.678,171.014Z" transform="translate(-251.387 -163.092)"/></g><g transform="translate(15.876)"><path class="b" d="M263.872,166.1a4.323,4.323,0,0,1-4.014,4.228,3.735,3.735,0,0,1-3.5-4.228,4.321,4.321,0,0,1,4.013-4.228A3.735,3.735,0,0,1,263.872,166.1Z" transform="translate(-256.349 -161.868)"/><path class="m" d="M259.413,169.582a2.416,2.416,0,0,1-1.81-.767,3.392,3.392,0,0,1-.808-2.557,4.187,4.187,0,0,1,3.811-4.029,2.427,2.427,0,0,1,1.81.765,3.4,3.4,0,0,1,.805,2.557A4.186,4.186,0,0,1,259.413,169.582Z" transform="translate(-256.119 -161.678)"/></g><g transform="translate(0 3.731)"><path class="a" d="M254.606,167.724a.709.709,0,0,1-.177-.021l-7.888-1.886a.763.763,0,1,1,.356-1.485l7.886,1.886a.763.763,0,0,1-.177,1.506Z" transform="translate(-245.955 -164.311)"/></g></g></g><g transform="translate(988.933 98.739)"><path class="n" d="M197.788,134.74l57.5-32.341a2.264,2.264,0,0,1,2.048-.264,1087.649,1087.649,0,0,0,.412.137,2.069,2.069,0,0,1,.208.069c.069.02.138.041.206.069a1.925,1.925,0,0,1,.206.069q.105.03.206.069a2.08,2.08,0,0,1,.208.07,1.809,1.809,0,0,1,.206.069,1.722,1.722,0,0,1,.206.069,1506.594,1506.594,0,0,0,.412.137,1.739,1.739,0,0,1,.208.069c.069.02.137.041.206.069a1.629,1.629,0,0,1,.206.069,6527.428,6527.428,0,0,0,.412.137,1.956,1.956,0,0,1,.208.069q.105.03.206.069a1.923,1.923,0,0,1,.206.07,9792.754,9792.754,0,0,1,.412.137,1.737,1.737,0,0,1,.208.069,5339.522,5339.522,0,0,1,.619.206,1.731,1.731,0,0,1,.208.069,3916.906,3916.906,0,0,0,.412.137,1.919,1.919,0,0,1,.206.069,2.062,2.062,0,0,1,.208.069c1.34.368,2.262,2.207,2.262,4.969v52.286c0,3.9-1.837,8.157-4.1,9.5l-8.175,4.845v16l-.206-.185v.116l-.206-.185v.116l-.208-.185v.116l-.206-.185v.116l-.206-.185v.116l-.206-.185v.116l-.206-.186v.118l-.208-.186v.118l-.206-.186v.118l-.206-.186v.118l-.206-.186v.118l-.208-.186v.118l-.206-.186v.116l-.206-.185v.116l-.206-.185v.116l-.208-.185v.116l-.206-.185v.116l-.206-.185v.116l-.206-.185v.116l-.206-.186v.118l-.208-.186v.118l-.206-.186v.118l-.206-.186v.118l-.206-.186v.118l-.208-.186v.116l-.206-.185V190l-.206-.185v.116l-.206-.185v.116l-.206-.185v.116l-.208-.185v.116l-.206-.185v.116l-6.75-6.065-37.6,19.7a2.257,2.257,0,0,1-2.047.266c-.07-.02-.139-.043-.208-.069s-.139-.043-.206-.069c-4.113-1.653-6.615-1.582-6.615-6.9V144.239C193.684,140.337,195.521,136.084,197.788,134.74Z" transform="translate(-193.684 -101.996)"/><g transform="translate(4.973 2.13)"><path class="l" d="M201.043,136.138,259.97,103.8c2.267-1.344,4.1.732,4.1,4.634V160.72c0,3.9-1.837,8.157-4.1,9.5l-8.175,4.845v16l-10.726-9.638-40.027,21.138c-2.265,1.344-4.1-.732-4.1-4.634V145.639C196.94,141.735,198.778,137.483,201.043,136.138Z" transform="translate(-196.94 -103.39)"/><g transform="translate(19.819 40.18)"><path class="c" d="M226.641,134.9c0,2.051.965,3.142,2.157,2.435s2.157-2.94,2.157-4.992-.967-3.142-2.157-2.436S226.641,132.852,226.641,134.9Z" transform="translate(-201.093 -129.695)"/><path class="c" d="M218.278,139.859c0,2.051.965,3.142,2.157,2.436s2.157-2.942,2.157-4.993-.967-3.14-2.157-2.435S218.278,137.807,218.278,139.859Z" transform="translate(-205.504 -127.081)"/><path class="c" d="M209.915,144.816c0,2.05.965,3.14,2.155,2.435s2.158-2.94,2.158-4.992-.967-3.142-2.158-2.436S209.915,142.765,209.915,144.816Z" transform="translate(-209.915 -124.467)"/></g></g></g></g></svg>