<svg xmlns="http://www.w3.org/2000/svg" width="86.115" height="198.614" viewBox="0 0 86.115 198.614"><defs><style>.a{fill:#eebcc5;}.b{fill:#0a4e84;}.c{fill:#008de5;}.d{fill:#035ba2;}.e{fill:#fff;}.f{fill:#27c7ff;}</style></defs><g transform="translate(-420.758 -498.363)"><ellipse class="a" cx="14.41" cy="14.41" rx="14.41" ry="14.41" transform="translate(456.082 502.866)"/><path class="b" d="M450.479,432.178l.823,5.063s.127,1.2-.57,1.584a5.933,5.933,0,0,1-3.8.823,28.272,28.272,0,0,1-5.635-2.216s-1.076-1.52-1.265-1.455a12.985,12.985,0,0,1-1.457.062s-7.217-3.228-8.356-4.81.506-3.609.506-3.609,2.09-1.9,8.546.95A50.722,50.722,0,0,0,450.479,432.178Z" transform="translate(49.048 245.499)"/><path class="b" d="M435.724,439.717l.823,5.065s.127,1.2-.57,1.582a5.921,5.921,0,0,1-3.8.825,28.375,28.375,0,0,1-5.635-2.216s-1.076-1.52-1.267-1.457a12.607,12.607,0,0,1-1.456.064s-7.217-3.228-8.357-4.812.508-3.608.508-3.608,2.088-1.9,8.546.95A50.66,50.66,0,0,0,435.724,439.717Z" transform="translate(40.758 249.735)"/><path class="a" d="M432.98,330.319l2.972,13.958h0a8.446,8.446,0,0,1-7.658,5.615h0a2.082,2.082,0,0,1-2.074-1.5l-3.756-13.036Z" transform="translate(44.916 191.184)"/><path class="c" d="M431.1,339.432l4.3-.437s5.285-.464,7.094,1.345,12.663,17.726,14.472,26.409-14.109,12.661-14.109,12.661l-7.236-2.894Z" transform="translate(49.768 196.028)"/><path class="d" d="M430.915,384.546c.32-.106.656-.212.957-.319.868-.3,1.7-.62,2.48-.957.956-.389,1.824-.814,2.639-1.2,1.009-.512,7.795-3.1,8.559-3.566,0,0-.091,23.474,1.6,44.321,1.193,14.722,4.206,27.485,4.668,32.593.178,2.2.2,7.528-.212,7.757-.248.038-3.277.372-4.518.391h-.051c-3.153-.512-6.82-2.215-8.643-4.942l-.142-.584L430.912,424.1l-2.847-27.674C428.1,395.967,430.915,389.594,430.915,384.546Z" transform="translate(48.063 218.252)"/><path class="e" d="M395.64,353.759a9.052,9.052,0,0,0-1.153,2.038,5.74,5.74,0,0,1,1.117,1.4l.141.07a13.908,13.908,0,0,1,6.961-6.075c.284-.106.55-.2.8-.284.036,0,.07-.017.106-.017a13.673,13.673,0,0,1-1.346-1.327c-.106-.108-.2-.2-.283-.284a8.961,8.961,0,0,0-1.648.62A12.963,12.963,0,0,0,395.64,353.759Z" transform="translate(29.199 201.835)"/><path class="d" d="M426.535,384.274a29.1,29.1,0,0,0,8.749-.618c1.187-.267,2.321-.567,3.4-.922,0,5.048-2.819,23.137-3.156,33.179-.017.48-.391,10.648-.428,11.109-.317,4.659-.275,44.223-1.709,44.01-2.994-.461-5,1.318-7.69-1.71-1.19-11.245-5.594-24.385-7.264-38.455-2.055-17.331-1.42-35.811-3.15-50.72A22.437,22.437,0,0,0,426.535,384.274Z" transform="translate(40.884 219.178)"/><path class="d" d="M426.535,384.274a22.437,22.437,0,0,1-11.248-4.126c.832,7.18,1.526,15.093,2.146,23.3,6.2-.942,15.131-6.211,21.017-10.077.139-4.854.234-8.849.234-10.637-1.079.355-2.213.654-3.4.922A29.1,29.1,0,0,1,426.535,384.274Z" transform="translate(40.884 219.178)"/><path class="f" d="M395.1,363.787c1.115-3.1,4.554-5.716,7.262-6.792.284-.106.55-.2.8-.284a22.658,22.658,0,0,1,2.23,1.665c.355.284.709.586,1.046.886.39.337.779.692,1.151,1.046a1.11,1.11,0,0,0,.142.141c2.5,2.391,4.8,5.031,7.28,7.3-1.479-1.37,7.453-14.3,8.734-15.818,7.173-8.52,21.328-11.8,31.88-12.935,17.472-1.879,11.04,59.286,9.177,61.149a15.625,15.625,0,0,1-2.479,1.771c-1.232.75-6.507,4.91-10.822,5.715-8.1,1.507-17.588,1.445-24.87-4.332-.3-.237-.637-.442-.94-.69,0-1.151,2.076-25.478,1.951-32.6-1.357,1.663-5.8,9.872-7.136,11.851a4.6,4.6,0,0,1-3.52,2.109,4.506,4.506,0,0,1-2.9-.932C406.417,377.276,401.326,370.712,395.1,363.787Z" transform="translate(29.543 196.032)"/><ellipse class="a" cx="4.207" cy="4.207" rx="4.207" ry="4.207" transform="translate(420.758 545.771)"/><path class="e" d="M437.595,341.484l-1.832-5.609L423.4,340.568l-.458,4.922Z" transform="translate(45.185 194.305)"/><path class="b" d="M441.732,332.8a14.59,14.59,0,0,0-14.409-14.409A14.327,14.327,0,0,0,420,320.4c-.84,1.971-1,3.984.336,4.687-1.392-.512,1.49,12.209,3.18,11.995l1.036-.442c.4-1.79,1.41-3.947,2.121.34a2.6,2.6,0,0,1-.123,1.353c-1.053,2.594-2.336,6.894,3.783,6.9C430.979,345.226,442.129,344.449,441.732,332.8Z" transform="translate(43.169 184.48)"/><path class="a" d="M427.422,333.121a4.206,4.206,0,1,0-5.274,2.75A4.206,4.206,0,0,0,427.422,333.121Z" transform="translate(43.084 189.684)"/><path class="b" d="M424.229,334.846l-.7,3.341a2.273,2.273,0,0,1-.419,1.062.787.787,0,0,1-1.028.186c.244-1.994.411-4.254-.9-5.774a6.071,6.071,0,0,1-.909-1.079c-.659-1.273.47-3.025-.365-4.19-.484-.676-1.409-.817-2.188-1.107a5.743,5.743,0,0,1-3.1-7.033,7.444,7.444,0,0,1,6.461-4.748,1.636,1.636,0,0,0,.247,1.863,3.656,3.656,0,0,0,1.718,1.009c2.638.845,5.483.539,8.251.664a26.189,26.189,0,0,1,7.456,1.443,4.9,4.9,0,0,1,2.7,1.779c.5.812.542,1.834.962,2.691.711,1.452,2.357,2.183,3.378,3.437,1.821,2.235,1.215,5.723-.587,7.972s-4.5,3.555-7.111,4.782c-.845.4-1.89.779-2.65.242a2.673,2.673,0,0,1-.789-1.157q-1.036-2.315-2.068-4.626a9.125,9.125,0,0,0-1.379-2.4,3.082,3.082,0,0,0-2.422-1.14,4.479,4.479,0,0,0-1.852.708C426.1,333.24,425.036,334.357,424.229,334.846Z" transform="translate(40.351 182.86)"/></g></svg>