<svg xmlns="http://www.w3.org/2000/svg" width="103.356" height="216.271" viewBox="0 0 103.356 216.271"><defs><style>.a{fill:#0a4e84;}.b{fill:#48cfff;}.c{fill:#008de5;}.d{fill:#035ba2;}.e{fill:#eebcc5;}.f{fill:#f7f7fb;}.g{fill:#3e3577;}.h{fill:#e7ebf2;}.i{fill:#27c7ff;}</style></defs><g transform="translate(-468.244 -252.011)"><path class="a" d="M222.54,404.962c.929.051,1.343,1.18,1.466,2.1a20.346,20.346,0,0,1,.161,3.5,4.069,4.069,0,0,1-.312,1.615,3.126,3.126,0,0,1-1.922,1.5,12,12,0,0,1-2.473.38c-4.71.465-9.33,2.163-14.046,1.773a4.57,4.57,0,0,1-2.1-.577,1.911,1.911,0,0,1-.938-1.853c.153-.83.969-1.343,1.706-1.754,3.424-1.9,6.542-2.6,10.173-4.078.4-.16,2.184-1.778,2.609-1.72s-.206.662-.237,1.09a3.964,3.964,0,0,0,2.787.4,3.7,3.7,0,0,0,2.227-1.557C221.916,405.361,222.033,404.935,222.54,404.962Z" transform="translate(285.345 36.101)"/><path class="a" d="M233.673,411.964a1.057,1.057,0,0,1,.966.521,2.863,2.863,0,0,1,.357,1.094,25.946,25.946,0,0,1,.38,3.755,2.092,2.092,0,0,1-1.114,1.814,9.8,9.8,0,0,0-2.59,2.809,16.8,16.8,0,0,1-10.264,6.243,2.044,2.044,0,0,1-2.4-1.652,4.01,4.01,0,0,1,.01-1.268,7.389,7.389,0,0,1,1.357-2.97c1-1.424,6.662-5.217,7.623-6.273,1.421-1.564,1.524-3.784,3.548-4.361A2.362,2.362,0,0,1,233.673,411.964Z" transform="translate(295.29 40.048)"/><path class="b" d="M211.318,402.586v7.757l.369.219a4.67,4.67,0,0,0,5.911-.958h0l.246-7.018Z" transform="translate(290.715 34.679)"/><path class="b" d="M230.2,416.015l.186-7.018h-4.926l.1,6.8S226.614,418.931,230.2,416.015Z" transform="translate(299.184 38.518)"/><g transform="translate(468.244 273.281)"><path class="c" d="M199.982,339.4a7.218,7.218,0,0,1-5.942-2.737,13.989,13.989,0,0,1-3.653-12c.353-2.12,3.1-13.234,22.454-23.949a5.595,5.595,0,0,1,5.421,9.789c-6.3,3.5-16.008,11.014-16.839,16.008a2.6,2.6,0,0,0,.1,1.373c4.153-1.338,14.1-8.014,22.825-15.437a5.6,5.6,0,0,1,7.255,8.521C214.239,335.75,205.056,339.4,199.982,339.4Z" transform="translate(-190.183 -300.014)"/></g><g transform="translate(519.966 351.392)"><path class="d" d="M230.351,447.862c.1,0,.2,0,.309-.008a6.393,6.393,0,0,0,6.085-6.689c-.018-.366-1.731-36.721-1.372-47.866.42-13.047.946-37.648.953-37.9a6.4,6.4,0,0,0-6.257-6.529c-.046,0-.093,0-.139,0a6.393,6.393,0,0,0-6.39,6.259c-.006.245-.531,24.779-.95,37.756-.376,11.65,1.308,47.369,1.38,48.883A6.394,6.394,0,0,0,230.351,447.862Z" transform="translate(-222.535 -348.872)"/></g><g transform="translate(493.57 262.388)"><path class="e" d="M211.619,306.955a5.6,5.6,0,0,1-4.014-9.493l2.488-2.563a5.6,5.6,0,1,1,8.03,7.794l-2.488,2.563A5.581,5.581,0,0,1,211.619,306.955Z" transform="translate(-206.024 -293.2)"/></g><g transform="translate(495.473 340.775)"><path class="d" d="M218.291,441.221a6.248,6.248,0,0,0,.874-.059,6.394,6.394,0,0,0,5.469-7.2c-1.383-10.11-4.906-38.321-4.616-47.333.408-12.628,4.136-36.775,4.174-37.017a6.4,6.4,0,1,0-12.639-1.962c-.158,1.022-3.887,25.165-4.318,38.566-.384,11.93,4.518,47.95,4.727,49.479A6.394,6.394,0,0,0,218.291,441.221Z" transform="translate(-207.215 -342.231)"/></g><path class="d" d="M246.627,343.413l-2.734,26.678L209.26,362.1l-.425-22.505S242.381,340.441,246.627,343.413Z" transform="translate(289.229 -3.037)"/><path class="f" d="M225.97,308.173s4.592,1.282,5.018,2.35S228,316.5,224.37,319.17s-7.88,28.01-7.88,28.01-2.262-29.612-2.155-36.552S225.97,308.173,225.97,308.173Z" transform="translate(292.519 -22.701)"/><g transform="translate(491.423 259.081)"><rect class="g" width="21.059" height="10.414" transform="matrix(-0.747, 0.664, -0.664, -0.747, 22.659, 7.784)"/><rect class="h" width="7.218" height="17.862" transform="matrix(0.664, 0.747, -0.747, 0.664, 15.608, 2.256)"/></g><path class="i" d="M218.977,308.736s-7.8.779-8.185,8.966c-.325,6.815-1.731,37.685-2.192,47.826a5.838,5.838,0,0,0,2.619,5.15c4.7,3.111,14.336,8.9,20.622,8.616a45.79,45.79,0,0,0,14.814-3.119s.78-54.574-1.17-57.3S229.891,306.4,226.774,306.4,218.977,308.736,218.977,308.736Z" transform="translate(289.084 -22.911)"/><path class="e" d="M209.919,301.5A12.5,12.5,0,1,0,223.171,289.8,12.5,12.5,0,0,0,209.919,301.5Z" transform="translate(289.863 -32.861)"/><path class="e" d="M213.909,301.711l4.254,12.855h0a8.014,8.014,0,0,0,8.962.927h0a1.974,1.974,0,0,0,.978-2.224l-3.172-12.476Z" transform="translate(292.266 -26.267)"/><path class="e" d="M222.162,299.462A3.8,3.8,0,1,0,226.2,295.9,3.8,3.8,0,0,0,222.162,299.462Z" transform="translate(297.203 -29.199)"/><rect class="f" width="32.399" height="17.819" transform="translate(571.601 387.877) rotate(180)"/><path class="f" d="M230.068,311.584s0-5.356-.953-5.712-2.737-1.189-2.737-1.189l.715,2.855s-2.619,2.737-5.236,3.1l-2.619.357-1.193,1.249-1.188-3.986-.833-2.381s-1.666-.118-1.9.476,2.5,10.472,2.5,10.472l3.333.6,4.641-1.9Z" transform="translate(292.384 -23.938)"/><path class="e" d="M217.417,309.408l1.787,4.7-1.19,3.451-1.428-.238-1.428-3.808Z" transform="translate(293.014 -21.109)"/><path class="e" d="M216.34,342.728s-2.158-19.206-1.92-20.635,2.617-7.734,2.617-7.734l1.429.238.1.2,1.7,8.283Z" transform="translate(292.561 -18.144)"/><g transform="translate(524.721 294.464)"><path class="c" d="M259.423,384.5a5.594,5.594,0,0,1-5.52-4.726c-2.593-16.462-6.46-36.2-8.189-39.4-2-3.69-11.751-12.219-18.038-17.1a5.6,5.6,0,0,1,6.859-8.843c2.841,2.2,17.2,13.549,21.023,20.612,3.445,6.368,8.066,34.512,9.4,42.986a5.6,5.6,0,0,1-4.659,6.4A5.437,5.437,0,0,1,259.423,384.5Z" transform="translate(-225.509 -313.264)"/></g><g transform="translate(551.341 359.266)"><path class="e" d="M247.751,368.069a5.6,5.6,0,0,1-4.815-8.441l1.816-3.076a5.6,5.6,0,1,1,9.639,5.685l-1.815,3.078A5.6,5.6,0,0,1,247.751,368.069Z" transform="translate(-242.16 -353.797)"/></g><path class="a" d="M234.4,301.6a3.092,3.092,0,0,0-2.233,1.109,3.3,3.3,0,0,0-.307,1.947q.062,1.321.126,2.644a.607.607,0,0,1-.747.074,1.519,1.519,0,0,1-.561-.609,10.082,10.082,0,0,1-1.025-4.253c-.067-.743-.486-1.373-.336-2.106a8.975,8.975,0,0,1,.8-2.085,42.088,42.088,0,0,1-17.242.369,3.233,3.233,0,0,1-1.76-.737,2.769,2.769,0,0,1-.587-1.042,20.05,20.05,0,0,1-.034-7.017,4.905,4.905,0,0,1,3.119-2.795,10.253,10.253,0,0,1,4.288-.305c.91.094,9.58,2.564,15.832,4.369a4.933,4.933,0,0,1,2.716,7.506C235.641,299.872,234.884,300.968,234.4,301.6Z" transform="translate(290.05 -34.698)"/><path class="a" d="M230.345,298.434a13,13,0,0,1-.406,3.81,4.4,4.4,0,0,1-2.388,2.854,5.724,5.724,0,0,1-1.989.318,4.853,4.853,0,0,1-2.078-.289c-1.3-.576-1.947-2.053-3.082-2.911a3.923,3.923,0,0,0-4.491-.083,8.766,8.766,0,0,0-4.691-1.893.981.981,0,0,0-.622.075,1.049,1.049,0,0,0-.353.878,58.249,58.249,0,0,0-.037,6.341,4.138,4.138,0,0,0,.4,1.866,3.745,3.745,0,0,0,1.867,1.42c4.873,2.112,10.5,1.418,15.626.04a4.363,4.363,0,0,0,1.779-.79,4.567,4.567,0,0,0,1.177-2.78l.993-5.669a3.879,3.879,0,0,0,.072-1.4C231.973,299.464,230.9,298.976,230.345,298.434Z" transform="translate(290.009 -27.679)"/></g></svg>