<svg xmlns="http://www.w3.org/2000/svg" xmlns:xlink="http://www.w3.org/1999/xlink" width="124.235" height="222.51" viewBox="0 0 124.235 222.51"><defs><style>.a{fill:#0a4e84;}.b{fill:#48cfff;}.c{fill:#008de5;}.d{fill:#035ba2;}.e{fill:#f7f7fb;}.f{fill:#27c7ff;}.g{fill:#eebcc5;}.h{fill:#efc260;}.i{clip-path:url(#a);}.j{clip-path:url(#b);}.k{clip-path:url(#c);}.l{clip-path:url(#d);}.m{clip-path:url(#e);}</style><clipPath id="a"><path class="a" d="M.79.049,0,.508A.175.175,0,0,0,.056.459L.846,0A.194.194,0,0,1,.79.049Z"/></clipPath><clipPath id="b"><path class="a" d="M.483.459,1.274,0A1.688,1.688,0,0,0,.789.426L0,.885A1.7,1.7,0,0,1,.483.459Z"/></clipPath><clipPath id="c"><path class="a" d="M0,.743.789.284A3,3,0,0,1,3.8.578l-.79.459A2.993,2.993,0,0,0,0,.743Z"/></clipPath><clipPath id="d"><path class="a" d="M.789.495,0,.954C.119.883.154.687.072.46L.861,0C.942.229.908.425.789.495Z"/></clipPath><clipPath id="e"><path class="a" d="M0,.459.79,0A9.273,9.273,0,0,1,4.526,4.763l-.79.459A9.265,9.265,0,0,0,0,.459Z"/></clipPath></defs><g transform="translate(-1610.366 -435.429)"><g transform="translate(1622.063 432.967) rotate(3)"><g transform="translate(11.348 0)"><path class="a" d="M1.68,0C.731.054.306,1.2.181,2.147A20.777,20.777,0,0,0,.017,5.723,4.157,4.157,0,0,0,.334,7.372,3.192,3.192,0,0,0,2.3,8.907a12.278,12.278,0,0,0,2.528.39c4.809.475,9.529,2.209,14.345,1.809a4.648,4.648,0,0,0,2.149-.589,1.948,1.948,0,0,0,.958-1.892c-.155-.847-.988-1.372-1.742-1.79-3.5-1.946-6.68-2.662-10.388-4.165C9.739,2.5,7.914.852,7.479.911s.212.678.242,1.114a4.048,4.048,0,0,1-2.846.408A3.789,3.789,0,0,1,2.6.841C2.316.408,2.2-.028,1.68,0Z" transform="translate(52.119 192.099)"/><path class="a" d="M1.74.419A1.082,1.082,0,0,0,.753.953,2.941,2.941,0,0,0,.389,2.07,26.48,26.48,0,0,0,0,5.9,2.139,2.139,0,0,0,1.139,7.757a10.031,10.031,0,0,1,2.645,2.871A17.154,17.154,0,0,0,14.267,17a2.09,2.09,0,0,0,2.456-1.687,4.2,4.2,0,0,0-.01-1.295,7.566,7.566,0,0,0-1.388-3.032C14.3,9.533,8.523,5.659,7.54,4.579,6.09,2.984,5.983.714,3.916.126A2.417,2.417,0,0,0,1.74.419Z" transform="translate(30.529 202.862)"/><path class="b" d="M6.667,0V7.924l-.379.224a4.77,4.77,0,0,1-6.037-.98h0L0,0Z" transform="translate(53.108 188.219)"/><path class="b" d="M.189,7.168,0,0H5.031L4.925,6.948S3.855,10.148.189,7.168Z" transform="translate(31.648 198.687)"/><g transform="translate(51.755 33.059)"><path class="c" d="M26.114,45.584c-2.727,0-11.025,0-25.724-37.8A5.715,5.715,0,1,1,11.042,3.645C16.2,16.9,22.962,29.983,26.412,33.616c2.8-2.479,7.748-10.792,11.169-18.969a5.715,5.715,0,1,1,10.545,4.41C38.956,40.983,31.1,45.584,26.114,45.584Zm-.622-11.334Z" transform="translate(0 0)"/></g><g transform="translate(28.721 101.501)"><path class="d" d="M6.537,101.1c-.106,0-.211,0-.315-.008A6.528,6.528,0,0,1,.008,94.263c.016-.374,1.768-37.5,1.4-48.886C.979,32.052.44,6.924.435,6.672a6.531,6.531,0,1,1,13.06-.279c0,.251.542,25.309.97,38.563.384,11.9-1.336,48.378-1.409,49.926A6.532,6.532,0,0,1,6.537,101.1Z" transform="translate(0 0)"/></g><g transform="translate(50.405 90.658)"><path class="d" d="M6.539,101.1a6.392,6.392,0,0,1-.893-.062A6.53,6.53,0,0,1,.061,93.686c1.411-10.324,5.01-39.139,4.712-48.344C4.357,32.445.549,7.782.51,7.534a6.532,6.532,0,0,1,12.909-2c.162,1.042,3.969,25.7,4.41,39.389C18.223,57.107,13.216,93.9,13,95.456A6.532,6.532,0,0,1,6.539,101.1Z" transform="translate(0 0)"/></g><path class="d" d="M0,3.9,2.792,31.15l35.372-8.164L38.6,0S4.337.867,0,3.9Z" transform="translate(27.012 86.348)"/><path class="e" d="M5.161,1.456S.473,2.764.037,3.854,3.09,9.96,6.8,12.686s8.048,28.608,8.048,28.608,2.311-30.244,2.2-37.33S5.161,1.456,5.161,1.456Z" transform="translate(39.587 32.72)"/><path class="f" d="M28.425,2.389s7.962.8,8.36,9.157c.331,6.961,1.767,38.491,2.239,48.848a5.96,5.96,0,0,1-2.675,5.258c-4.8,3.178-14.642,9.092-21.064,8.8A46.765,46.765,0,0,1,.157,71.266s-.8-55.739,1.2-58.526S17.278,0,20.462,0,28.425,2.389,28.425,2.389Z" transform="translate(26.976 32.146)"/><path class="g" d="M25.5,11.968A12.764,12.764,0,1,1,11.97.025,12.764,12.764,0,0,1,25.5,11.968Z" transform="translate(38.351 5.01)"/><path class="g" d="M14.56.937l-4.347,13.13h0a8.182,8.182,0,0,1-9.152.947h0a2.017,2.017,0,0,1-1-2.271L3.3,0Z" transform="translate(42.766 22.995)"/><path class="g" d="M7.764,3.644A3.886,3.886,0,1,1,3.644.008,3.886,3.886,0,0,1,7.764,3.644Z" transform="translate(36.091 14.998)"/><path class="e" d="M0,7.049s0-5.47.972-5.834S3.769,0,3.769,0l-.73,2.916s2.675,2.8,5.348,3.161l2.675.364,1.216,1.275,1.215-4.071.851-2.431s1.7-.121,1.945.487-2.552,10.7-2.552,10.7l-3.4.607-4.74-1.945Z" transform="translate(40.702 29.346)"/><path class="e" d="M1.693,1.265S-.152,2.333.01,2.658,4.35,14.212,4.35,14.212l8.3,22.4,2.82-11.881.815-16.165s3.8-2.929,1.03-5.749L14.549,0,12.108,4.992Z" transform="translate(41.134 34.473)"/><path class="g" d="M1.825,0,0,4.8,1.215,8.328l1.459-.243,1.459-3.89Z" transform="translate(51.155 37.062)"/><path class="g" d="M4.012,28.977S6.218,9.36,5.975,7.9,3.3,0,3.3,0L1.842.243,1.736.452,0,8.912Z" transform="translate(50.528 45.147)"/><path class="c" d="M.018,42.666,4.556,17.894l-1.3-4.012s3.9-6.509,3.362-7.593S2.17,0,2.17,0L1.628,2.495a40,40,0,0,1,.65,4.229c0,.976-1.3,19.088-1.519,20.389S0,37.09,0,37.09Z" transform="translate(54.54 32.26)"/><path class="c" d="M3.574,0,0,5.676S4.182,8.509,4.182,8.994s.243,8.875.243,9.239S17.187,42.786,17.187,42.786s-4.332-25.192-4.939-26.65-7.58-11.4-7.58-11.4Z" transform="translate(37.371 32.141)"/><g transform="translate(0 43.357)"><path class="c" d="M21.793,62.071a5.7,5.7,0,0,1-4.613-2.335C14.775,56.456,2.663,39.706.4,32.02-.421,29.22-2.93,20.695,29.7.834A5.715,5.715,0,0,1,35.642,10.6c-11.3,6.884-22.1,15.479-23.99,19.013,1.912,4.848,9.572,16.311,14.745,23.366a5.715,5.715,0,0,1-4.6,9.095Z" transform="translate(0 0)"/></g><g transform="translate(16.82 95.599)"><path class="g" d="M7.574,14.575a5.715,5.715,0,0,1-4.928-2.812L.793,8.619a5.715,5.715,0,0,1,9.844-5.808l1.853,3.143a5.716,5.716,0,0,1-4.917,8.62Z" transform="translate(0 0)"/></g><g transform="translate(90.209 39.608)"><path class="g" d="M5.709,14.614A5.716,5.716,0,0,1,.727,6.108l1.78-3.184A5.715,5.715,0,0,1,12.484,8.5L10.7,11.688A5.716,5.716,0,0,1,5.709,14.614Z" transform="translate(0 0)"/></g><path class="a" d="M2.965,15.21a3.167,3.167,0,0,1,2.281,1.133,3.371,3.371,0,0,1,.314,1.989q-.064,1.35-.129,2.7a.618.618,0,0,0,.761.075,1.535,1.535,0,0,0,.573-.62,10.289,10.289,0,0,0,1.048-4.345c.067-.759.5-1.4.343-2.15a9.168,9.168,0,0,0-.818-2.129,42.958,42.958,0,0,0,17.61.377,3.291,3.291,0,0,0,1.8-.753,2.838,2.838,0,0,0,.6-1.065,20.479,20.479,0,0,0,.034-7.167A5.01,5.01,0,0,0,24.194.4a10.446,10.446,0,0,0-4.379-.31c-.929.095-9.784,2.617-16.17,4.461A5.038,5.038,0,0,0,.87,12.219C1.7,13.443,2.475,14.562,2.965,15.21Z" transform="translate(35.693 0)"/></g><g transform="translate(0 175.181)"><path class="f" d="M0,2.829l0,28.3L29.4,48.3l4.9-3.03v-28.3L4.9,0Z" transform="translate(0 0)"/><path class="d" d="M.02,14.156l29.4,16.973V19.8L34.3,16.974,17.066,7.024,4.9,0,0,2.829Z" transform="translate(0.003 0)"/><g transform="translate(11.612 19.796)"><path class="h" d="M2.219.3A4.862,4.862,0,0,1,4.425,4.124c0,1.4-1,1.969-2.221,1.264A4.859,4.859,0,0,1,0,1.57C0,.166,1-.4,2.219.3Z" transform="translate(0 0)"/></g><g transform="translate(10.48 3.269)"><g transform="translate(0.68 0)"><g transform="translate(0)"><g transform="translate(0 3.06)"><path class="a" d="M.79.049,0,.508A.175.175,0,0,0,.056.459L.846,0A.194.194,0,0,1,.79.049Z" transform="translate(0 0)"/><g class="i" transform="translate(0 0)"><path class="a" d="M.056.459.846,0A.194.194,0,0,1,.79.049L0,.508A.175.175,0,0,0,.056.459"/></g></g><g transform="translate(0.056 1.679)"><path class="a" d="M1.08.459,1.87,0,.79,1.382,0,1.841Z"/></g><g transform="translate(1.136 1.253)"><path class="a" d="M.483.459,1.274,0A1.688,1.688,0,0,0,.789.426L0,.885A1.7,1.7,0,0,1,.483.459Z"/><g class="j"><path class="a" d="M.483.459,1.274,0A1.688,1.688,0,0,0,.789.426L0,.885A1.7,1.7,0,0,1,.483.459"/></g></g><g transform="translate(1.058 0)"><path class="a" d="M0,.743.789.284A3,3,0,0,1,3.8.578l-.79.459A2.993,2.993,0,0,0,0,.743Z" transform="translate(0)"/><g class="k" transform="translate(0)"><g transform="translate(0 0)"><path class="a" d="M0,.619.789.16A2.079,2.079,0,0,1,1.135,0L.346.459A2.02,2.02,0,0,0,0,.619" transform="translate(0 0.124)"/><path class="a" d="M0,.539.789.08A2.225,2.225,0,0,1,1.083,0L.294.459A2.423,2.423,0,0,0,0,.539" transform="translate(0.346 0.044)"/><path class="a" d="M0,.493.789.034C.869.02.949.008,1.032,0L.242.459C.16.467.078.478,0,.493" transform="translate(0.64 0.01)"/><path class="a" d="M0,.469.79.01C.861,0,.934,0,1.007,0L.217.459c-.073,0-.145,0-.217.01" transform="translate(0.882 0)"/><path class="a" d="M0,.459.79,0c.065,0,.132,0,.2.006L.2.465C.134.46.067.459,0,.459" transform="translate(1.099 0)"/><path class="a" d="M0,.459.79,0C.852,0,.916.011.98.02L.189.478C.126.47.062.464,0,.459" transform="translate(1.3 0.007)"/><path class="a" d="M0,.459.79,0c.06.008.121.018.183.029L.183.488C.122.477.06.467,0,.459" transform="translate(1.489 0.026)"/><path class="a" d="M0,.459.79,0Q.878.017.967.039L.178.5C.118.483.059.47,0,.459" transform="translate(1.672 0.055)"/><path class="a" d="M0,.46.789,0C.846.015.9.031.963.049L.173.508C.114.49.057.474,0,.46" transform="translate(1.85 0.095)"/><path class="a" d="M0,.459.79,0C.846.016.9.036.96.056L.171.514C.114.495.057.475,0,.459" transform="translate(2.023 0.144)"/><path class="a" d="M0,.459.789,0C.846.02.9.041.958.064L.17.523C.113.5.056.478,0,.459" transform="translate(2.195 0.199)"/><path class="a" d="M0,.459.789,0C.846.023.9.047.958.072L.168.531,0,.459" transform="translate(2.364 0.263)"/><path class="a" d="M0,.459.79,0,.96.08.17.539,0,.459" transform="translate(2.533 0.335)"/><path class="a" d="M0,.459.79,0C.846.028.9.057.96.088L.171.547Q.086.5,0,.459" transform="translate(2.702 0.415)"/><path class="a" d="M0,.459.789,0,.923.075.132.534C.088.508.044.483,0,.459" transform="translate(2.874 0.503)"/></g></g></g><g transform="translate(4.064 0.578)"><path class="a" d="M0,.459.79,0,4.646,2.226l-.79.459Z" transform="translate(0 0)"/></g><g transform="translate(12.403 9.845)"><path class="a" d="M.789.495,0,.954C.119.883.154.687.072.46L.861,0C.942.229.908.425.789.495Z" transform="translate(0 0)"/><g class="l" transform="translate(0 0)"><g transform="translate(0 0.001)"><path class="a" d="M0,.459.79,0,.8.017.006.476,0,.459" transform="translate(0.072 0)"/><path class="a" d="M0,.459.79,0,.8.021.008.48,0,.459" transform="translate(0.077 0.017)"/><path class="a" d="M0,.459.789,0,.8.021,0,.48,0,.459" transform="translate(0.085 0.038)"/><path class="a" d="M0,.459.79,0,.8.021.007.48,0,.459" transform="translate(0.09 0.06)"/><path class="a" d="M0,.459.789,0l0,.02L0,.48,0,.459" transform="translate(0.096 0.081)"/><path class="a" d="M0,.46.789,0l0,.021L0,.48,0,.46" transform="translate(0.101 0.1)"/><path class="a" d="M0,.459.79,0l0,.021L0,.48,0,.459" transform="translate(0.105 0.122)"/><path class="a" d="M0,.459.79,0l0,.02L0,.478l0-.02" transform="translate(0.108 0.143)"/><path class="a" d="M0,.459.79,0l0,.02L0,.478l0-.02" transform="translate(0.111 0.162)"/><path class="a" d="M0,.459.79,0l0,.018L0,.477,0,.459" transform="translate(0.113 0.182)"/><path class="a" d="M0,.459.79,0l0,.02L0,.478l0-.02" transform="translate(0.114 0.2)"/><path class="a" d="M0,.459.79,0V.019L0,.478V.459" transform="translate(0.116 0.219)"/><path class="a" d="M0,.459.79,0V.019L0,.478V.459" transform="translate(0.116 0.238)"/><path class="a" d="M0,.459.791,0V.019L0,.478V.459" transform="translate(0.114 0.257)"/><path class="a" d="M0,.459.792,0l0,.02L0,.478l0-.02" transform="translate(0.113 0.275)"/><path class="a" d="M0,.459.794,0l0,.02L0,.478l0-.02" transform="translate(0.109 0.295)"/><path class="a" d="M0,.459.794,0l0,.02L0,.478l0-.02" transform="translate(0.106 0.314)"/><path class="a" d="M.007.459.8,0l0,.02L0,.48.007.459" transform="translate(0.1 0.334)"/><path class="a" d="M.007.461.8,0,.79.023,0,.482.007.461" transform="translate(0.093 0.354)"/><path class="a" d="M.01.459.8,0,.79.023,0,.482.01.459" transform="translate(0.083 0.376)"/><path class="a" d="M.015.459.8,0,.789.028,0,.487.015.459" transform="translate(0.069 0.399)"/><path class="a" d="M.069.459.857,0A.207.207,0,0,1,.789.067L0,.526A.206.206,0,0,0,.069.459" transform="translate(0 0.427)"/></g></g></g><g transform="translate(11.656 7.566)"><path class="a" d="M0,.459.79,0l.819,2.279-.79.459Z" transform="translate(0 0)"/></g><g transform="translate(7.919 2.804)"><path class="a" d="M0,.459.79,0A9.273,9.273,0,0,1,4.526,4.763l-.79.459A9.265,9.265,0,0,0,0,.459Z" transform="translate(0 0)"/><g class="m" transform="translate(0 0)"><path class="a" d="M0,.459.79,0,.831.024.041.483,0,.459"/><path class="a" d="M0,.459.79,0C.849.034.908.07.965.106L.176.565C.118.529.059.493,0,.459" transform="translate(0.041 0.024)"/><path class="a" d="M0,.459.789,0c.06.039.121.078.18.119L.178.578C.119.537.059.5,0,.459" transform="translate(0.217 0.131)"/><path class="a" d="M0,.459.79,0c.06.041.122.085.183.129L.183.588C.122.544.062.5,0,.459" transform="translate(0.395 0.25)"/><path class="a" d="M0,.459.79,0Q.883.069.976.142L.186.6Q.093.528,0,.459" transform="translate(0.578 0.379)"/><path class="a" d="M0,.459.79,0C.852.051.916.1.978.153L.188.612C.126.56.064.509,0,.459" transform="translate(0.764 0.521)"/><path class="a" d="M0,.459.79,0C.854.054.918.109.98.167L.191.625Q.1.54,0,.459" transform="translate(0.952 0.674)"/><path class="a" d="M0,.459.789,0C.852.056.914.114.976.173L.186.632C.124.573.062.514,0,.459" transform="translate(1.143 0.841)"/><path class="a" d="M0,.459.79,0c.06.059.121.118.18.178L.181.637C.121.576.06.518,0,.459" transform="translate(1.329 1.014)"/><path class="a" d="M0,.459.789,0C.847.06.9.121.962.181L.171.64,0,.459" transform="translate(1.51 1.192)"/><path class="a" d="M0,.459.79,0C.846.06.9.122.957.184L.167.643C.113.581.057.519,0,.459" transform="translate(1.682 1.373)"/><path class="a" d="M0,.459.79,0C.844.062.9.126.952.189L.162.648C.109.585.056.521,0,.459" transform="translate(1.848 1.558)"/><path class="a" d="M0,.459.79,0C.846.067.9.134.954.2L.163.661C.109.593.056.526,0,.459" transform="translate(2.01 1.747)"/><path class="a" d="M0,.459.79,0c.06.077.121.153.178.234L.18.692C.121.614.06.536,0,.459" transform="translate(2.173 1.95)"/><path class="a" d="M0,.459.789,0c.087.116.171.235.253.356L.251.815C.17.694.085.575,0,.459" transform="translate(2.353 2.183)"/><path class="a" d="M0,.459.79,0c.121.181.238.367.349.557l-.789.459C.238.826.122.64,0,.459" transform="translate(2.604 2.539)"/><path class="a" d="M0,.459.789,0c.069.118.136.237.2.356L.2.815C.134.7.069.576,0,.459" transform="translate(2.955 3.096)"/><path class="a" d="M0,.459.789,0C.833.083.875.165.918.248L.127.707C.087.624.042.542,0,.459" transform="translate(3.155 3.452)"/><path class="a" d="M0,.459.79,0c.036.073.07.145.1.219L.106.678C.072.6.036.532,0,.459" transform="translate(3.282 3.7)"/><path class="a" d="M0,.459.789,0C.821.067.852.136.882.2L.091.663C.062.594.031.527,0,.459" transform="translate(3.388 3.919)"/><path class="a" d="M0,.459.79,0C.82.065.849.134.877.2L.087.66C.059.593.029.526,0,.459" transform="translate(3.48 4.123)"/><path class="a" d="M0,.459.79,0C.818.067.846.135.872.2L.082.663C.056.594.028.526,0,.459" transform="translate(3.566 4.324)"/><path class="a" d="M0,.459.79,0C.816.069.843.137.869.207L.078.666C.054.6.028.527,0,.459" transform="translate(3.648 4.528)"/><path class="a" d="M0,.459.79,0,.8.028.01.487,0,.459" transform="translate(3.726 4.735)"/></g></g></g></g><g transform="translate(0 0.459)"><path class="a" d="M8.6,2.8a9.265,9.265,0,0,1,3.736,4.763l.82,2.28c.1.281.024.514-.17.519a.356.356,0,0,1-.185-.054.868.868,0,0,1-.351-.447l-.82-2.281A7.524,7.524,0,0,0,8.6,3.718L4.741,1.493c-1.19-.687-2.3-.617-2.924.186L.736,3.06c-.075.1-.206.1-.34.021a.753.753,0,0,1-.207-.188.649.649,0,0,1-.129-.7L1.14.81c.774-.99,2.137-1.079,3.6-.232Z" transform="translate(0 0)"/></g></g></g></g></g></svg>