<svg xmlns="http://www.w3.org/2000/svg" width="150.235" height="307.946" viewBox="0 0 150.235 307.946"><defs><style>.a{fill:#27c5fd;}.b{fill:#fff;}.c{fill:#27c5fc;}.d{fill:none;stroke:#193068;stroke-miterlimit:10;stroke-width:0.5px;}.e{fill:#eebcc5;}.f{fill:#0a4e84;}.g{fill:#008de5;}.h{fill:#27c7ff;}</style></defs><g transform="translate(-1729.33 -386.027)"><g transform="translate(1796.918 386.027)"><path class="a" d="M410.552,140.442l-65.9-37.068a2.6,2.6,0,0,0-2.348-.3,2.365,2.365,0,0,0-.237.079,2.086,2.086,0,0,0-.236.079,2.009,2.009,0,0,0-.237.079,2.09,2.09,0,0,0-.236.079,2.356,2.356,0,0,0-.237.078c-.081.023-.158.048-.237.079a2.455,2.455,0,0,0-.236.079,2.349,2.349,0,0,0-.237.079,2.075,2.075,0,0,0-.236.079,2,2,0,0,0-.238.079,2.092,2.092,0,0,0-.236.079,351.54,351.54,0,0,0-.948.315,2.08,2.08,0,0,0-.236.079,2.01,2.01,0,0,0-.237.079,1.974,1.974,0,0,0-.236.079,2.009,2.009,0,0,0-.237.079,1.974,1.974,0,0,0-.236.077,6486.473,6486.473,0,0,0-.475.158,2.076,2.076,0,0,0-.236.079,2.006,2.006,0,0,0-.237.079,2.088,2.088,0,0,0-.236.079,2.35,2.35,0,0,0-.237.078q-.121.035-.237.079a2.474,2.474,0,0,0-.236.079,2.352,2.352,0,0,0-.237.079,2.081,2.081,0,0,0-.236.079c-1.537.422-2.594,2.529-2.594,5.7v59.928c0,4.473,2.106,9.349,4.7,10.888l9.369,5.554v18.333l.237-.213v.135l.236-.213v.134l.237-.213v.134l.236-.213v.134l.237-.213v.134l.237-.213v.134l.236-.213v.134l.237-.213v.135l.236-.214v.135l.237-.213v.134l.236-.213v.134l.237-.213v.134l.237-.213v.134L350,204.6v.134l.237-.213v.135l.236-.213v.134l.237-.213v.134l.236-.213v.134l.237-.213v.134l.237-.213v.134l.236-.213v.134l.237-.211v.134l.236-.214v.135l.237-.213v.134l.236-.213v.134l.237-.213v.134l.237-.213v.134l.236-.213v.135l.237-.214v.135l.236-.213v.134l.237-.213v.134l7.737-6.954,43.094,22.58a2.589,2.589,0,0,0,2.348.3,2.086,2.086,0,0,0,.236-.079,2,2,0,0,0,.237-.079c4.714-1.893,7.582-1.812,7.582-7.9V151.33C415.255,146.856,413.149,141.982,410.552,140.442Z" transform="translate(-332.608 -102.911)"/><g transform="translate(0 2.441)"><path class="b" d="M404.852,141.928l-67.54-37.068c-2.6-1.54-4.7.839-4.7,5.313V170.1c0,4.473,2.106,9.349,4.7,10.888l9.369,5.554v18.334l12.293-11.049,45.878,24.229c2.6,1.54,4.7-.839,4.7-5.313V152.816C409.556,148.342,407.451,143.467,404.852,141.928Z" transform="translate(-332.608 -104.392)"/><g transform="translate(20.006 46.054)"><path class="c" d="M349.684,138.29c0,2.351-1.106,3.6-2.472,2.792s-2.472-3.37-2.472-5.722,1.106-3.6,2.472-2.792S349.684,135.938,349.684,138.29Z" transform="translate(-344.741 -132.321)"/><path class="c" d="M358.563,143.551c0,2.351-1.106,3.6-2.472,2.792s-2.472-3.37-2.472-5.722,1.106-3.6,2.472-2.792S358.563,141.2,358.563,143.551Z" transform="translate(-338.979 -128.907)"/><path class="c" d="M367.444,148.815c0,2.35-1.106,3.6-2.472,2.792s-2.473-3.37-2.473-5.722,1.108-3.6,2.473-2.792S367.444,146.463,367.444,148.815Z" transform="translate(-333.217 -125.492)"/></g></g></g><g transform="translate(1729.33 489.034)"><path class="d" d="M312.229,174.643c0,2.643,1.082,4.785,2.417,4.785s2.416-2.142,2.416-4.785-1.082-4.784-2.416-4.784S312.229,172,312.229,174.643Z" transform="translate(-278.244 -162.474)"/><path class="d" d="M315.572,172.481c0,2.642,1.082,4.784,2.416,4.784s2.417-2.142,2.417-4.784-1.082-4.784-2.417-4.784S315.572,169.84,315.572,172.481Z" transform="translate(-276.075 -163.877)"/><ellipse class="e" cx="15.213" cy="15.213" rx="15.213" ry="15.213" transform="translate(37.294 0.001)"/><path class="f" d="M350.637,279.462l.869,5.347s.134,1.27-.6,1.67a6.259,6.259,0,0,1-4.012.869c-1.871-.267-5.948-2.338-5.948-2.338s-1.136-1.6-1.337-1.538a13.317,13.317,0,0,1-1.537.068s-7.62-3.41-8.823-5.08.534-3.811.534-3.811,2.206-2.005,9.024,1A53.417,53.417,0,0,0,350.637,279.462Z" transform="translate(-267.475 -94.9)"/><path class="f" d="M335.882,287l.869,5.347s.134,1.27-.6,1.67a6.261,6.261,0,0,1-4.01.869c-1.872-.267-5.949-2.34-5.949-2.34s-1.136-1.6-1.336-1.537a13.331,13.331,0,0,1-1.538.068s-7.62-3.41-8.822-5.08.534-3.811.534-3.811,2.206-2.005,9.023,1A53.551,53.551,0,0,0,335.882,287Z" transform="translate(-277.05 -90.007)"/><path class="e" d="M332.572,177.315l3.139,14.735h0a8.917,8.917,0,0,1-8.085,5.928h0a2.2,2.2,0,0,1-2.19-1.586l-3.967-13.762Z" transform="translate(-272.247 -157.637)"/><path class="g" d="M330.107,186.454l4.535-.46s5.582-.491,7.491,1.418S355.5,206.128,357.41,215.3s-14.9,13.368-14.9,13.368l-7.638-3.055Z" transform="translate(-266.643 -152.041)"/><path class="g" d="M330.082,231.88c.336-.112.691-.226,1.009-.338.917-.317,1.8-.655,2.618-1.009,1.011-.411,1.928-.861,2.787-1.271,1.065-.543,8.231-3.28,9.036-3.766,0,0,5.437,68.171,6.615,81.206.188,2.318.73,7.031.673,7.2a1.984,1.984,0,0,1-.9.991c-.264.038-.542.074-.824.114a31.4,31.4,0,0,1-3.946.3H347.1c-3.329-.541-7.2-2.338-9.127-5.216l-.15-.617-10.753-65.043C327.11,243.938,330.082,237.209,330.082,231.88Z" transform="translate(-268.613 -126.372)"/><path class="b" d="M294.71,201a9.548,9.548,0,0,0-1.217,2.15,6.093,6.093,0,0,1,1.179,1.477l.15.076a14.674,14.674,0,0,1,7.348-6.414c.3-.114.582-.206.842-.3.038,0,.074-.018.114-.018a14.3,14.3,0,0,1-1.423-1.4c-.112-.112-.2-.206-.3-.3a9.349,9.349,0,0,0-1.74.655A13.684,13.684,0,0,0,294.71,201Z" transform="translate(-290.402 -145.334)"/><path class="g" d="M326.168,231.5a30.66,30.66,0,0,0,9.237-.655c1.253-.28,2.45-.6,3.591-.971,0,5.329-.8,29.173-1.161,39.775-.018.506-.036,1.009-.074,1.5-.336,4.919.15,27.079.056,32.238-.074,3.2-.168,6.21-.318,8.884-.356,7.033-.9,11.95-1.065,12.81a1.245,1.245,0,0,1-.186,1.1,2,2,0,0,1-.861.579,7.963,7.963,0,0,1-3.684.15,17.523,17.523,0,0,1-10.06-5.4c-2.8-26.5-4.04-65.846-7.351-94.364A23.708,23.708,0,0,0,326.168,231.5Z" transform="translate(-276.905 -125.302)"/><path class="g" d="M326.168,231.5a23.708,23.708,0,0,1-11.875-4.356c.88,7.58,1.611,15.934,2.266,24.6,6.543-.994,15.975-6.559,22.191-10.639.145-5.125.247-9.343.247-11.231-1.141.373-2.338.691-3.591.971A30.66,30.66,0,0,1,326.168,231.5Z" transform="translate(-276.905 -125.302)"/><path class="h" d="M294.105,212.168c1.177-3.271,4.81-6.035,7.669-7.171.3-.114.58-.206.841-.3a24.15,24.15,0,0,1,2.356,1.758c.374.3.749.617,1.1.935.411.354.821.729,1.214,1.1a1.3,1.3,0,0,0,.15.15c2.637,2.524,5.067,5.311,7.686,7.7-1.561-1.446,7.87-15.1,9.221-16.7,7.573-8.995,22.518-12.458,33.658-13.656,18.446-1.984,11.656,62.593,9.689,64.56a16.494,16.494,0,0,1-2.617,1.87c-1.3.79-6.869,5.184-11.425,6.032-8.553,1.593-18.569,1.527-26.257-4.572-.317-.251-.673-.468-.993-.729,0-1.215,2.191-26.9,2.059-34.416-1.431,1.756-6.126,10.423-7.532,12.51a4.867,4.867,0,0,1-3.718,2.228,4.767,4.767,0,0,1-3.065-.984C306.055,226.408,300.681,219.478,294.105,212.168Z" transform="translate(-290.005 -152.037)"/><ellipse class="e" cx="4.441" cy="4.441" rx="4.441" ry="4.441" transform="translate(0 45.299)"/><path class="b" d="M337.418,188.793l-1.934-5.922-13.053,4.955-.483,5.2Z" transform="translate(-271.937 -154.032)"/><path class="d" d="M312.2,173.567c.467-.35,13.4,6.465,13.4,6.465" transform="translate(-278.263 -160.077)"/><path class="f" d="M341.986,180.6c-.285-8.4-6.812-15.215-15.213-15.215a15.112,15.112,0,0,0-7.727,2.125c-.887,2.079-1.057,4.206.355,4.948-1.468-.541,1.573,12.89,3.357,12.662l1.093-.467c.417-1.89,1.489-4.165,2.239.359a2.735,2.735,0,0,1-.13,1.43c-1.11,2.737-2.467,7.278,4,7.278C330.633,193.718,342.406,192.9,341.986,180.6Z" transform="translate(-274.266 -165.381)"/><path class="e" d="M326.888,180.421a4.441,4.441,0,1,0-5.57,2.9A4.443,4.443,0,0,0,326.888,180.421Z" transform="translate(-274.364 -159.369)"/><path class="f" d="M322.691,179.873l-3.153,3.788-.93-.513.65-1.819-1.949-1.883,1.235-6.106s-2.468-1.883-2.013-4.027a9.312,9.312,0,0,1,1.883-3.768l1.855,1.853a42.054,42.054,0,0,1,4.056,1.329c.13.195,3.313,3.638,3.313,3.638Z" transform="translate(-275.489 -165.274)"/></g></g></svg>