<svg xmlns="http://www.w3.org/2000/svg" width="104.533" height="222.704" viewBox="0 0 104.533 222.704"><defs><style>.a{fill:#035ba2;}.b{fill:#48cfff;}.c{fill:#27c7ff;}.d{fill:#008de5;}.e{fill:#f7f7fb;}.f{fill:#eebcc5;}.g{fill:#e2b354;}</style></defs><g transform="translate(-1373.876 -229.059)"><path class="a" d="M393.376,365.809c.954.054,1.382,1.214,1.508,2.163a20.921,20.921,0,0,1,.166,3.6,4.19,4.19,0,0,1-.321,1.661,3.211,3.211,0,0,1-1.977,1.546,12.356,12.356,0,0,1-2.545.393c-4.846.477-9.6,2.225-14.451,1.822a4.682,4.682,0,0,1-2.164-.594,1.967,1.967,0,0,1-.966-1.906c.158-.854,1-1.382,1.755-1.8,3.523-1.959,6.73-2.679,10.466-4.194.408-.166,2.247-1.831,2.684-1.771s-.212.681-.243,1.122a4.079,4.079,0,0,0,2.867.411,3.819,3.819,0,0,0,2.291-1.6C392.733,366.219,392.853,365.781,393.376,365.809Z" transform="translate(1030.157 57.951)"/><path class="a" d="M404.352,372.823a1.086,1.086,0,0,1,.993.538,2.934,2.934,0,0,1,.367,1.123,26.711,26.711,0,0,1,.392,3.864,2.153,2.153,0,0,1-1.146,1.867,10.1,10.1,0,0,0-2.665,2.89,17.274,17.274,0,0,1-10.559,6.423,2.1,2.1,0,0,1-2.472-1.7,4.129,4.129,0,0,1,.01-1.3,7.6,7.6,0,0,1,1.4-3.054c1.033-1.465,6.854-5.369,7.842-6.456,1.462-1.607,1.568-3.893,3.65-4.485A2.429,2.429,0,0,1,404.352,372.823Z" transform="translate(1040.868 62.201)"/><path class="b" d="M381.573,363.433v7.98l.38.227a4.8,4.8,0,0,0,6.081-.987h0l.253-7.221Z" transform="translate(1035.94 56.419)"/><path class="b" d="M400.595,377.065l.191-7.221h-5.068l.107,7S396.9,380.065,400.595,377.065Z" transform="translate(1045.061 60.553)"/><g transform="translate(1376.994 262.36)"><path class="c" d="M379.56,313.6c-5.018,0-12.94-4.637-22.175-26.721a5.757,5.757,0,0,1,10.62-4.446c3.452,8.239,8.439,16.612,11.254,19.111,3.474-3.665,10.285-16.841,15.481-30.19a5.757,5.757,0,0,1,10.731,4.173C390.664,313.6,382.307,313.6,379.56,313.6Zm-1.245-11.25Zm1.869-.168Z" transform="translate(-356.938 -267.681)"/></g><g transform="translate(1434.496 331.3)"><path class="d" d="M399.941,411.44a6.578,6.578,0,0,1-6.566-6.268c-.074-1.558-1.808-38.305-1.421-50.291.429-13.351.972-38.592.977-38.845a6.579,6.579,0,1,1,13.155.283c0,.253-.549,25.565-.98,38.986-.37,11.466,1.393,48.867,1.411,49.243a6.578,6.578,0,0,1-6.26,6.883C400.152,411.439,400.046,411.44,399.941,411.44Z" transform="translate(-391.898 -309.595)"/></g><g transform="translate(1409.297 320.377)"><path class="d" d="M387.973,404.8a6.579,6.579,0,0,1-6.51-5.688c-.216-1.572-5.258-38.631-4.864-50.9.444-13.787,4.28-38.63,4.443-39.679a6.58,6.58,0,0,1,13,2.017c-.039.25-3.875,25.1-4.295,38.087-.3,9.273,3.326,38.3,4.748,48.7a6.58,6.58,0,0,1-5.627,7.41A6.684,6.684,0,0,1,387.973,404.8Z" transform="translate(-376.578 -302.954)"/></g><path class="d" d="M417.079,304.249,414.267,331.7l-35.631-8.226-.437-23.154S412.711,301.191,417.079,304.249Z" transform="translate(1033.764 15.722)"/><path class="e" d="M395.67,268.939s4.722,1.317,5.161,2.416-3.076,6.151-6.809,8.9-8.107,28.818-8.107,28.818-2.327-30.466-2.217-37.6S395.67,268.939,395.67,268.939Z" transform="translate(1037.308 -5.455)"/><path class="c" d="M388.639,269.527s-8.02.8-8.421,9.224c-.334,7.013-1.781,38.773-2.255,49.205a6.006,6.006,0,0,0,2.694,5.3c4.832,3.2,14.749,9.156,21.216,8.862a47.112,47.112,0,0,0,15.241-3.209s.8-56.145-1.2-58.952-16.042-12.834-19.249-12.834S388.639,269.527,388.639,269.527Z" transform="translate(1033.608 -5.682)"/><path class="f" d="M379.283,262.56a12.858,12.858,0,1,0,13.634-12.032A12.858,12.858,0,0,0,379.283,262.56Z" transform="translate(1034.448 -16.397)"/><path class="e" d="M387.021,285.4l-4.192-15.223,2.667-2.254,12.664,2.3,2.142.662Z" transform="translate(1036.751 -5.167)"/><path class="f" d="M383.272,262.46l4.377,13.226h0a8.248,8.248,0,0,0,9.221.956h0a2.033,2.033,0,0,0,1.007-2.29l-3.263-12.834Z" transform="translate(1037.036 -9.295)"/><path class="f" d="M391.525,260.29a3.914,3.914,0,1,0,4.15-3.663A3.913,3.913,0,0,0,391.525,260.29Z" transform="translate(1042.352 -12.453)"/><path class="e" d="M399.891,272.508s0-5.51-.98-5.878-2.816-1.224-2.816-1.224l.735,2.939s-2.694,2.816-5.387,3.183l-2.694.367-1.227,1.285-1.222-4.1-.857-2.449s-1.714-.122-1.959.49,2.571,10.775,2.571,10.775l3.429.612,4.775-1.959Z" transform="translate(1037.163 -6.788)"/><g transform="translate(1439.388 250.815)"><path class="c" d="M422.185,304.419c-15.917,0-25.647-11.977-26.058-12.492a5.757,5.757,0,0,1,8.985-7.2c.143.174,6.267,7.462,15.7,8.13,1.408-3.9,1.961-15.242,1.169-26.014A5.756,5.756,0,0,1,433.465,266c.627,8.5,1.433,28.971-4.571,35.542a8.54,8.54,0,0,1-6.179,2.877C422.539,304.417,422.361,304.419,422.185,304.419Z" transform="translate(-394.872 -260.662)"/></g><g transform="translate(1373.876 268.953)"><path class="f" d="M362.6,286.414a5.76,5.76,0,0,1-5.031-2.951l-1.793-3.209a5.757,5.757,0,0,1,10.053-5.615l1.791,3.209a5.76,5.76,0,0,1-5.02,8.566Z" transform="translate(-355.042 -271.69)"/></g><path class="g" d="M404.464,262.755a3.187,3.187,0,0,0-2.3,1.141,3.4,3.4,0,0,0-.316,2q.064,1.359.13,2.72a.62.62,0,0,1-.768.076,1.547,1.547,0,0,1-.577-.625,10.38,10.38,0,0,1-1.054-4.375c-.069-.767-.5-1.415-.345-2.166a9.273,9.273,0,0,1,.824-2.146,43.3,43.3,0,0,1-17.739.382,3.339,3.339,0,0,1-1.811-.758,2.856,2.856,0,0,1-.6-1.074,20.619,20.619,0,0,1-.035-7.217,5.049,5.049,0,0,1,3.209-2.877,10.548,10.548,0,0,1,4.411-.313c.936.1,9.856,2.638,16.288,4.494a5.076,5.076,0,0,1,2.795,7.722C405.737,260.977,404.958,262.1,404.464,262.755Z" transform="translate(1034.649 -18.376)"/><g transform="translate(1467.551 240.248)"><path class="f" d="M413.64,261.91a1.643,1.643,0,0,1-1.645-1.645v-4.383a1.645,1.645,0,1,1,3.29,0v4.383A1.643,1.643,0,0,1,413.64,261.91Z" transform="translate(-411.995 -254.237)"/></g><g transform="translate(1466.781 245.199)"><path class="f" d="M417.284,273.144a5.757,5.757,0,0,1-5.757-5.757V263a5.757,5.757,0,1,1,11.513,0v4.383A5.758,5.758,0,0,1,417.284,273.144Z" transform="translate(-411.527 -257.247)"/></g></g></svg>