<svg xmlns="http://www.w3.org/2000/svg" width="46.047" height="76.693" viewBox="0 0 46.047 76.693"><defs><style>.a{fill:#c7100a;}.b{fill:#4a2400;}.c{fill:#ff7101;}.d{fill:#607126;}.e{fill:#abc943;}.f{fill:#70842c;}.g{fill:#445f1b;}.h{fill:#547522;}.i{fill:#79a831;}.j{fill:#778c2f;}.k{fill:#527221;}.l{fill:#74882d;}.m{fill:#3f581a;}.n{fill:#e77a30;}.o{fill:#f09a12;}.p{fill:#ffca00;}.q{fill:#f29b12;}</style></defs><g transform="translate(-1325.071 -331.124)"><g transform="translate(1325.071 371.85)"><path class="a" d="M52.637,239.788c8.8,5.3,8.5,13.74-.675,18.857s-23.748,4.967-32.556-.33-8.5-13.742.677-18.86S43.834,234.486,52.637,239.788Z" transform="translate(-12.999 -235.714)"/><path class="b" d="M34.459,258.145c-5.725,0-11.24-1.341-15.122-3.681-3.314-1.991-5.12-4.461-5.078-6.943.041-2.557,2.111-5.168,5.677-7.153a30.656,30.656,0,0,1,14.672-3.393c5.725,0,11.24,1.341,15.124,3.679,3.316,1.993,5.12,4.458,5.081,6.943-.046,2.559-2.116,5.168-5.674,7.15A30.67,30.67,0,0,1,34.459,258.145Z" transform="translate(-11.51 -234.222)"/><g transform="translate(0.008 13.617)"><path class="c" d="M24.282,261.02c-.773-.476-1.771-1.179-2.493-1.731a17.826,17.826,0,0,1-1.677-1.469,32.127,32.127,0,0,1-2.19-2.432,26.236,26.236,0,0,1-1.76-2.6,20.833,20.833,0,0,1-1.269-2.513c-.406-.98-.852-2.323-1.151-3.343a22.882,22.882,0,0,1-.537-2.683c-.1-.644-.166-1.513-.2-2.162.151,3.2,2.277,6.369,6.4,8.849,8.808,5.3,23.381,5.445,32.556.33,4.565-2.548,6.936-5.919,7.078-9.314a14.9,14.9,0,0,1-.146,1.819c-.063.544-.166,1.255-.284,1.788-.177.819-.465,1.908-.707,2.714-.153.507-.406,1.164-.611,1.653-.31.731-.775,1.69-1.151,2.4-.236.45-.6,1.033-.878,1.461a23.329,23.329,0,0,1-8.172,7.622c-.356.205-.843.459-1.216.635-.428.205-1,.467-1.441.635-.675.258-1.592.563-2.282.777-.349.107-.823.218-1.183.3-.321.074-.745.159-1.063.212s-.749.122-1.07.162a18.574,18.574,0,0,1-2.037.162,19.483,19.483,0,0,1-2.009-.022,20.2,20.2,0,0,1-2.039-.2c-.319-.055-.742-.12-1.055-.183-.33-.059-.76-.153-1.081-.236-.345-.085-.808-.212-1.148-.314s-.81-.26-1.148-.387c-.4-.137-.913-.347-1.3-.515-.371-.159-.858-.4-1.22-.565C25.326,261.634,24.723,261.293,24.282,261.02Z" transform="translate(-13.003 -241.951)"/></g></g><g transform="translate(1329.849 343.036)"><g transform="translate(17.954 3.144)"><g transform="translate(0.023 28.729)"><path class="d" d="M25.845,241.74l-2.411-1.4-.012-3.224,2.416,1.407Z" transform="translate(-23.421 -237.115)"/></g><g transform="translate(2.439 1.404)"><path class="e" d="M40.309,224.6c.127.81,2.515,16.15-13.735,31.1a4.77,4.77,0,0,1-.808.62,1.548,1.548,0,0,1-1.231.227l-.007-3.216Z" transform="translate(-24.528 -224.6)"/></g><g transform="translate(0.023)"><path class="f" d="M25.837,254.093l-2.416-1.407L39.2,223.957l2.416,1.4Z" transform="translate(-23.421 -223.957)"/></g><g transform="translate(0 19.697)"><path class="g" d="M25.85,243.417l-2.416-1.407-.023-9.032,2.413,1.407Z" transform="translate(-23.411 -232.979)"/></g><g transform="translate(0.001)"><path class="h" d="M25.824,245.061l-2.413-1.408a34.682,34.682,0,0,1,15.8-19.7l2.417,1.4a34.7,34.7,0,0,0-15.807,19.7Z" transform="translate(-23.411 -223.957)"/></g><g transform="translate(2.413 1.404)"><path class="i" d="M40.323,224.6,24.542,253.333l-.026-9.032A34.7,34.7,0,0,1,40.323,224.6Z" transform="translate(-24.516 -224.6)"/></g></g><g transform="translate(16.285 35.86)"><path class="g" d="M25.1,248.3l-2.415-1.4-.04-7.957,2.415,1.407Z" transform="translate(-22.646 -238.941)"/></g><g transform="translate(16.286 33.687)"><path class="h" d="M25.062,241.527l-2.415-1.408a8.957,8.957,0,0,0,.865-2.172l2.413,1.406a8.933,8.933,0,0,1-.862,2.175Z" transform="translate(-22.647 -237.946)"/></g><g transform="translate(14.597 37.51)"><path class="d" d="M24.325,248.388l-2.417-1.407-.035-7.284,2.415,1.405Z" transform="translate(-21.873 -239.697)"/></g><g transform="translate(14.596 35.859)"><path class="j" d="M24.288,242l-2.415-1.406a2.54,2.54,0,0,0,.255-.127,4.045,4.045,0,0,0,1.434-1.524l2.415,1.408a4.037,4.037,0,0,1-1.432,1.517c-.085.044-.17.089-.258.131Z" transform="translate(-21.873 -238.941)"/></g><g transform="translate(17.011 37.267)"><path class="e" d="M22.979,241.234c.087-.042.172-.087.258-.131a4.037,4.037,0,0,0,1.432-1.517l.039,7.952-1.692.983Z" transform="translate(-22.979 -239.586)"/></g><g transform="translate(17.151 28.244)"><path class="h" d="M25.456,242.3,23.043,240.9a20.528,20.528,0,0,0,.6-5.443l2.417,1.408a20.438,20.438,0,0,1-.6,5.441Z" transform="translate(-23.043 -235.453)"/></g><g transform="translate(16.258 24.364)"><path class="h" d="M26.54,238.964l-2.417-1.408c-.26-.251-.581-2.015-1.489-3.88l2.41,1.4c.915,1.876,1.236,3.633,1.5,3.891Z" transform="translate(-22.634 -233.676)"/></g><g transform="translate(16.188 0.983)"><path class="g" d="M25.083,247.746l-2.411-1.4-.069-23.38,2.415,1.4Z" transform="translate(-22.602 -222.967)"/></g><g transform="translate(14.553 21.838)"><path class="j" d="M25.969,236.442l-2.41-1.4a10.155,10.155,0,0,0-1.705-2.526l2.415,1.4a10.185,10.185,0,0,1,1.7,2.524Z" transform="translate(-21.853 -232.519)"/></g><g transform="translate(18.603 1.404)"><path class="i" d="M25.407,223.16,25.472,246l.026,9.032.007,3.216.041,7.742-1.7.98-.039-7.952a8.934,8.934,0,0,0,.862-2.175,20.439,20.439,0,0,0,.6-5.441c-.26-.258-.581-2.015-1.5-3.891l-.066-23.375Z" transform="translate(-23.708 -223.16)"/></g><g transform="translate(16.188)"><path class="k" d="M25.017,224.9,22.6,223.5l1.7-.983,2.413,1.4Z" transform="translate(-22.602 -222.517)"/></g><g transform="translate(14.498 0.983)"><path class="l" d="M24.24,225.347l-2.412-1.4,1.691-.976,2.415,1.4Z" transform="translate(-21.828 -222.967)"/></g><g transform="translate(14.498 1.958)"><path class="d" d="M24.3,244.693l-2.415-1.4-.054-19.878,2.412,1.4Z" transform="translate(-21.828 -223.414)"/></g><g transform="translate(0.178 19.569)"><path class="h" d="M17.679,235.847l-2.41-1.4c6.271-3.6,10.216-3.472,12.746-2.009l2.415,1.406c-2.528-1.469-6.474-1.589-12.751,2Z" transform="translate(-15.269 -231.48)"/></g><g transform="translate(2.588 20.972)"><path class="i" d="M16.373,235.086c7.827-4.476,12.03-3.181,14.379-.7a10.185,10.185,0,0,1,1.7,2.524c.915,1.875,1.236,3.633,1.5,3.891a20.439,20.439,0,0,1-.6,5.441Z" transform="translate(-16.373 -232.123)"/></g><g transform="translate(16.911 2.386)"><path class="e" d="M22.933,224.586l1.692-.976.066,23.375a10.185,10.185,0,0,0-1.7-2.524Z" transform="translate(-22.933 -223.61)"/></g><g transform="translate(0.177 22.538)"><path class="m" d="M34.655,245.394l-2.413-1.405L15.269,232.84l2.411,1.4Z" transform="translate(-15.269 -232.84)"/></g><g transform="translate(2.414 23.936)"><path class="e" d="M16.467,233.48l16.975,11.157a8.934,8.934,0,0,1-.862,2.175,4.037,4.037,0,0,1-1.432,1.517c-.085.044-.17.09-.258.131a2.787,2.787,0,0,1-.552.188C14.057,252.484,16.349,234.432,16.467,233.48Z" transform="translate(-16.293 -233.48)"/></g><g transform="translate(0 22.539)"><path class="j" d="M22.5,248.732l-2.417-1.4c-6.111-3.552-4.808-13.79-4.716-14.493l2.41,1.4c-.085.714-1.389,10.943,4.723,14.5Z" transform="translate(-15.188 -232.84)"/></g></g><g transform="translate(1337.124 331.124)"><path class="n" d="M39.343,226.211c0-.12-.015-.245-.022-.365,0-.052,0-.1-.011-.151-.162-.1-.323-.188-.485-.284h0c.162.1.323.188.485.284a5.371,5.371,0,0,0-2.371-4.4l-1.465-.849-1.159-.677a4.318,4.318,0,0,0-1.858-.509c.041-.02.094-.052.135-.068a7.7,7.7,0,0,1,.834-.286c.1-.031.212-.063.314-.09.041-.011.081-.02.12-.028a4.939,4.939,0,0,1,.5-.1c.114-.017.227-.039.341-.052s.251-.028.376-.033a5.238,5.238,0,0,1,3.048.653l-2.62-1.522a5.254,5.254,0,0,0-3.052-.657c-.124.009-.247.02-.373.035h0c-.111.015-.227.035-.338.055-.164.026-.33.057-.5.1a.812.812,0,0,1-.122.026c-.1.028-.21.059-.314.089-.273.081-.55.177-.834.288a12.1,12.1,0,0,0-1.537.751c.57.334,1.255.736,1.906,1.109h0l-1.906-1.109c-.247.144-.491.295-.731.456l1.7.989h0l-1.7-.989-.124.079c.557.325,1.111.651,1.664.969h0c-.552-.319-1.107-.644-1.664-.969a17.7,17.7,0,0,0-2.2,1.779c-.083.079-.166.164-.251.247q-.291.282-.57.583h0c-.044.05-.094.1-.142.153.434.251.871.5,1.306.76h0c-.3-.177-.594-.349-.9-.522-.135-.083-.271-.159-.408-.238a23.854,23.854,0,0,0-4.939,8.377c-.041.129-.085.26-.127.4.437.255.869.5,1.3.76h0c-.3-.177-.594-.347-.891-.524l-.408-.236c-.02.065-.041.129-.061.2h0c-.081.258-.148.522-.216.782a17.312,17.312,0,0,0-.52,3.087h0c0,.05-.007.1-.009.153-.015.295-.026.583-.022.873a10.405,10.405,0,0,0,.376,2.886h0a.766.766,0,0,0,.033.107c.031.041.1.063.148.09.218.129.434.251.646.376a.2.2,0,0,1,.041.028c-.275-.164-.559-.325-.836-.493.052.168.1.325.159.48a1.083,1.083,0,0,0,.107.065c.1.055.2.116.3.166-.138-.076-.269-.153-.4-.231.041.109.083.214.129.321s.1.227.155.338a1.517,1.517,0,0,0,.306.179c.3.17.594.341.9.511.472.275.945.55,1.421.832-.055-.107-.1-.225-.155-.341a3.362,3.362,0,0,1-.124-.314c-.69-.4-1.373-.8-2.059-1.2.116.068.231.138.349.2.568.336,1.14.664,1.71,1-.063-.155-.116-.319-.166-.48L21.516,240a9.379,9.379,0,0,1-.279-1.386,4.551,4.551,0,0,0,.489.629,4.156,4.156,0,0,0,.88.69h0l2.62,1.52h0a5.409,5.409,0,0,0,5.083-.155c-.151-.09-.306-.179-.461-.269h0c.155.09.31.179.461.269.048-.024.094-.041.142-.063.109-.059.218-.114.33-.17s.221-.124.336-.188l-.413-.24h0c.135.083.288.168.413.24.207-.12.417-.249.618-.382-.129-.076-.258-.153-.386-.227h0c.129.074.258.151.386.227.061-.046.122-.083.183-.122a15.282,15.282,0,0,0,2.491-2.188,19.759,19.759,0,0,0,4.264-7.382,15.169,15.169,0,0,0,.644-3.258l.011-.218c.02-.245.022-.489.022-.727C39.35,226.465,39.347,226.34,39.343,226.211ZM28.492,238.9a6.68,6.68,0,0,1-4.107,1.037,6.549,6.549,0,0,1-1.183-4.024,15.632,15.632,0,0,1,2-7.142c0,.09-.017.168-.02.26l.007.952c0,.52.074,1.541.7,1.9l2.489,1.45c-1.166.666-2.371,1.26-2.867,1.509l.007,1.924,2.62,1.522a7.745,7.745,0,0,0,1.122-.3l.3.177a12,12,0,0,1-1.061.736c.111.065.251.148.373.218h0Zm6.967-18.074a4.042,4.042,0,0,1,.314.43l-.836-.487A4.494,4.494,0,0,1,35.459,220.827Zm-5.731,14.724c.568.334,1.155.672,1.7.987h0l-1.7-.987Zm-.627.327v.55l-.175.1-.522-.3Zm4.95-4.052q-1.156-.675-2.317-1.345a5.907,5.907,0,0,1-.194,1.587l-2.137-1.24c-.118-.07-.319-.031-.635.155l-.958.55v-.024l0-.954a5.267,5.267,0,0,1,.177-1.341l2.177,1.269c.144.085.384.02.76-.194l.817-.472v.035c.79.459,1.836,1.068,2.624,1.524,0-.747-.153-1.633-.716-1.961l-2.506-1.454c.662-.382,2.063-1.12,2.851-1.5l-.007-1.934-2.62-1.524h0a7.548,7.548,0,0,0-1.015.3l-.378-.227a12.881,12.881,0,0,1,1.1-.755,6.623,6.623,0,0,1,4.094-1.033,6.5,6.5,0,0,1,1.179,4.011,15.645,15.645,0,0,1-2.009,7.181c.011-.155.031-.308.031-.478Zm-3.637-6.408v-.609l.142-.079.572.332C30.909,225.17,30.675,225.286,30.413,225.419ZM24.6,240.453a4.692,4.692,0,0,1-.537-.057,3.944,3.944,0,0,1-.325-.445Z" transform="translate(-18.52 -217.061)"/><path class="o" d="M24.572,222.92v.629l2.625,1.52v-.625Z" transform="translate(-11.357 -210.128)"/><path class="o" d="M18.91,227.438a5.251,5.251,0,0,0,2.048,2.249l2.616,1.524a5.219,5.219,0,0,1-2.041-2.251c-.734-.43-1.472-.858-2.207-1.286C19.189,227.593,19.05,227.519,18.91,227.438Z" transform="translate(-18.058 -204.782)"/><g transform="translate(4.293 3.68)"><path class="o" d="M28.735,219.878c4.557-2.633,8.275-.515,8.288,4.723.015,5.253-3.677,11.646-8.233,14.277-4.572,2.64-8.29.52-8.3-4.729S24.161,222.516,28.735,219.878Zm.052,18.552a17.3,17.3,0,0,0,7.845-13.6c-.015-4.991-3.552-7.011-7.895-4.5-4.358,2.515-7.875,8.6-7.862,13.6.015,5.009,3.554,7.024,7.912,4.509Z" transform="translate(-20.486 -218.746)"/></g><g transform="translate(2.619 1.524)"><path class="p" d="M29.636,219.121c5.485-3.168,9.952-.622,9.971,5.679.015,6.316-4.423,14-9.906,17.17s-9.965.627-9.982-5.685S24.138,222.294,29.636,219.121Zm.061,20.925c4.557-2.631,8.249-9.024,8.233-14.277-.013-5.238-3.731-7.356-8.288-4.723-4.574,2.637-8.268,9.032-8.249,14.27s3.731,7.369,8.3,4.729Z" transform="translate(-19.719 -217.759)"/></g><g transform="translate(4.682 4.18)"><path class="q" d="M28.526,220.055c4.343-2.511,7.88-.491,7.895,4.5a17.3,17.3,0,0,1-7.845,13.6c-4.358,2.515-7.9.5-7.912-4.509C20.651,228.659,24.168,222.57,28.526,220.055Zm3.295,9.681v-.624c0-1.229-.415-2.838-2.384-1.7l-1.057.613c-.7.4-.941.28-.943-.373v-.382c0-.784.325-1.09,1-1.482.046-.026.09-.05.135-.079.651-.376,2.076-1.129,2.873-1.509l-.007-1.934a8.98,8.98,0,0,0-2.292.858l0-1.31-1.273.731,0,1.31a5,5,0,0,0-2.613,4.436l0,.954c0,.832.183,2.956,2.557,1.585l1.022-.592c.655-.378.808-.14.81.406l0,.45a1.64,1.64,0,0,1-1.017,1.4c-1.225.705-2.528,1.349-3.054,1.614l.007,1.919a6.518,6.518,0,0,0,2.317-.869l0,1.269,1.269-.736,0-1.236a5.079,5.079,0,0,0,2.637-4.714Z" transform="translate(-20.664 -218.976)"/></g><g transform="translate(9.285 7.017)"><path class="p" d="M26.654,220.275l0,1.31a8.98,8.98,0,0,1,2.292-.858l.007,1.934c-.8.38-2.223,1.133-2.873,1.509-.046.028-.09.052-.135.079-.679.393-1.007.7-1,1.482v.382c0,.653.245.775.943.373l1.057-.613c1.969-1.138,2.38.472,2.384,1.7v.624a5.079,5.079,0,0,1-2.637,4.714l0,1.236-1.269.736,0-1.269a6.519,6.519,0,0,1-2.317.869l-.007-1.919c.526-.264,1.83-.908,3.054-1.614a1.64,1.64,0,0,0,1.017-1.4l0-.45c0-.546-.155-.784-.81-.406l-1.022.592c-2.373,1.371-2.557-.753-2.557-1.585l0-.954a5,5,0,0,1,2.613-4.437l0-1.31Z" transform="translate(-22.772 -220.275)"/></g></g></g></svg>