<svg xmlns="http://www.w3.org/2000/svg" width="63.121" height="145.323" viewBox="0 0 63.121 145.323"><defs><style>.a{fill:#fff9ff;}.b{fill:#d3bae7;}.c{fill:#752939;}.d{fill:#bcbace;}.e{fill:#1a685a;}.f{fill:#409682;}.g{fill:#4eaf9d;}</style></defs><g transform="translate(-1194.292 -407.691)"><g transform="translate(1200.848 483.398)"><path class="a" d="M175.687,345.379,143.765,356.1v40.168c0,8.132,10.822,14.724,24.169,14.724S192.1,404.4,192.1,396.269V356.1Z" transform="translate(-143.765 -341.377)"/><ellipse class="b" cx="24.169" cy="14.723" rx="24.169" ry="14.723" transform="translate(0.001)"/><path class="c" d="M145.511,362.064c4.256,4.2,11.878,7,20.576,7s16.319-2.8,20.576-7a8.1,8.1,0,0,0,.452-2.644c0-7.075-9.414-12.808-21.027-12.808s-21.027,5.733-21.027,12.808A8.1,8.1,0,0,0,145.511,362.064Z" transform="translate(-141.917 -339.616)"/><path class="d" d="M167.934,345.423c12.184,0,22.477,5.968,22.477,13.032s-10.293,13.029-22.477,13.029-22.474-5.968-22.474-13.029,10.293-13.032,22.474-13.032m0-1.692c-13.347,0-24.169,6.592-24.169,14.724s10.822,14.721,24.169,14.721,24.169-6.59,24.169-14.721-10.82-14.724-24.169-14.724Z" transform="translate(-143.765 -343.731)"/></g><path class="e" d="M178.849,321.858c-2.02,4.3-2.049,9.232-2.037,13.983q.018,8.005.036,16.013c.015,6.077.015,12.25-1.639,18.1s-5.215,11.439-10.662,14.141c-2.7,1.338-6.087,1.858-8.639.257a9.108,9.108,0,0,1-2.712-2.9c-6.136-9.618-.459-22.542,3.953-31.776A81.571,81.571,0,0,1,178.849,321.858Z" transform="translate(1066.709 108.431)"/><path class="f" d="M146.448,379.046c-1.515-19.939-.493-40.258-5.383-59.648a80.335,80.335,0,0,1,17.616,58.723c4.417-13.784,8.879-27.85,8.8-42.324-.039-6.918,4.218-23.246,4.218-23.246s2.506,15.622,4.81,23.215c1.571,5.184,1.889,10.65,2.2,16.057q.677,11.83,1.352,23.664c6.561-19.835,24.13-47.168,24.13-47.168s-6.468,52.114-9.9,64.036c-3.89,13.527-16.55,22.724-31.05,19.527C150.046,408.97,147.281,390,146.448,379.046Z" transform="translate(1053.227 95.14)"/><path class="g" d="M148.237,378.853c-2.758-7.58-.194-15.911,1.527-23.793,2.052-9.394,2.868-19.223.775-28.61a429.245,429.245,0,0,1,18.283,45.041c1.355,3.965,2.656,8.28,1.369,12.269-1.214,3.761-8.013,10.407-12.522,9.295C154.125,392.178,149.448,382.177,148.237,378.853Z" transform="translate(1061.734 114.989)"/></g></svg>