<svg xmlns="http://www.w3.org/2000/svg" xmlns:xlink="http://www.w3.org/1999/xlink" width="398.949" height="72.448" viewBox="0 0 398.949 72.448"><defs><style>.a{fill:url(#a);}.b{fill:url(#b);}.c{fill:#00a8ff;}.d{fill:url(#c);}.e{fill:url(#d);}.f{fill:url(#e);}.g{fill:url(#f);}.h{fill:url(#g);}.i{fill:url(#h);}.j{fill:url(#i);}.k{fill:#006ec6;}.l{fill:url(#j);}.m{fill:url(#k);}.n{fill:url(#l);}</style><linearGradient id="a" x1="0.5" y1="1" x2="0.5" gradientUnits="objectBoundingBox"><stop offset="0" stop-color="#006ec6"/><stop offset="0.11" stop-color="#0084db"/><stop offset="0.244" stop-color="#0098ef"/><stop offset="0.378" stop-color="#00a4fb"/><stop offset="0.514" stop-color="#00a8ff"/><stop offset="0.637" stop-color="#00a3fa"/><stop offset="0.769" stop-color="#0096ee"/><stop offset="0.905" stop-color="#0081d8"/><stop offset="1" stop-color="#006ec6"/></linearGradient><linearGradient id="b" x1="0.803" y1="0.501" x2="-0.759" y2="0.499" gradientUnits="objectBoundingBox"><stop offset="0" stop-color="#00a8ff"/><stop offset="0.263" stop-color="#00a4fb"/><stop offset="0.525" stop-color="#0098ef"/><stop offset="0.786" stop-color="#0084db"/><stop offset="1" stop-color="#006ec6"/></linearGradient><linearGradient id="c" x1="0.5" y1="1" x2="0.5" y2="-0.214" gradientUnits="objectBoundingBox"><stop offset="0" stop-color="#00a8ff"/><stop offset="0.263" stop-color="#00a4fb"/><stop offset="0.525" stop-color="#0098ef"/><stop offset="0.786" stop-color="#0084db"/><stop offset="0.999" stop-color="#006ec6"/></linearGradient><linearGradient id="d" x1="0.088" y1="-0.047" x2="0.888" y2="1.014" gradientUnits="objectBoundingBox"><stop offset="0.016" stop-color="#34d1ff"/><stop offset="0.262" stop-color="#00a8ff"/><stop offset="0.742" stop-color="#00a4fb"/><stop offset="0.8" stop-color="#00a4fa"/><stop offset="0.864" stop-color="#0096ec"/><stop offset="0.985" stop-color="#0072ca"/><stop offset="0.999" stop-color="#006ec6"/></linearGradient><linearGradient id="e" x1="0.68" y1="0.26" x2="0.369" y2="0.675" gradientUnits="objectBoundingBox"><stop offset="0" stop-color="#00a8ff"/><stop offset="0.126" stop-color="#00a3fa"/><stop offset="0.266" stop-color="#0095ed"/><stop offset="0.414" stop-color="#007fd7"/><stop offset="0.505" stop-color="#006ec6"/><stop offset="0.531" stop-color="#0075cd"/><stop offset="0.624" stop-color="#008be3"/><stop offset="0.726" stop-color="#009bf2"/><stop offset="0.841" stop-color="#00a5fc"/><stop offset="1" stop-color="#00a8ff"/></linearGradient><linearGradient id="f" x1="0.849" y1="-0.005" x2="-0.228" y2="1.079" gradientUnits="objectBoundingBox"><stop offset="0" stop-color="#34d1ff"/><stop offset="0.403" stop-color="#00a8ff"/><stop offset="0.495" stop-color="#00a3fa"/><stop offset="0.592" stop-color="#0097ee"/><stop offset="0.69" stop-color="#0082d9"/><stop offset="0.762" stop-color="#006ec6"/></linearGradient><linearGradient id="g" x1="1.136" y1="0.5" x2="-0.068" y2="0.5" gradientUnits="objectBoundingBox"><stop offset="0" stop-color="#34d1ff"/><stop offset="0.344" stop-color="#15b8ff"/><stop offset="0.554" stop-color="#00a8ff"/><stop offset="0.66" stop-color="#00a1f8"/><stop offset="0.811" stop-color="#008ee6"/><stop offset="0.988" stop-color="#0070c8"/><stop offset="1" stop-color="#006ec6"/></linearGradient><linearGradient id="h" x1="0.09" y1="-0.041" x2="0.949" y2="1.093" gradientUnits="objectBoundingBox"><stop offset="0.016" stop-color="#34d1ff"/><stop offset="0.208" stop-color="#00a8ff"/><stop offset="0.736" stop-color="#00a4fb"/><stop offset="0.8" stop-color="#00a4fa"/><stop offset="0.864" stop-color="#0096ec"/><stop offset="0.985" stop-color="#0072ca"/><stop offset="0.999" stop-color="#006ec6"/></linearGradient><linearGradient id="i" x1="1.217" y1="0.575" x2="-0.196" y2="0.36" gradientUnits="objectBoundingBox"><stop offset="0.002" stop-color="#34d1ff"/><stop offset="0.186" stop-color="#19bbff"/><stop offset="0.361" stop-color="#06adff"/><stop offset="0.485" stop-color="#00a8ff"/><stop offset="0.608" stop-color="#00a1f9"/><stop offset="0.772" stop-color="#0090e8"/><stop offset="0.961" stop-color="#0074cc"/><stop offset="1" stop-color="#006ec6"/></linearGradient><linearGradient id="j" x1="1.014" y1="0.503" x2="0.016" y2="0.497" gradientUnits="objectBoundingBox"><stop offset="0.031" stop-color="#34d1ff"/><stop offset="0.143" stop-color="#2dccff"/><stop offset="0.294" stop-color="#1cbeff"/><stop offset="0.466" stop-color="#00a8ff"/><stop offset="0.47" stop-color="#00a8ff"/><stop offset="0.596" stop-color="#00a1f9"/><stop offset="0.766" stop-color="#0090e8"/><stop offset="0.96" stop-color="#0074cc"/><stop offset="1" stop-color="#006ec6"/></linearGradient><linearGradient id="k" x1="0.4" y1="0.557" x2="-0.109" y2="0.85" gradientUnits="objectBoundingBox"><stop offset="0.017" stop-color="#34d1ff" stop-opacity="0"/><stop offset="0.258" stop-color="#34d1ff" stop-opacity="0.4"/><stop offset="0.302" stop-color="#30ceff" stop-opacity="0.439"/><stop offset="0.375" stop-color="#27c7ff" stop-opacity="0.541"/><stop offset="0.468" stop-color="#19bbff" stop-opacity="0.706"/><stop offset="0.577" stop-color="#05acff" stop-opacity="0.937"/><stop offset="0.605" stop-color="#00a8ff"/><stop offset="0.678" stop-color="#00a4fb"/><stop offset="0.75" stop-color="#0098ef"/><stop offset="0.821" stop-color="#0084db"/><stop offset="0.88" stop-color="#006ec6"/></linearGradient><linearGradient id="l" y1="0.5" x2="1" y2="0.5" gradientUnits="objectBoundingBox"><stop offset="0" stop-color="#00a8ff"/><stop offset="0.266" stop-color="#04abff"/><stop offset="0.559" stop-color="#11b5ff"/><stop offset="0.863" stop-color="#27c7ff"/><stop offset="1" stop-color="#34d1ff"/></linearGradient></defs><g transform="translate(-599.983 -285.989)"><rect class="a" width="11.815" height="66.943" transform="translate(943.469 287.111)"/><path class="b" d="M616.487,1047.184H601.063v-59.4H589.248V1059h27.239Z" transform="translate(265.938 -700.891)"/><rect class="c" width="11.815" height="70.998" transform="translate(885.379 287.111)"/><rect class="d" width="11.815" height="70.998" transform="translate(900.481 287.111)"/><path class="e" d="M643.711,988.046h13.784l41.352,71H685.063Z" transform="translate(256.765 -700.935)"/><path class="f" d="M748.573,988.046H734.789l-41.352,71h13.784Z" transform="translate(248.39 -700.935)"/><path class="g" d="M548.324,987.782H526.73V1059h21.594a32.885,32.885,0,0,0,32.885-32.884v-5.448A32.885,32.885,0,0,0,548.324,987.782Zm21.07,38.4a21.007,21.007,0,0,1-21.007,21.006h-9.843V999.631h9.843a21.007,21.007,0,0,1,21.007,21.007Z" transform="translate(276.467 -700.891)"/><path class="h" d="M512.083,1059.13h12.471l-26.911-71.545H485.171L458.26,1059.13h12.471l5.185-13.783H506.9Zm-31.723-25.6,11.047-29.369,11.047,29.369Z" transform="translate(287.999 -700.857)"/><path class="i" d="M695.806,988.046H709.59l41.352,71.326H737.157Z" transform="translate(247.991 -700.935)"/><path class="j" d="M455.261,987.782v43.978a15.425,15.425,0,0,1-30.85,0V987.782H412.6v43.977a27.24,27.24,0,0,0,27.24,27.24h0a27.239,27.239,0,0,0,27.239-27.24V987.782Z" transform="translate(295.69 -700.891)"/><path class="k" d="M394.168,1048.463a33.349,33.349,0,0,0,9.107-22.939v-4.266a33.475,33.475,0,1,0-66.95,0v4.266A33.48,33.48,0,0,0,378.5,1057.85a1.487,1.487,0,0,0,.3-.031,10.26,10.26,0,0,1,3.033-.457h1.328a10.4,10.4,0,0,1,5.585,1.637H403.6A22.438,22.438,0,0,0,394.168,1048.463Zm-46.029-22.939v-4.232a21.661,21.661,0,0,1,43.321,0v4.232a21.661,21.661,0,0,1-43.321,0Z" transform="translate(308.535 -700.891)"/><path class="l" d="M394.168,1048.463a33.349,33.349,0,0,0,9.107-22.939v-4.266a33.475,33.475,0,1,0-66.95,0v4.266A33.48,33.48,0,0,0,378.5,1057.85a1.487,1.487,0,0,0,.3-.031,10.26,10.26,0,0,1,3.033-.457h1.328a10.4,10.4,0,0,1,5.585,1.637H403.6A22.438,22.438,0,0,0,394.168,1048.463Zm-46.029-22.939v-4.232a21.661,21.661,0,0,1,43.321,0v4.232a21.661,21.661,0,0,1-43.321,0Z" transform="translate(308.535 -700.891)"/><path class="m" d="M402.742,1048.705a33.351,33.351,0,0,0,9.107-22.939V1021.5a33.482,33.482,0,0,0-24.614-32.28v12.55a21.661,21.661,0,0,1,12.8,19.764v4.233a21.66,21.66,0,0,1-12.8,19.764v12.552a.746.746,0,0,0,.138-.021,10.251,10.251,0,0,1,3.033-.458h1.328a10.4,10.4,0,0,1,5.585,1.637h14.858A22.436,22.436,0,0,0,402.742,1048.705Z" transform="translate(299.961 -701.132)"/><path class="n" d="M384.658,1069.481a12.384,12.384,0,0,1,10.4,1.4H410.25a24.268,24.268,0,0,0-34.461-10.273Z" transform="translate(301.889 -712.565)"/><g transform="translate(599.983 285.989)"><path class="c" d="M318.972,1033.425c-6.463-4.8-16.13-4.735-23.761-10.974a18.964,18.964,0,0,1-7.727-15.354c0-6.086,2.193-11.775,6.69-15.348,15.039-11.364,40.7-1.969,40.7,12.471-.657,0-12.536,2.028-12.471,1.97-.657-10.5-21-11.815-22.61-.151-1.677,10,12.764,11.308,23.02,15.809,2.557,1.192,8.123,4.032,10.717,9.923,6.6,18.4-9.814,26.928-22.175,26.928-14.923.481-28.991-8.533-28.991-24.942l13.128-.656c1.312,9.845,7.876,13.784,15.753,13.784C322.4,1047.541,323.055,1036.382,318.972,1033.425Z" transform="translate(-282.359 -986.697)"/></g></g></svg>