<svg xmlns="http://www.w3.org/2000/svg" width="84.278" height="227.529" viewBox="0 0 84.278 227.529"><defs><style>.a{fill:#cfccdf;}.b{fill:#eebcc5;}.c{fill:#008de5;}.d{fill:#0a4e84;}.e{fill:#27c7ff;}.f{fill:#fff;}.g{fill:#efc260;}</style></defs><g transform="translate(-1238.166 -183.224)"><g transform="translate(1299.727 216.712)"><path class="a" d="M154.288,277.15a5.865,5.865,0,0,1-3.633-10.473c.08-.063,9.653-7.843,8.68-16.863-1.285-11.877-5.844-26.622-5.891-26.77a5.867,5.867,0,0,1,11.2-3.486c.2.647,4.945,16,6.351,29,1.678,15.517-12.481,26.862-13.083,27.339A5.846,5.846,0,0,1,154.288,277.15Z" transform="translate(-148.419 -215.435)"/></g><g transform="translate(1288.8 283.15)"><path class="b" d="M150.285,352.991l-6.216-50.621-1.238-45.1a9.085,9.085,0,0,1,10.193-7.778c4.961.669,4.587,6.625,3.922,11.587l1.775,41.294-1.332,50.177C157.938,357.523,150.795,357.629,150.285,352.991Z" transform="translate(-142.831 -249.413)"/></g><g transform="translate(1266.728 287.626)"><path class="b" d="M145.318,359.63l-9.559-47.457-.045-52.895a9.065,9.065,0,1,1,17.883,2.98l-2.741,43.7.741,53.82c-7.346,14.63-18.708,10.381-20.05,8.062-.106-.184,1.973-.506,4.708-2C140.213,363.68,145.322,360.108,145.318,359.63Z" transform="translate(-131.543 -251.703)"/></g><path class="c" d="M153.785,306.874a8.32,8.32,0,0,0-5.842,2.921c-2.495,2.921-5.559,6.842-8.836,7.055s-4.632-2.565-2.137-3.492c0,0-5.772.143-6.912,1.568s2.4,5.991,7.411,6.128c5.2.143,7.624,0,8.48-1.07.362-.454,4.09-6.312,4.417-6.271.444.057,1,8.41,1,8.41l.714-.072,1.566-7.41S157.491,309.652,153.785,306.874Z" transform="translate(1133.562 88.629)"/><g transform="translate(1294.666 383.417)"><path class="d" d="M151.406,300.715s-4.276-.143-5.273,2.849.784,4.988,1,6.842-1.212,2.708-.07,3.563,7.909.641,8.408.213-1.14-2.706-.571-3.848S158.318,302.282,151.406,300.715Z" transform="translate(-145.831 -300.672)"/><path class="c" d="M151.48,300.736h-.162s-6.984-.784-5.06,6.84c0,0,.714-2.708,2.495-2.636a1.618,1.618,0,0,1,1.639,1.781l.356,11.687h1.3l.356-11.687a1.618,1.618,0,0,1,1.639-1.781c1.781-.072,1.762,2.423,1.762,2.423C157.732,299.737,151.48,300.736,151.48,300.736Z" transform="translate(-145.744 -300.693)"/></g><path class="e" d="M132.983,252.49c-.618,13.363-.747,55.961,0,59.938,1.007,5.367,35.858,6.159,37.413,0,3.686-.557-1.332-38.631.444-41.738,1.951-3.416,2.274-6.091,2.538-10.015.258-3.852.2-8.57-1.136-11.607l-21.311-3.907C144.468,243.977,137.157,247.42,132.983,252.49Z" transform="translate(1136.071 29.451)"/><path class="b" d="M132.769,215.766a16.277,16.277,0,1,0,16.278-16.278A16.277,16.277,0,0,0,132.769,215.766Z" transform="translate(1136.356 -13.958)"/><path class="f" d="M174.527,238.3s6.992-18.325-.461-23.475c-5.643-.616-12.561,2.649-12.561,2.649s-14.649,9.432-24.416,14.315c-4.92,2.46-1.467,14.276-1.306,26.088a96.7,96.7,0,0,1-3.013,23.286s15.171,6.509,23.309,5.968,17.9-4.341,16.82-8.138-5.968-17.9-3.8-22.787S174.527,238.3,174.527,238.3Z" transform="translate(1136.356 0.615)"/><path class="b" d="M152.973,209.925l2.436,17.467h0a10.437,10.437,0,0,1-9.933,6.247l-2.006-.07-3.9-18.362Z" transform="translate(1142.851 -3.987)"/><path class="d" d="M137.575,221.635c-.08-2.413,3.242-4.118,5.156-2.649a4.389,4.389,0,0,1,1.175,4.7,12.863,12.863,0,0,1-2.7,4.343,75.417,75.417,0,0,0,16.56,8.361q3.643-5.276,7.283-10.555a17.114,17.114,0,0,0,2.72-5.086c1.15-4.239-.557-11.724-3.383-15.089-3.975-4.736-9.382-6.824-15.547-7.321-4.769-.385-10.549,2.908-13.636,6.625C131.129,209.865,135.671,216.369,137.575,221.635Z" transform="translate(1137.109 -15.085)"/><path class="d" d="M156.77,219.856a28.631,28.631,0,0,1,9.413,26.5,15.37,15.37,0,0,1-3.639,7.939c-4.032,4.208-11.724,3.993-15.517-.432-3.027-3.529-3.375-8.613-2.954-13.245.442-4.871,1.566-9.692,1.488-14.583-.043-2.64-.432-5.33.237-7.882.5-1.916,2.927-5.831,5.344-4.431.9.526,1.6,2.458,2.362,3.269A38.26,38.26,0,0,0,156.77,219.856Z" transform="translate(1147.015 -0.642)"/><path class="g" d="M146.531,216.848a5.875,5.875,0,0,0-2.36,2.315,1.211,1.211,0,0,0-.022,1.212,1.336,1.336,0,0,0,.772.416,8.811,8.811,0,0,0,7.413-1.478c1.077-.813,3.737-4.431,1.369-5.248C151.934,213.455,147.945,215.964,146.531,216.848Z" transform="translate(1147.081 -0.122)"/><ellipse class="b" cx="5.665" cy="5.665" rx="5.665" ry="5.665" transform="translate(1268.106 278.159)"/><g transform="translate(1238.166 231.715)"><path class="f" d="M145.267,280.66c-.237,0-.477-.012-.718-.035-2.867-.3-17.5-2.217-24.2-10.57a14.98,14.98,0,0,1-3.31-11.3c1.625-14.219,27.458-30.18,35.338-34.732a6.844,6.844,0,0,1,6.849,11.851c-14.714,8.513-28.074,19.93-28.589,24.435a1.346,1.346,0,0,0,.381,1.171c2.337,2.919,10.31,5.023,14.966,5.528a6.844,6.844,0,0,1-.718,13.648Z" transform="translate(-116.935 -223.108)"/></g></g></svg>