<svg xmlns="http://www.w3.org/2000/svg" width="86.219" height="231.045" viewBox="0 0 86.219 231.045"><defs><style>.a{fill:#035ba2;}.b{fill:#eebcc5;}.c{fill:#e7ebf2;}.d{fill:#008de5;}.e{fill:#f9fbfc;}.f{fill:#efc260;}</style></defs><g transform="translate(-1536.124 -285.989)"><path class="a" d="M454.346,281.642q-.416,3.25-.828,6.5a7.669,7.669,0,0,0,.19,3.957c.521,1.233,1.98,2.175,3.208,1.644a3.766,3.766,0,0,0,1.572-1.7,36.02,36.02,0,0,0,4.135-9.28c.905-3.571,1.816-12.287-3.927-10.387C454.755,273.676,454.807,278.038,454.346,281.642Z" transform="translate(1145.01 223.142)"/><path class="a" d="M448.052,269.626c.978.054,1.429,1.238,1.572,2.207a21.589,21.589,0,0,1,.22,3.68c-.017.579-.249,6.221-.249,6.221l-1.376-.212-.423-4.656s-7.088,6.349-9.84,7.407c-.721.277-5.691,2.271-8.073-.344-1.607-1.762,1.273-3.668,2.041-4.1,3.571-2,9.529-7.5,10.476-7.723s2.121-2.36,2.644-3.174C445.332,268.486,447.519,269.6,448.052,269.626Z" transform="translate(1128.732 220.914)"/><g transform="translate(1536.124 315.64)"><path class="b" d="M427.958,207.9c-.373,0-.746-.015-1.115-.047a11.835,11.835,0,0,1-8.964-5.259c-1.742-2.525-7.038-10.207,20.507-35.842a5.879,5.879,0,0,1,8.012,8.607c-8.217,7.651-15.812,16.61-17.8,20.806,2.6-.385,8.664-4.107,13.641-9,2.467-4.35,8.133-12.322,15.456-9.878a5.879,5.879,0,0,1-2.042,11.454,21.323,21.323,0,0,0-3.492,4.779l-.395.729-.588.6C448.977,197.087,437.844,207.9,427.958,207.9Z" transform="translate(-416.299 -165.175)"/></g><g transform="translate(1557.845 307.08)"><rect class="a" width="22.125" height="10.941" transform="matrix(-0.747, 0.664, -0.664, -0.747, 23.806, 8.178)"/><rect class="c" width="7.583" height="18.766" transform="matrix(0.664, 0.747, -0.747, 0.664, 16.398, 2.371)"/></g><path class="d" d="M470.7,231.388c-1.045-6.564-4.784-15.695-4.784-15.695s7.952-26.478,7.029-28.072c-1.765-3.049-15.058-14.608-18.319-14.921s-8.388,1.666-8.388,1.666L434.99,185.753a11.75,11.75,0,0,0-2.965,11.4l5.847,19.318-4.255,21.658s-1.841-1.12,14.113,1.142,20.806,5.3,20.806,5.3l2.16-13.18" transform="translate(1130.224 155.557)"/><path class="b" d="M470.606,266.861s.645-32.127,1.236-42.37-1.191-9.153-5.471-13.394c0,0-22.7,3.806-27.19-3.877,0,0-3.259-7.779-4.987,12.725-1.572,18.658.949,42.561.949,42.561s5.533,52.983,4.475,54.359-6.487,4.661-7.333,6.143-.106,2.116,2.011,1.693,9.448-5.3,10.295-6.672,1.567-2.815,1.631-8.232c.732-7.769,3.766-19.7,2.981-30.676-.709-9.937,2.016-17.631,2.346-20.193.561-4.347,1.784-40.142,1.784-40.142l-5.362-.076s7.683,41.407,8.9,50.187,14.356,50.629,14.356,50.629-2.488,15.137-1.036,16.588,4.977-6.635,5.392-9.124.206-12.025.206-12.025Z" transform="translate(1130.457 178.058)"/><path class="b" d="M436.251,166.96a13.13,13.13,0,1,0,15.03-10.9A13.13,13.13,0,0,0,436.251,166.96Z" transform="translate(1133.274 144.156)"/><path class="b" d="M439.758,167.1l3.163,13.871h0a8.416,8.416,0,0,0,9.279,1.868h0a2.071,2.071,0,0,0,1.246-2.229l-2.066-13.363Z" transform="translate(1135.77 151.775)"/><path class="b" d="M450.759,172.919c.072.027.16.074.235.106.183.077.361.151.566.257.059.029.119.064.18.1.25.133.519.287.8.454.035.022.064.035.1.057s.072.04.109.064l.045.03c.321.2.659.418,1.006.652.1.069.207.138.312.21q.521.358,1.073.758c.131.1.267.195.4.294l.013.01c.271.2.543.4.82.615q.31.237.625.48l.235.186c.2.156.4.312.6.474q.332.265.665.536c.072.059.144.118.217.178.1.079.195.16.292.24.406.334.813.674,1.214,1.015.107.092.213.183.321.274.541.465,1.077.931,1.6,1.4l0,0c-1.454,1.3-3.366,2.38-4.488,3.3-3.2,2.622-6.122,4.844-10.448,5.034a8.775,8.775,0,0,1-3.7-.539,8.131,8.131,0,0,1-4.35-4.895,16.665,16.665,0,0,1-.69-6.663c0-.023.005-.047.007-.072l3.06-3.1s5.126-1.979,8.388-1.666a2.974,2.974,0,0,1,.65.168C450.663,172.885,450.71,172.9,450.759,172.919Z" transform="translate(1134.882 155.557)"/><path class="a" d="M438.355,198.944s4.023,8.227,16.185,7.355,11.691-8.123,11.691-8.123,9.7,2.892,9.28,28.607-1.258,42.711-1.258,42.711-13.617,15.878-39.943.747c0,0-3.257-47.817-3.257-55.226S433.323,206.789,438.355,198.944Z" transform="translate(1129.854 172.895)"/><path class="e" d="M465.814,188.552l-23.937,8.526,3.607,24.265,33.447-12.46Z" transform="translate(1137.21 166.353)"/><path class="f" d="M467.093,188.978,443.156,197.5l3.607,24.265,33.446-12.46Z" transform="translate(1138.079 166.643)"/><g transform="translate(1592.431 341.161)"><path class="b" d="M456.989,240.385a5.878,5.878,0,0,1-4.083-10.108c4.612-4.453,12.735-13.122,14.894-17.425,1.6-3.178-6.259-14.114-15.854-22.079a5.879,5.879,0,1,1,7.51-9.048,98.922,98.922,0,0,1,11.412,11.455c8.261,9.925,10.767,18.317,7.444,24.943-3.762,7.5-15.874,19.294-17.242,20.615A5.86,5.86,0,0,1,456.989,240.385Z" transform="translate(-449.821 -180.369)"/></g><path class="d" d="M451.1,156.059a13.126,13.126,0,0,0-14.739,9.547,13.12,13.12,0,0,0,15.829-1.53,13.1,13.1,0,0,0,9.6,8.01c.079-.328.158-.658.211-1A13.128,13.128,0,0,0,451.1,156.059Z" transform="translate(1133.458 144.156)"/><path class="d" d="M442.743,155.347a9.283,9.283,0,1,0,10.627-7.708A9.284,9.284,0,0,0,442.743,155.347Z" transform="translate(1137.719 138.467)"/><path class="b" d="M448.3,166.027a4,4,0,1,0,4.577-3.319A4,4,0,0,0,448.3,166.027Z" transform="translate(1141.541 148.754)"/><path class="a" d="M454.367,207.719l9.589,15.449-4.67,8.489-15.739-8.2Z" transform="translate(1138.344 179.381)"/><path class="e" d="M448.926,167.163a1.078,1.078,0,1,0,1.235-.9A1.079,1.079,0,0,0,448.926,167.163Z" transform="translate(1141.992 151.198)"/><path class="e" d="M439.786,173.984a1.079,1.079,0,1,0,1.236-.9A1.079,1.079,0,0,0,439.786,173.984Z" transform="translate(1135.78 155.834)"/><path class="e" d="M438.25,175.769a1.079,1.079,0,1,0,1.236-.9A1.078,1.078,0,0,0,438.25,175.769Z" transform="translate(1134.736 157.047)"/><path class="e" d="M437.753,178.924a1.079,1.079,0,1,0,1.234-.9A1.079,1.079,0,0,0,437.753,178.924Z" transform="translate(1134.397 159.192)"/><path class="e" d="M439.62,180.793a1.079,1.079,0,1,0,1.236-.9A1.08,1.08,0,0,0,439.62,180.793Z" transform="translate(1135.667 160.461)"/><path class="e" d="M442.485,180.045a1.079,1.079,0,1,0,1.235-.9A1.079,1.079,0,0,0,442.485,180.045Z" transform="translate(1137.614 159.954)"/><path class="e" d="M444.685,178.509a1.079,1.079,0,1,0,1.236-.9A1.081,1.081,0,0,0,444.685,178.509Z" transform="translate(1139.109 158.91)"/><path class="e" d="M446.513,176.6a1.079,1.079,0,1,0,1.234-.9A1.079,1.079,0,0,0,446.513,176.6Z" transform="translate(1140.351 157.611)"/><path class="e" d="M447.094,175.229a1.079,1.079,0,1,0,1.236-.9A1.079,1.079,0,0,0,447.094,175.229Z" transform="translate(1140.746 156.68)"/></g></svg>