<svg xmlns="http://www.w3.org/2000/svg" width="87.225" height="208.43" viewBox="0 0 87.225 208.43"><defs><style>.a{fill:#3e3577;}.b{fill:#eebcc5;}.c{fill:#0a4e84;}.d{fill:#008de5;}.e{fill:#27c7ff;}.f{fill:#035ba2;}.g{fill:#fff;}.h{fill:#f9fbfc;}</style></defs><g transform="translate(-125.99 -419.253)"><path class="a" d="M92.528,415.247c-.9.051-1.3,1.141-1.418,2.034a19.525,19.525,0,0,0-.156,3.387,3.937,3.937,0,0,0,.3,1.562,3.023,3.023,0,0,0,1.859,1.454,11.633,11.633,0,0,0,2.394.37c4.557.449,9.026,2.093,13.589,1.714a4.4,4.4,0,0,0,2.034-.558,1.848,1.848,0,0,0,.909-1.793c-.148-.8-.937-1.3-1.65-1.7a93.118,93.118,0,0,0-10.148-5.113,2.416,2.416,0,0,0-1.2-.254.856.856,0,0,0-.784.812,3.838,3.838,0,0,1-2.7.387,3.594,3.594,0,0,1-2.156-1.508C93.132,415.633,93.019,415.221,92.528,415.247Z" transform="translate(79.222 187.298)"/><path class="b" d="M91.791,418.767a3.71,3.71,0,0,0,3.349,4.318,57.741,57.741,0,0,0,9.588,1.517c.844.062,1.949-.076,2.138-.9a1.266,1.266,0,0,0-.433-1.268c-1.545-1.111-3.5-1.4-5.365-2.219a8.406,8.406,0,0,1-4.226-4.872,19.658,19.658,0,0,0-.5-2.068,2.864,2.864,0,0,0-2.1-1.667C90.429,410.933,91.648,416.535,91.791,418.767Z" transform="translate(79.526 185.278)"/><path class="a" d="M76.827,421.463a1.027,1.027,0,0,0-.934.506,2.8,2.8,0,0,0-.345,1.058,25.105,25.105,0,0,0-.368,3.632,2.026,2.026,0,0,0,1.078,1.755,9.5,9.5,0,0,1,2.506,2.719,16.242,16.242,0,0,0,9.93,6.038,1.98,1.98,0,0,0,2.326-1.6,3.985,3.985,0,0,0-.009-1.228,7.176,7.176,0,0,0-1.315-2.872,14.97,14.97,0,0,0-3.548-3.567,11.015,11.015,0,0,0-7.259-6.722A2.29,2.29,0,0,0,76.827,421.463Z" transform="translate(70.607 190.48)"/><path class="b" d="M76,422.559a16.612,16.612,0,0,0,.011,3.987c.665,4.024,4.1,6.923,7.3,9.449.711.561,1.65,1.151,2.456.739a1.645,1.645,0,0,0,.673-1.878,4.914,4.914,0,0,0-1.117-1.82c-2.014-2.413-4.043-5.086-4.29-8.219a24.889,24.889,0,0,1,.345-4.5c.187-1.8-.4-7.427-3.553-6.1C75.584,415.158,76.142,420.681,76,422.559Z" transform="translate(70.989 186.627)"/><path class="c" d="M81.3,309.444c-2.666.071-5.554.721-7.223,2.8a7.03,7.03,0,0,0-1.089,6.112c.363,1.392,1.076,2.747.956,4.181a6.088,6.088,0,0,1-2.294,3.8,24,24,0,0,0-3.341,3.075c-2.077,2.716-1.808,6.711-.093,9.668s4.612,5.038,7.608,6.683a36.739,36.739,0,0,0,14.236,4.561,26.491,26.491,0,0,0,14.605-2.68,13.559,13.559,0,0,0,5.14-4.3,11.587,11.587,0,0,0,1.46-8.692c-.385-1.876-1.143-3.653-1.674-5.494a23.443,23.443,0,0,1,.1-13.224c.483-1.589,1.129-3.345.4-4.838a5.832,5.832,0,0,0-1.463-1.692q-1.494-1.336-2.991-2.671a19.729,19.729,0,0,0-3.253-2.521c-3.53-2.017-9-1.875-12.745-.342-1.712.7-1.96,2.07-2.852,3.52C85.571,309.379,83.422,309.387,81.3,309.444Z" transform="translate(66.051 125.778)"/><g transform="translate(167.208 453.217)"><path class="d" d="M113.765,361.877c-2.583,0-10.442,0-24.366-35.8a5.413,5.413,0,0,1,10.091-3.924c4.886,12.554,11.291,24.945,14.559,28.388,2.651-2.346,7.341-10.222,10.579-17.968a5.413,5.413,0,1,1,9.988,4.178C125.931,357.519,118.484,361.877,113.765,361.877Zm-.588-10.736Z" transform="translate(-89.029 -318.7)"/></g><path class="e" d="M74.708,370.228c1.533-5.925,4.532-8.091,3.672-10.1-5.509-12.855-2.874-28.836-1.889-30.216,1.885-2.64,15.085-12.069,18.1-12.069s7.543,2.263,7.543,2.263l9.308,11.425a10.824,10.824,0,0,1,1.715,10.706l-5.293,15.669,4.716,21.222s-2.694-.337-17.516.337S75.529,382.5,75.529,382.5l-.821-12.271" transform="translate(70.349 134.05)"/><path class="f" d="M114.091,405.1s3.461-20.257,1.777-37.437c-1.851-18.88-7.412-23.916-7.412-23.916-4.041,7.074-29.488,2.221-29.488,2.221-3.887,3.9-5.882,17.654-5.208,27.086s5.381,37.5,5.381,37.5-2.687,43.343-2.014,47.047l5.423.859S93.3,417.183,94.308,409.1s.914-42.4.914-42.4l3.008-.105s1.578,32.961,2.15,36.964c.337,2.359-1.027,9-.967,18.174s.967,22.04,1.74,29.194l5.607.58Z" transform="translate(69.761 148.211)"/><path class="b" d="M106.159,312.564a12.091,12.091,0,1,1-12.82-11.314A12.092,12.092,0,0,1,106.159,312.564Z" transform="translate(74.336 124.965)"/><path class="b" d="M98.5,313.13l-4.117,12.435h0a7.751,7.751,0,0,1-8.669.9h0a1.91,1.91,0,0,1-.947-2.153l3.067-12.069Z" transform="translate(75.814 130.987)"/><rect class="g" width="30.02" height="24.503" transform="translate(132.152 486.318)"/><path class="b" d="M87.97,310.8a3.681,3.681,0,1,1-3.9-3.444A3.68,3.68,0,0,1,87.97,310.8Z" transform="translate(73.579 128.309)"/><rect class="a" width="30.02" height="24.503" transform="translate(129.056 486.318)"/><path class="c" d="M117.728,335.873,108.2,339.5l3.655-17.48,9.526-3.629Z" transform="translate(88.66 134.35)"/><g transform="translate(125.99 462.517)"><path class="d" d="M86.7,376a5.389,5.389,0,0,1-2.288-.51c-4.47-2.088-19.247-9.554-21.725-17.982-2.439-8.287,10.1-21.661,21.055-31.421a5.413,5.413,0,0,1,7.2,8.081c-8.846,7.89-16.922,17.314-17.73,20.623,1.274,2.441,8.64,7.556,15.776,10.889A5.414,5.414,0,0,1,86.7,376ZM73.162,355.089Z" transform="translate(-62.38 -324.713)"/></g><g transform="translate(186.53 463.766)"><path class="b" d="M106.935,358.149a5.413,5.413,0,0,1-.438-10.808c2.434-1.324,7.743-9.987,11.3-18.5a5.413,5.413,0,1,1,9.988,4.178C119.1,353.79,111.654,358.149,106.935,358.149Zm-.588-10.736Zm.588-.091h0Z" transform="translate(-101.522 -325.52)"/></g><g transform="translate(126.077 488.401)"><path class="b" d="M86.668,366.848a5.386,5.386,0,0,1-2.286-.51c-4.47-2.088-19.247-9.554-21.725-17.982a5.386,5.386,0,0,1,3.644-6.682,5.442,5.442,0,0,1,6.742,3.629c.694,2.263,8.433,7.721,15.923,11.226a5.415,5.415,0,0,1-2.3,10.32Z" transform="translate(-62.436 -341.448)"/></g><path class="b" d="M91.044,317.975c-.068.019-.153.054-.224.077-.175.056-.345.107-.541.186-.056.022-.116.048-.173.071-.241.1-.5.218-.772.347l-.1.043c-.036.017-.068.031-.105.049l-.043.023c-.312.153-.64.325-.981.509l-.3.165q-.51.283-1.05.6c-.128.076-.261.156-.393.235l-.014.008c-.263.159-.532.322-.8.49-.2.127-.408.255-.616.387-.077.048-.156.1-.234.15-.2.125-.393.251-.592.38-.218.142-.436.286-.657.433l-.213.144-.289.195q-.6.406-1.2.824c-.107.074-.212.147-.317.223-.538.377-1.069.758-1.585,1.138l0,0c1.219,1.322,2.877,2.476,3.825,3.418,2.7,2.684,5.186,4.977,9.135,5.531a8.078,8.078,0,0,0,3.438-.169,7.484,7.484,0,0,0,4.417-4.1,15.386,15.386,0,0,0,1.219-6.047c0-.022,0-.043,0-.067l-2.532-3.109s-4.526-2.263-7.543-2.263a2.783,2.783,0,0,0-.611.1C91.136,317.953,91.092,317.962,91.044,317.975Z" transform="translate(73.152 134.05)"/><path class="c" d="M104.109,308.346a1.93,1.93,0,0,1-.657,2.849,8.175,8.175,0,0,1-3.789.77,10.981,10.981,0,0,0-4.649.94c-2.824,1.485-4.343,5.232-7.5,5.7a38.343,38.343,0,0,0-4.332-4.974c-1.426-1.567-3.715-4.256-2.957-6.235.555-1.452,2.042-2.3,3.044-3.483,1.632-1.94,2.026-4.869,4.108-6.315a6.6,6.6,0,0,1,5.265-.589c1.771.421,3.435,1.731,5.242,1.514,10.722-1.288,13.4,6.524,13.557,8.12.555,5.664-3.308,5.8-4.448,6.931C106.605,312.555,106.822,310.354,104.109,308.346Z" transform="translate(73.283 122.513)"/><path class="h" d="M83.776,310.917a.928.928,0,1,1-.984-.868A.927.927,0,0,1,83.776,310.917Z" transform="translate(74.294 129.787)"/></g></svg>