<svg xmlns="http://www.w3.org/2000/svg" width="87.745" height="210.439" viewBox="0 0 87.745 210.439"><defs><style>.a{fill:#3e3577;}.b{fill:#eebcc5;}.c{fill:#cfccdf;}.d{fill:#035ba2;}.e{fill:#fff;}.f{fill:#a194ef;}.g{fill:#fff9ff;}.h{fill:#0a4e84;}</style></defs><g transform="translate(-1304.447 -428.652)"><path class="a" d="M305.6,436.067l-.993,8.708a64.551,64.551,0,0,1,10.306,3.289,3.38,3.38,0,0,1,1.823,3.751l0,.016-18.959.111s-2.976-.882-2.756-2.315a34.89,34.89,0,0,1,1.874-5.181l.661-9.81Z" transform="translate(1043.332 187.15)"/><path class="b" d="M296.58,444.445l.661-9.81,8.048,1.432-.993,8.708a64.55,64.55,0,0,1,10.306,3.289c.035.017.064.04.1.057a6.028,6.028,0,0,1-4.783,1.724c-4.581-.1-13.187-2.267-14.481-2.6C295.968,445.837,296.58,444.445,296.58,444.445Z" transform="translate(1043.646 187.15)"/><g transform="translate(1319.384 613.694)"><path class="a" d="M300.037,434.676a2.414,2.414,0,0,1,1.167,2.492c-.344,1.25-2.03,2.587-3.813,4.123-3.969,3.417-10.32,6.459-11.9,5.732-2.646-1.214-.882-5.732-.662-6.725S297.612,431.921,300.037,434.676Z" transform="translate(-284.046 -426.96)"/><path class="b" d="M292.568,430.949l-.773,8.046s4.41-1.323,4.74-.771.441,2.316-3.085,4.74-8.159,3.417-8.708,2.424-.111-15.432-.111-15.432Z" transform="translate(-283.741 -429.956)"/></g><g transform="translate(1307.498 466.996)"><path class="c" d="M296.757,381.56c-7,0-15.43-5.591-19.369-29.565l-.1-.577a5.187,5.187,0,0,1,10.1-2.362c.042.163.125.6.233,1.257,2.442,14.866,6.67,21.256,9.583,20.841,7.709-1.013,14.488-10.147,16.45-13.581a5.186,5.186,0,0,1,9.025,5.113c-.387.688-9.677,16.855-24.121,18.755A13.815,13.815,0,0,1,296.757,381.56Z" transform="translate(-277.172 -345.122)"/></g><g transform="translate(1315.286 524.179)"><path class="d" d="M294.81,469.96l3.429-44.936,1.095-39.888a8.033,8.033,0,0,0-9.013-6.879c-4.389.591-9.186,11.25-8.6,15.639l3.555,31.128,1.179,44.376C285.974,473.8,294.359,474.062,294.81,469.96Z" transform="translate(-281.675 -378.19)"/></g><g transform="translate(1335.641 528.214)"><path class="d" d="M307.024,477.96l4.65-47.867.171-35.221c-.728-4.368-10.128-15.039-14.489-14.313s-4.25,5.809-3.524,10.175l4.3,40.512-.118,45.773Z" transform="translate(-293.447 -380.524)"/></g><path class="d" d="M320.35,380.874c.545,11.818,0,22.857,0,22.857l-29.091-4.41-9.407-1.849s-.863-17.429.318-20.116l18.849-3.455C306.732,372.854,316.657,376.389,320.35,380.874Z" transform="translate(1033.517 142.726)"/><path class="b" d="M311.857,338.711a14.395,14.395,0,1,1-17.514-10.377A14.395,14.395,0,0,1,311.857,338.711Z" transform="translate(1034.95 109.301)"/><path class="e" d="M281.873,363.6s-6.73-14.393-.138-18.946c4.991-.545,11.249,1.145,11.249,1.145s16.922,8.133,25.693,12.17c6.931,3.189,1.02,19.931,1.331,33.86.066,2.929,2.608,5.181,2.608,8.378v7.059s-20.222,3.446-27.194,1.117c-6.841-2.286-13.07-5.439-12.11-8.8s5.278-15.835,3.36-20.153S281.873,363.6,281.873,363.6Z" transform="translate(1031.543 121.454)"/><path class="b" d="M310.276,351.907a5.01,5.01,0,1,1-5.009-5.01A5.009,5.009,0,0,1,310.276,351.907Z" transform="translate(1047.159 123.168)"/><path class="b" d="M289.2,338.7l-2.156,15.447,11.146,3.079,2.865-13.856Z" transform="translate(1037.529 117.192)"/><g transform="translate(1346.392 445.193)"><path class="a" d="M344.386,346l-23.052-13.2a2.034,2.034,0,0,0-1.416-.244c-.654.15-1.266.356-1.266.927l-.035,21.429,2.028,1.2c-.664.322-20.9,10.171-20.932,10.2l-.048.827a1,1,0,0,0,.5.865c3.445,2,23.623,13.659,23.623,13.659a2.143,2.143,0,0,0,2.146,0l19.179-11.084a.653.653,0,0,0,.323-.56l.033-22.151A2.146,2.146,0,0,0,344.386,346Z" transform="translate(-299.664 -332.513)"/><g transform="translate(18.878 0.295)"><path class="f" d="M336.824,369.812,310.635,354.87l-.054-21.38a.8.8,0,0,1,1.2-.7l24.151,13.834a1.7,1.7,0,0,1,.852,1.466Z" transform="translate(-310.581 -332.684)"/><path class="g" d="M311.2,333.464l23.976,13.762.05,20.128L311.2,353.562Z" transform="translate(-310.126 -332.115)"/></g><g transform="translate(0.019 22.327)"><path class="f" d="M344.761,360.52l-26.174-15.095-18.512,10.7a.8.8,0,0,0,0,1.389l24.1,13.925a1.689,1.689,0,0,0,1.7,0Z" transform="translate(-299.675 -345.425)"/></g><path class="g" d="M319.346,357.938l-8.981-5.185-5.132,3.162,8.978,5.187Z" transform="translate(-295.603 -317.754)"/></g><g transform="translate(1340.737 478.642)"><path class="c" d="M316.017,388.377c-7,0-15.432-5.592-19.371-29.57l-.1-.6a5.113,5.113,0,0,1,3.8-6.2,5.257,5.257,0,0,1,6.307,3.867c.041.161.126.593.233,1.252,2.442,14.87,6.735,21.261,9.583,20.844,9.219-1.212,16.374-13.448,16.445-13.573a5.188,5.188,0,0,1,9.032,5.108c-.389.687-9.68,16.853-24.123,18.752A13.752,13.752,0,0,1,316.017,388.377Z" transform="translate(-296.394 -351.857)"/></g><path class="b" d="M326.513,359.4a5.01,5.01,0,1,1-5.01-5.01A5.01,5.01,0,0,1,326.513,359.4Z" transform="translate(1059.001 128.632)"/><path class="b" d="M302.1,351.849c-6.239-2.959-12.137-5.789-13.581-6.483-1.871,1.032-3.081,2.549-3.081,4.264,0,3.107,3.887,5.625,8.684,5.625C297.7,355.255,300.769,353.851,302.1,351.849Z" transform="translate(1036.353 122.052)"/><path class="h" d="M309.52,337.425A14.395,14.395,0,1,1,292,327.048,14.394,14.394,0,0,1,309.52,337.425Z" transform="translate(1033.246 108.363)"/><path class="h" d="M295.592,330.66a10.251,10.251,0,1,1-12.473-7.389A10.252,10.252,0,0,1,295.592,330.66Z" transform="translate(1029.04 105.704)"/><path class="b" d="M302.937,338.633a4.474,4.474,0,1,1-5.444-3.225A4.472,4.472,0,0,1,302.937,338.633Z" transform="translate(1042.691 114.688)"/></g></svg>