<svg xmlns="http://www.w3.org/2000/svg" xmlns:xlink="http://www.w3.org/1999/xlink" width="177.356" height="49.922" viewBox="0 0 177.356 49.922"><defs><style>.a{fill:url(#a);}.b{fill:url(#b);}.c{fill:#00a8ff;}.d{fill:url(#c);}.e{fill:url(#d);}.f{fill:url(#e);}.g{fill:url(#f);}.h{fill:url(#g);}.i{fill:url(#h);}.j{fill:url(#i);}.k{fill:#006ec6;}.l{fill:url(#j);}.m{fill:url(#k);}.n{fill:url(#l);}.o{fill:url(#m);}.p{fill:url(#n);}.q{fill:url(#o);}.r{fill:url(#p);}.s{fill:url(#q);}.t{fill:url(#r);}.u{fill:url(#s);}.v{fill:#34d1ff;}.w{fill:url(#t);}.x{fill:url(#u);}.y{fill:url(#v);}.z{fill:url(#w);}.aa{fill:url(#x);}</style><linearGradient id="a" x1="0.5" y1="1" x2="0.5" gradientUnits="objectBoundingBox"><stop offset="0" stop-color="#006ec6"/><stop offset="0.11" stop-color="#0084db"/><stop offset="0.244" stop-color="#0098ef"/><stop offset="0.378" stop-color="#00a4fb"/><stop offset="0.514" stop-color="#00a8ff"/><stop offset="0.637" stop-color="#00a3fa"/><stop offset="0.769" stop-color="#0096ee"/><stop offset="0.905" stop-color="#0081d8"/><stop offset="1" stop-color="#006ec6"/></linearGradient><linearGradient id="b" x1="0.803" y1="0.501" x2="-0.759" y2="0.499" gradientUnits="objectBoundingBox"><stop offset="0" stop-color="#00a8ff"/><stop offset="0.263" stop-color="#00a4fb"/><stop offset="0.525" stop-color="#0098ef"/><stop offset="0.786" stop-color="#0084db"/><stop offset="1" stop-color="#006ec6"/></linearGradient><linearGradient id="c" x1="0.5" y1="1" x2="0.5" y2="-0.214" gradientUnits="objectBoundingBox"><stop offset="0" stop-color="#00a8ff"/><stop offset="0.263" stop-color="#00a4fb"/><stop offset="0.525" stop-color="#0098ef"/><stop offset="0.786" stop-color="#0084db"/><stop offset="0.999" stop-color="#006ec6"/></linearGradient><linearGradient id="d" x1="0.088" y1="-0.047" x2="0.888" y2="1.014" gradientUnits="objectBoundingBox"><stop offset="0.016" stop-color="#34d1ff"/><stop offset="0.262" stop-color="#00a8ff"/><stop offset="0.742" stop-color="#00a4fb"/><stop offset="0.8" stop-color="#00a4fa"/><stop offset="0.864" stop-color="#0096ec"/><stop offset="0.985" stop-color="#0072ca"/><stop offset="0.999" stop-color="#006ec6"/></linearGradient><linearGradient id="e" x1="0.68" y1="0.26" x2="0.369" y2="0.675" gradientUnits="objectBoundingBox"><stop offset="0" stop-color="#00a8ff"/><stop offset="0.126" stop-color="#00a3fa"/><stop offset="0.266" stop-color="#0095ed"/><stop offset="0.414" stop-color="#007fd7"/><stop offset="0.505" stop-color="#006ec6"/><stop offset="0.531" stop-color="#0075cd"/><stop offset="0.624" stop-color="#008be3"/><stop offset="0.726" stop-color="#009bf2"/><stop offset="0.841" stop-color="#00a5fc"/><stop offset="1" stop-color="#00a8ff"/></linearGradient><linearGradient id="f" x1="0.849" y1="-0.005" x2="-0.228" y2="1.079" gradientUnits="objectBoundingBox"><stop offset="0" stop-color="#34d1ff"/><stop offset="0.403" stop-color="#00a8ff"/><stop offset="0.495" stop-color="#00a3fa"/><stop offset="0.592" stop-color="#0097ee"/><stop offset="0.69" stop-color="#0082d9"/><stop offset="0.762" stop-color="#006ec6"/></linearGradient><linearGradient id="g" x1="1.136" y1="0.5" x2="-0.068" y2="0.5" gradientUnits="objectBoundingBox"><stop offset="0" stop-color="#34d1ff"/><stop offset="0.344" stop-color="#15b8ff"/><stop offset="0.554" stop-color="#00a8ff"/><stop offset="0.66" stop-color="#00a1f8"/><stop offset="0.811" stop-color="#008ee6"/><stop offset="0.988" stop-color="#0070c8"/><stop offset="1" stop-color="#006ec6"/></linearGradient><linearGradient id="h" x1="0.09" y1="-0.041" x2="0.949" y2="1.093" gradientUnits="objectBoundingBox"><stop offset="0.016" stop-color="#34d1ff"/><stop offset="0.208" stop-color="#00a8ff"/><stop offset="0.736" stop-color="#00a4fb"/><stop offset="0.8" stop-color="#00a4fa"/><stop offset="0.864" stop-color="#0096ec"/><stop offset="0.985" stop-color="#0072ca"/><stop offset="0.999" stop-color="#006ec6"/></linearGradient><linearGradient id="i" x1="1.217" y1="0.575" x2="-0.196" y2="0.36" gradientUnits="objectBoundingBox"><stop offset="0.002" stop-color="#34d1ff"/><stop offset="0.186" stop-color="#19bbff"/><stop offset="0.361" stop-color="#06adff"/><stop offset="0.485" stop-color="#00a8ff"/><stop offset="0.608" stop-color="#00a1f9"/><stop offset="0.772" stop-color="#0090e8"/><stop offset="0.961" stop-color="#0074cc"/><stop offset="1" stop-color="#006ec6"/></linearGradient><linearGradient id="j" x1="1.014" y1="0.503" x2="0.016" y2="0.497" gradientUnits="objectBoundingBox"><stop offset="0.031" stop-color="#34d1ff"/><stop offset="0.143" stop-color="#2dccff"/><stop offset="0.294" stop-color="#1cbeff"/><stop offset="0.466" stop-color="#00a8ff"/><stop offset="0.47" stop-color="#00a8ff"/><stop offset="0.596" stop-color="#00a1f9"/><stop offset="0.766" stop-color="#0090e8"/><stop offset="0.96" stop-color="#0074cc"/><stop offset="1" stop-color="#006ec6"/></linearGradient><linearGradient id="k" x1="0.4" y1="0.557" x2="-0.109" y2="0.85" gradientUnits="objectBoundingBox"><stop offset="0.017" stop-color="#34d1ff" stop-opacity="0"/><stop offset="0.258" stop-color="#34d1ff" stop-opacity="0.4"/><stop offset="0.302" stop-color="#30ceff" stop-opacity="0.439"/><stop offset="0.375" stop-color="#27c7ff" stop-opacity="0.541"/><stop offset="0.468" stop-color="#19bbff" stop-opacity="0.706"/><stop offset="0.577" stop-color="#05acff" stop-opacity="0.937"/><stop offset="0.605" stop-color="#00a8ff"/><stop offset="0.678" stop-color="#00a4fb"/><stop offset="0.75" stop-color="#0098ef"/><stop offset="0.821" stop-color="#0084db"/><stop offset="0.88" stop-color="#006ec6"/></linearGradient><linearGradient id="l" y1="0.5" x2="1" y2="0.5" gradientUnits="objectBoundingBox"><stop offset="0" stop-color="#00a8ff"/><stop offset="0.266" stop-color="#04abff"/><stop offset="0.559" stop-color="#11b5ff"/><stop offset="0.863" stop-color="#27c7ff"/><stop offset="1" stop-color="#34d1ff"/></linearGradient><linearGradient id="m" x1="0.5" y1="1" x2="0.5" gradientUnits="objectBoundingBox"><stop offset="0.105" stop-color="#00a8ff"/><stop offset="1" stop-color="#34d1ff"/></linearGradient><linearGradient id="n" x1="0.5" y1="0.837" x2="0.5" y2="-0.345" gradientUnits="objectBoundingBox"><stop offset="0.013" stop-color="#00a8ff"/><stop offset="1" stop-color="#34d1ff"/></linearGradient><linearGradient id="o" x1="0.5" y1="0.123" x2="0.5" y2="0.697" gradientUnits="objectBoundingBox"><stop offset="0.016" stop-color="#006ec6"/><stop offset="0.284" stop-color="#0078d0"/><stop offset="0.752" stop-color="#0095ed"/><stop offset="1" stop-color="#00a8ff"/></linearGradient><linearGradient id="p" y1="0.5" x2="1" y2="0.5" gradientUnits="objectBoundingBox"><stop offset="0" stop-color="#34d1ff"/><stop offset="0.31" stop-color="#30ceff"/><stop offset="0.564" stop-color="#26c6ff"/><stop offset="0.798" stop-color="#15b8ff"/><stop offset="1" stop-color="#00a8ff"/></linearGradient><linearGradient id="q" x1="0.5" y1="1" x2="0.5" gradientUnits="objectBoundingBox"><stop offset="0.105" stop-color="#00a8ff"/><stop offset="1" stop-color="#006ec6"/></linearGradient><linearGradient id="r" x1="0.5" x2="0.5" y2="1" gradientUnits="objectBoundingBox"><stop offset="0.11" stop-color="#00a8ff"/><stop offset="0.335" stop-color="#00a3fa"/><stop offset="0.578" stop-color="#0096ed"/><stop offset="0.83" stop-color="#0080d8"/><stop offset="1" stop-color="#006ec6"/></linearGradient><linearGradient id="s" x1="162.973" y1="-108.151" x2="162.973" y2="-107.485" xlink:href="#r"/><linearGradient id="t" x1="0.5" y1="0.971" x2="0.5" y2="0.029" gradientUnits="objectBoundingBox"><stop offset="0.016" stop-color="#006ec6"/><stop offset="0.283" stop-color="#0078d0"/><stop offset="0.751" stop-color="#0095ed"/><stop offset="0.998" stop-color="#00a8ff"/></linearGradient><linearGradient id="u" y1="0.5" x2="1" y2="0.5" gradientUnits="objectBoundingBox"><stop offset="0.016" stop-color="#00a8ff"/><stop offset="0.354" stop-color="#17baff"/><stop offset="0.743" stop-color="#2ccbff"/><stop offset="1" stop-color="#34d1ff"/></linearGradient><linearGradient id="v" x1="0.5" y1="0.209" x2="0.5" y2="1.484" gradientUnits="objectBoundingBox"><stop offset="0.013" stop-color="#00a8ff"/><stop offset="0.352" stop-color="#17baff"/><stop offset="0.742" stop-color="#2ccbff"/><stop offset="1" stop-color="#34d1ff"/></linearGradient><linearGradient id="w" x1="4.093" y1="-64.326" x2="4.093" y2="-65.326" xlink:href="#m"/><linearGradient id="x" x1="-51.412" y1="-155.485" x2="-51.412" y2="-154.819" xlink:href="#r"/></defs><g transform="translate(-37 -18.078)"><g transform="translate(75.975 30.474)"><rect class="a" width="4.098" height="23.22" transform="translate(119.143 0.389)"/><path class="b" d="M598.7,1008.387h-5.35v-20.6h-4.1v24.7H598.7Z" transform="translate(-500.727 -987.469)"/><rect class="c" width="4.098" height="24.627" transform="translate(98.994 0.389)"/><rect class="d" width="4.098" height="24.627" transform="translate(104.232 0.389)"/><path class="e" d="M643.711,988.046h4.781l14.343,24.627h-4.781Z" transform="translate(-539.481 -987.657)"/><path class="f" d="M712.562,988.046h-4.781l-14.344,24.627h4.781Z" transform="translate(-574.864 -987.657)"/><path class="g" d="M534.22,987.782h-7.49v24.7h7.49a11.407,11.407,0,0,0,11.407-11.406v-1.89A11.407,11.407,0,0,0,534.22,987.782Zm7.308,13.318a7.286,7.286,0,0,1-7.286,7.286h-3.414V991.892h3.414a7.287,7.287,0,0,1,7.286,7.286Z" transform="translate(-456.242 -987.469)"/><path class="h" d="M476.929,1012.4h4.326l-9.335-24.816h-4.326L458.26,1012.4h4.326l1.8-4.781h10.747Zm-11-8.879,3.832-10.187,3.832,10.187Z" transform="translate(-407.522 -987.329)"/><path class="i" d="M695.806,988.046h4.781l14.343,24.741h-4.781Z" transform="translate(-576.549 -987.657)"/><path class="j" d="M427.395,987.782v15.254a5.35,5.35,0,0,1-10.7,0V987.782h-4.1v15.254a9.449,9.449,0,0,0,9.449,9.449h0a9.448,9.448,0,0,0,9.448-9.449V987.782Z" transform="translate(-375.03 -987.469)"/><path class="k" d="M356.389,1008.83a11.568,11.568,0,0,0,3.159-7.957v-1.48a11.611,11.611,0,1,0-23.223,0v1.48a11.613,11.613,0,0,0,14.629,11.213.506.506,0,0,0,.1-.011,3.559,3.559,0,0,1,1.052-.159h.461a3.607,3.607,0,0,1,1.937.568h5.154A7.783,7.783,0,0,0,356.389,1008.83Zm-15.966-7.957v-1.468a7.513,7.513,0,0,1,15.027,0v1.468a7.513,7.513,0,0,1-15.027,0Z" transform="translate(-320.759 -987.469)"/><path class="l" d="M356.389,1008.83a11.568,11.568,0,0,0,3.159-7.957v-1.48a11.611,11.611,0,1,0-23.223,0v1.48a11.613,11.613,0,0,0,14.629,11.213.506.506,0,0,0,.1-.011,3.559,3.559,0,0,1,1.052-.159h.461a3.607,3.607,0,0,1,1.937.568h5.154A7.783,7.783,0,0,0,356.389,1008.83Zm-15.966-7.957v-1.468a7.513,7.513,0,0,1,15.027,0v1.468a7.513,7.513,0,0,1-15.027,0Z" transform="translate(-320.759 -987.469)"/><path class="m" d="M392.615,1009.853a11.568,11.568,0,0,0,3.159-7.957v-1.48a11.614,11.614,0,0,0-8.538-11.2v4.353a7.513,7.513,0,0,1,4.439,6.855v1.468a7.513,7.513,0,0,1-4.439,6.856v4.354a.255.255,0,0,0,.048-.007,3.557,3.557,0,0,1,1.052-.159h.461a3.606,3.606,0,0,1,1.937.568h5.154A7.782,7.782,0,0,0,392.615,1009.853Z" transform="translate(-356.985 -988.492)"/><path class="n" d="M378.865,1061.4a4.3,4.3,0,0,1,3.606.487h5.27a8.418,8.418,0,0,0-11.953-3.563Z" transform="translate(-348.84 -1036.793)"/><g transform="translate(0 0)"><path class="c" d="M295.059,1002.905c-2.242-1.666-5.595-1.642-8.242-3.807a6.577,6.577,0,0,1-2.68-5.326,6.652,6.652,0,0,1,2.321-5.323c5.217-3.942,14.116-.683,14.116,4.326-.228,0-4.348.7-4.326.683-.228-3.643-7.286-4.1-7.843-.052-.582,3.467,4.427,3.922,7.985,5.484a7.243,7.243,0,0,1,3.717,3.442c2.288,6.381-3.4,9.34-7.692,9.34-5.176.167-10.056-2.96-10.056-8.652l4.554-.228a5.072,5.072,0,0,0,5.464,4.781C296.247,1007.8,296.475,1003.931,295.059,1002.905Z" transform="translate(-282.359 -986.697)"/></g></g><g transform="translate(37 18.078)"><path class="o" d="M235.472,982.735h0L221.233,968.5v7.119l10.679,10.679-3.561,3.561,3.56,3.56,3.562-3.562Z" transform="translate(-199.89 -961.35)"/><path class="p" d="M184.184,1030.209l10.681,10.679-3.56,3.56-7.119-7.119Z" transform="translate(-173.528 -1005.263)"/><path class="k" d="M187.752,1017.88V1025l-3.56-3.56Z" transform="translate(-173.534 -996.489)"/><rect class="q" width="5.033" height="15.151" transform="translate(7.095 14.272) rotate(-135)"/><path class="k" d="M224.769,956.133v7.117l-3.559-3.559Z" transform="translate(-199.874 -952.553)"/><path class="r" d="M170.182,991.512l-3.559,3.559-7.109-7.109-.01-7.135Z" transform="translate(-155.967 -970.124)"/><path class="s" d="M175.468,980.859h7.118l-7.118,7.118-3.559-3.559Z" transform="translate(-164.794 -970.147)"/><path class="t" d="M216.011,1062.063h-7.118l7.118-7.118,3.559,3.559Z" transform="translate(-191.11 -1022.864)"/><path class="u" d="M253.083,1024.978v-7.118l-7.118,7.118,3.559,3.559Z" transform="translate(-217.489 -996.475)"/><path class="v" d="M203.653,943.791l3.559,3.559-3.559,3.559-7.121-7.122Z" transform="translate(-182.313 -943.768)"/><path class="k" d="M221.463,1025.073v-7.119l3.56,3.56Z" transform="translate(-200.054 -996.542)"/><rect class="w" width="5.033" height="15.151" transform="translate(28.533 35.65) rotate(45)"/><path class="k" d="M184.449,1086.825v-7.117l3.559,3.559Z" transform="translate(-173.717 -1040.483)"/><path class="x" d="M221.475,1033.864l3.559-3.559,7.109,7.109.01,7.135Z" transform="translate(-200.063 -1005.331)"/><path class="v" d="M188,1099.156l-3.559-3.559,3.559-3.558,7.121,7.121Z" transform="translate(-173.709 -1049.258)"/><path class="y" d="M200.138,980.856l7.119,7.119v7.119l-10.679-10.679Z" transform="translate(-182.347 -970.145)"/><path class="z" d="M147.24,1016.253h0l14.239,14.238v-7.119L150.8,1012.695l3.561-3.561-3.56-3.56-3.562,3.562Z" transform="translate(-147.24 -987.733)"/><path class="aa" d="M147.241,1009.133v7.118l7.118-7.118-3.559-3.559Z" transform="translate(-147.24 -987.733)"/></g></g></svg>